<svg width="237" height="162" viewBox="0 0 237 162" fill="none" xmlns="http://www.w3.org/2000/svg">
<path d="M5.48126 83.4044L5.14358 86.6207L4.29688 85.9439L4.69209 82.8965L5.48126 83.4044Z" fill="#002A69"/>
<path d="M42.0301 16.5081L42.3053 22.3477L43.0344 25.7291L41.7199 26.0131C41.7199 26.0131 39.3774 30.648 36.0844 27.2278L33.952 28.2773L30.639 30.2364L27.6686 26.4859L26.5918 24.358L30.6302 22.8981C30.6302 22.8981 38.527 16.6732 42.0301 16.5068V16.5081Z" fill="#FFAE9E"/>
<path d="M42.4353 18.387C42.4353 18.387 39.9889 16.9634 38.9809 17.4763C37.9729 17.9892 37.7377 23.0432 37.7377 23.0432L36.7985 23.2458L36.0881 19.952C36.0881 19.952 34.0457 19.598 33.9945 21.1855L34.3196 22.6929L30.6289 22.8993L31.8933 14.1725L34.7899 12.5649C34.7899 12.5649 47.1303 13.7321 42.434 18.3883L42.4353 18.387Z" fill="#002152"/>
<path d="M36.085 27.2276L34.7043 25.2035L36.8605 18.6158C36.8605 18.6158 34.4779 18.3681 33.4299 22.7416L31.7415 22.8354L30.6309 22.898L31.3187 26.0917L33.7275 28.4098L36.085 27.2276Z" fill="#EAA091"/>
<path d="M29.341 90.4075L21.912 151.273L18.1237 151.163L13.7051 110.531L17.1019 94.9798L23.1664 84.9919L29.341 90.4075Z" fill="#002152"/>
<path d="M29.7053 22.2713L36.2976 31.1833L39.1353 59.9872L31.0835 93.3059L6.42773 85.4272L12.2946 64.3644L13.8742 38.1625C13.9843 36.3423 14.6484 34.5985 15.7765 33.1673L18.6668 29.5007C19.3122 28.2385 27.1351 23.7975 28.3896 23.137L29.704 22.27L29.7053 22.2713Z" fill="#002A69"/>
<path d="M30.2011 41.1976C31.9908 38.2715 31.5393 34.4172 28.9641 32.1529C28.0274 31.3298 26.8705 30.7719 25.471 30.8307C20.6146 31.0358 19.5703 31.8915 17.6168 36.8391C15.6632 41.7868 10.2753 54.9909 10.2753 54.9909C10.2753 54.9909 6.36949 64.8875 7.34626 81.6056L9.23478 81.5256L20.8773 56.4346L30.2011 41.1963V41.1976Z" fill="#0C3879"/>
<path d="M10.1137 83.1104L12.5225 114.539C12.5225 114.539 4.8896 119.365 15.7379 152.292L18.4581 152.708L27.1741 90.3385L10.1137 83.1104Z" fill="#002A69"/>
<path d="M15.8278 150.999L14.6172 152.506L15.4126 154.111L17.2373 154.217L17.57 153.473L18.7069 154.518L22.719 154.713L23.5958 153.948L19.1746 152.678L17.6601 151.285L15.8278 150.999Z" fill="#002152"/>
<path d="M19.3903 150.999L18.1797 152.506L18.9764 154.111L20.8011 154.217L21.1325 153.473L22.2694 154.518L26.2815 154.713L27.1595 153.948L22.7371 152.678L21.2226 151.285L19.3903 150.999Z" fill="#002152"/>
<path d="M9.23635 81.5254L8.3021 84.7029L6.42734 85.4285L4.69141 82.8965L7.34784 81.6055L9.23635 81.5254Z" fill="#FFAE9E"/>
<path d="M38.2276 64.0817L39.786 58.7413L36.2979 31.1846L34.7695 33.4113L38.2276 64.0817Z" fill="#ED1C24"/>
<path d="M38.002 65.1725L34.8566 29.0829L29.7051 22.2712L33.5496 42.9237L30.5593 42.5097L38.002 65.1725Z" fill="#0C3879"/>
<path d="M36.298 31.1845L29.7057 22.2712L27.3457 23.9938L33.8392 36.9641L36.298 31.1845Z" fill="white"/>
<path d="M36.2975 31.1846L35.0469 34.2482L35.6697 35.5355L37.0304 35.7482L37.8684 33.4589L36.2975 31.1846Z" fill="#ED1C24"/>
<path d="M26.9796 92.1287L10.5195 86.3367L10.5996 88.2257L26.9796 92.1287Z" fill="#002152"/>
<path d="M30.3543 76.0373L18.0202 71.9629L17.291 73.8869L30.3993 77.1169L30.3543 76.0373Z" fill="#0C3879"/>
<path d="M31.0836 93.3073L38.2275 64.0818L29.8555 92.7168L30.6459 93.3936" fill="#002152"/>
<path d="M9.88226 89.8383L5.65124 85.605L2.77344 85.7751L5.48114 89.8383H9.88226Z" fill="#002A69"/>
<path d="M10.8971 108.801H5.48047V89.8384H9.88159L10.8971 108.801Z" fill="#002152"/>
<path d="M2.77336 85.7751L1.75781 100.843L5.48107 108.801V89.8383L2.77336 85.7751Z" fill="#0C3879"/>
<path d="M7.0047 88.3147L7.34363 83.5734L6.49693 83.4045L5.82031 88.3147H7.0047Z" fill="#002A69"/>
<path d="M9.20492 107.954L8.01928 90.3462L7.17383 108.124L8.18937 106.261L9.20492 107.954Z" fill="#0C3879"/>
<path d="M182.864 133.787C182.867 132.425 183.974 131.32 185.336 131.32L190.536 131.327C191.863 131.361 192.942 132.469 192.941 133.799L192.935 138.904L182.859 138.892L182.866 133.787H182.864ZM191.908 133.798C191.909 133.025 191.283 132.38 190.475 132.36L185.336 132.354C184.544 132.354 183.899 132.997 183.899 133.789L183.894 137.861L191.904 137.871L191.909 133.799L191.908 133.798Z" fill="#0E418D"/>
<path d="M174.907 155.198L200.789 154.969C201.431 154.963 201.948 154.438 201.942 153.795L201.789 136.564C201.783 135.921 201.258 135.404 200.615 135.41L174.733 135.639C174.09 135.645 173.574 136.171 173.58 136.814L173.733 154.045C173.739 154.688 174.264 155.205 174.907 155.198Z" fill="#0E418D"/>
<path d="M201.635 144.162L173.658 144.411L173.661 144.738L201.638 144.489L201.635 144.162Z" fill="#5980BB"/>
<path d="M186.179 141.448L186.166 141.965L188.844 142.032L188.857 141.516L186.179 141.448Z" fill="#5980BB"/>
<path d="M202.28 60.4939L197.207 69.6736L195.74 72.6284L196.682 73.6192L198.54 71.7615L201.007 68.2275L202.006 60.4939" fill="#FFAE9E"/>
<path d="M195.74 72.6284L193.779 75.1254C193.779 75.1254 193.979 75.6371 194.579 74.7026C194.579 74.7026 193.424 76.5478 193.779 76.7254C194.134 76.9031 194.668 77.5924 195.845 75.3694L196.68 73.618L195.739 72.6272L195.74 72.6284Z" fill="#FFAE9E"/>
<path d="M189.769 50.4209C190.289 50.3095 190.538 49.4138 190.325 48.423L187.41 34.8574C187.197 33.8653 186.602 33.1523 186.082 33.2649C185.561 33.3762 185.313 34.2719 185.525 35.2627L188.441 48.8296C188.653 49.8216 189.248 50.5347 189.769 50.4221V50.4209Z" fill="#1E519E"/>
<path d="M187.092 35.2739C190.454 34.2118 192.335 30.2412 191.495 26.3269C190.647 22.3838 187.265 19.5478 183.732 20.0657C179.919 20.6249 177.428 24.8144 178.458 29.3292C179.478 33.8053 183.467 36.4186 187.092 35.2739Z" fill="#1E519E"/>
<path opacity="0.66" d="M180 28.974C180.792 32.4693 183.884 34.5547 186.746 33.7027C189.444 32.8996 190.97 29.7471 190.291 26.6047C189.608 23.4422 186.894 21.2179 184.089 21.6783C181.108 22.1674 179.203 25.4563 180 28.9753V28.974Z" fill="white"/>
<g style="mix-blend-mode:multiply">
<path d="M186.17 23.2971C186.17 23.2971 190.567 28.0409 187.786 32.0065C187.786 32.0065 192.218 26.5785 186.17 23.2971Z" fill="#C4DEF0"/>
</g>
<path d="M207.626 17.5C207.626 17.5 204.955 22.7441 205.89 28.8114L206.15 30.0299L209.768 29.2593L214.398 24.5568L207.627 17.5H207.626Z" fill="#0C3879"/>
<path d="M213.311 32.8959L213.282 25.5776L210.494 27.7994L210.757 32.8371L213.311 32.8959Z" fill="#E0A990"/>
<path d="M206.765 17.9666L206.363 21.7896L203.906 24.2565L205.39 24.4842C205.39 24.4842 204.745 28.9152 207.518 28.5199L209.03 31.0369L209.892 36.4649L212.129 37.0654L211.645 32.9033L212.597 27.9494C212.597 27.9494 217.345 14.5226 206.764 17.9666H206.765Z" fill="#FFAE9E"/>
<path d="M207.52 28.5198L209.828 27.8393L212.042 25.2498C212.042 25.2498 214.613 23.5209 212.615 26.7297L212.587 28.7212L215.004 32.6481L209.893 36.4636L209.032 31.0356L207.52 28.5186V28.5198Z" fill="#EAA091"/>
<path d="M209.883 148.217L206.973 153.162C208.436 152.717 209.92 151.634 209.883 148.217Z" fill="#E0A990"/>
<path d="M216.638 99.5471L214.799 107.312C214.799 107.312 220.645 111.838 213.9 148.389L211.838 151.19C211.1 143.114 208.372 107.994 206.906 100.749L216.638 99.5471Z" fill="#F09674"/>
<path d="M201.596 98.2637L209.739 150.003L211.321 151.145C211.321 151.145 219.278 120.14 210.672 108.09L211.945 103.106L201.597 98.2625L201.596 98.2637Z" fill="#FFA494"/>
<path d="M213.346 31.3648C210.474 31.1196 211.846 31.2359 209.071 30.9995C209.071 30.9995 206.352 34.4647 203.009 36.3199C199.666 38.1751 205.708 43.8646 203.56 48.8798C201.413 53.8962 194.138 64.8974 200.676 102.467L216.243 103.798C216.243 103.798 218.326 87.9018 219.528 81.1389C220.99 72.915 216.979 65.7969 214.638 58.8677C212.295 51.9385 223.905 39.9478 213.863 30.658L213.347 31.366L213.346 31.3648Z" fill="#EF4136"/>
<path d="M214.082 147.278C213.096 148.2 210.771 152.01 210.028 153.189C209.21 153.542 206.821 153.611 206.836 154.866L210.707 155.196L212.708 151.264C212.702 151.879 212.625 154.815 212.693 155.365L213.425 155.427C213.631 153.801 214.225 150.296 214.778 148.773L214.082 147.278Z" fill="#DF3D32"/>
<path d="M211.67 147.073C210.684 147.995 208.359 151.804 207.616 152.984C206.798 153.337 204.409 153.406 204.424 154.66L208.295 154.991L210.296 151.059C210.29 151.674 210.213 154.61 210.281 155.16L211.012 155.222C211.218 153.596 211.813 150.091 212.366 148.568L211.67 147.073Z" fill="#EF4136"/>
<path d="M211.918 103.429L214.803 81.957C214.803 81.957 216.44 77.7462 213.675 71.8828C213.675 71.8828 217.551 76.21 217.401 79.5138C217.252 82.8177 214.968 103.55 214.968 103.55L211.918 103.429Z" fill="#DF3D32"/>
<path d="M208.608 14.7516C208.608 14.7516 215.766 10.7122 217.953 22.6003L219.049 27.6931L211.011 29.4057C211.011 29.4057 211.064 20.8639 209.86 19.2001C208.657 17.5363 207.625 17.5 207.625 17.5L208.608 14.7504V14.7516Z" fill="#0C3879"/>
<path d="M206.122 19.254L210.376 19.1927C210.376 19.1927 210.137 14.5178 208.35 14.8055C204.343 15.4497 206.122 19.254 206.122 19.254Z" fill="#1E4F98"/>
<g style="mix-blend-mode:multiply">
<path d="M202.279 102.604L211.45 105.044L215.428 104.652L215.595 103.773L211.946 103.107L202.279 102.604Z" fill="#E6E7E8"/>
</g>
<path d="M189.819 40.5744L189.906 40.8246L188.847 41.7053C188.101 40.8083 187.435 39.9714 187.325 40.0239C184.447 38.9944 186.882 37.9861 186.882 37.9861C189.461 38.8067 188.083 38.5065 189.817 40.5731L189.819 40.5744Z" fill="#FFAE9E"/>
<path d="M189.404 40.2117L187.443 37.1143C186.337 37.2006 189.048 39.9077 189.404 40.2117Z" fill="#FFAE9E"/>
<path d="M212.67 43.9846L201.267 53.8211C200.519 54.4666 199.39 54.379 198.75 53.6284L188.102 40.8109L189.397 40.0415L199.812 49.3238L208.135 41.0723L212.67 43.9859V43.9846Z" fill="#FFAE9E"/>
<path d="M213.066 45.7197L205.875 41.0998C205.875 41.0998 208.832 34.7961 211.918 35.224C215.985 35.7882 217.11 40.1678 213.066 45.7197Z" fill="#F05045"/>
<path d="M212.86 45.5859L211.919 44.8115L201.447 53.666L200.355 56.821L208.267 48.6783L211.378 45.7197H213.067" fill="#DF3D32"/>
<path d="M195.975 72.8775C195.975 72.8775 193.794 74.8077 193.949 75.0867C194.104 75.3657 195.435 74.5025 195.435 74.5025C195.435 74.5025 195.758 75.6234 195.844 75.3707C195.93 75.118 196.656 74.7227 196.68 73.6193C196.705 72.5159 195.975 72.8775 195.975 72.8775Z" fill="#FFAE9E"/>
<path d="M51.8217 68.8403C51.5216 71.3711 51.3652 73.9456 51.3652 76.5564C51.3652 107.577 73.1507 133.507 102.253 139.879C104.241 140.314 106.264 140.658 108.316 140.906C110.89 141.216 113.511 141.376 116.169 141.376C137.942 141.376 157.206 130.636 168.957 114.165C176.523 103.56 180.974 90.5774 180.974 76.5564C180.974 73.9456 180.819 71.3711 180.518 68.8403H51.8217Z" fill="#009245"/>
<path d="M128.302 92.0073C125.482 90.4998 124.027 86.9621 119.719 87.47C116.386 87.8628 112.562 87.2098 112.196 82.127C112.063 80.2981 110.301 79.4649 108.279 78.6843C104.312 77.1543 101.209 73.3201 96.2461 74.4998C96.041 74.5485 95.7321 73.8718 95.3907 73.6816C92.8831 72.283 90.3942 71.1446 88.4144 74.4922C86.9149 77.0292 84.6737 75.9409 82.6013 75.6219C80.1938 75.2503 80.7065 73.3839 80.659 71.8064C80.6302 70.8732 80.9729 69.6234 80.0062 69.1906C79.7498 69.0755 79.5096 68.9604 79.2845 68.8416H63.0508C63.9238 69.1843 65.0769 69.3457 66.6615 69.4233C70.8175 69.6259 74.0067 71.6713 76.922 74.2345C78.6617 75.7645 80.0637 77.4896 82.7389 77.382C83.7994 77.3395 85.3203 77.5584 85.5054 79.2322C85.6679 80.7109 86.1482 82.5273 84.4986 83.2842C81.7608 84.5402 81.6908 86.9958 81.8521 89.1625C82.2361 94.2991 85.5541 98.2597 89.2361 101.086C92.4954 103.586 94.7653 105.733 93.9074 109.928C92.9931 114.397 94.7728 118.692 95.2318 122.977C95.5683 126.119 96.4525 129.656 97.2917 132.962C98.0446 135.923 99.8218 138.279 102.118 140.163C104.107 140.598 106.129 140.942 108.181 141.19C108.186 141.163 108.178 141.141 108.155 141.123C105.519 139.034 108.43 135.062 105.012 133.262C103.031 132.22 106.201 129.327 104.164 127.542C104.014 127.41 105.775 127.04 106.625 126.722C111.918 124.744 116.287 118.315 116.113 112.74C116.034 110.225 117.182 108.934 119.826 109.118C122.663 109.315 124.101 107.904 124.339 105.085C124.669 101.151 125.074 97.2377 128.049 94.1677C128.572 93.6286 129.153 92.4651 128.302 92.011V92.0073Z" fill="#8CC63F"/>
<path d="M136.332 68.8403C135.658 73.5253 139.353 76.649 142.558 79.5037C145.444 82.0745 149.642 80.8948 152.847 79.4362C156.937 77.576 159.288 81.6342 162.719 81.5478C162.812 81.5453 163.142 82.5699 162.997 82.9902C161.757 86.568 163.487 89.3327 165.359 92.0774C167.071 94.5856 168.016 97.0813 165.837 99.896C164.893 101.117 164.708 102.572 165.494 104.123C167.151 107.389 167.947 110.93 168.824 114.446C176.389 103.842 180.84 90.8589 180.84 76.8379C180.84 74.1307 180.674 71.4611 180.351 68.8416H136.332V68.8403Z" fill="#8CC63F"/>
<path d="M145.983 65.2212C148.192 61.9974 149.985 58.4009 151.256 54.479C158.311 32.7131 146.662 9.25844 125.238 2.09154C103.814 -5.07535 80.7282 6.75897 73.6731 28.5248C69.4971 41.4075 71.8759 54.8818 78.9535 65.2212H145.983Z" fill="#FFD014"/>
<path d="M140.59 65.2213C142.627 62.3878 144.27 59.189 145.408 55.6762C151.262 37.617 141.596 18.1555 123.821 12.2095C106.045 6.26235 86.8882 16.0826 81.0351 34.1418C77.4844 45.0967 79.6456 56.5657 85.8602 65.2225H140.59V65.2213Z" fill="#FFE44E"/>
<path d="M137.482 65.2212C138.48 63.4773 139.317 61.6034 139.963 59.6106C144.961 44.1934 136.709 27.5791 121.533 22.5026C106.358 17.4261 90.0051 25.8089 85.0074 41.2261C82.3122 49.5426 83.4728 58.2069 87.495 65.2212H137.482Z" fill="#FFEE86"/>
<path d="M74.0293 35.8042C75.0461 35.7104 76.0054 35.6253 77.0422 35.5365C76.9446 34.3681 76.8533 33.266 76.7595 32.1376C79.7599 31.8811 82.6815 31.656 85.6831 31.4508C85.7569 32.5679 85.8294 33.6701 85.9057 34.8272C86.9212 34.7584 87.8642 34.6959 88.8935 34.6321C88.9498 35.5615 89.0023 36.4385 89.0586 37.373C90.2368 37.2779 91.3023 37.3617 92.3316 36.7175C94.4178 35.4127 96.6002 34.243 98.7639 33.0383C98.9089 32.957 99.0565 32.8832 99.2529 32.7794C100.223 33.944 101.148 35.1199 102.133 36.2421C102.641 36.82 102.84 37.4293 102.837 38.1736C102.834 39.387 102.907 40.6005 102.951 41.8715C104.072 41.8315 105.157 41.7977 106.322 41.7639C106.239 38.7553 106.157 35.7492 106.072 32.6793C107.155 32.648 108.161 32.623 109.208 32.5992C109.223 32.3628 109.275 32.1789 109.238 32.0137C109.004 30.9504 109.48 30.1811 110.243 29.4405C111.343 28.3709 112.359 27.2187 113.447 26.0791C114.865 27.4864 116.246 28.865 117.598 30.2661C117.723 30.395 117.768 30.6289 117.777 30.8166C117.803 31.3407 117.79 31.8661 117.793 32.4716C118.857 32.4654 119.883 32.4629 120.966 32.4641C120.962 37.8871 120.958 43.2301 120.955 48.6106C121.265 48.6106 121.517 48.6106 121.826 48.6118C121.851 38.1398 121.876 27.7079 121.901 17.2196C124.304 17.2259 126.65 17.2471 129.07 17.2859C129.098 15.5208 129.124 13.8107 129.151 12.0505C132.428 12.1043 135.627 12.1844 138.9 12.297C138.844 13.9933 138.787 15.7047 138.727 17.4861C141.072 17.5674 143.347 17.6612 145.679 17.7725C145.295 26.0766 144.914 34.3106 144.531 42.5908C144.969 42.6121 145.35 42.6309 145.804 42.6534C145.937 39.9375 146.068 37.2366 146.203 34.4657C147.721 34.542 149.167 34.6208 150.669 34.7096C150.717 33.8777 150.761 33.1146 150.809 32.274C152.168 32.354 153.468 32.4366 154.849 32.5292C154.904 31.6772 154.955 30.9004 155.008 30.091C156.229 30.1735 157.368 30.2536 158.596 30.3437C158.54 31.1343 158.483 31.9099 158.423 32.7543C159.814 32.8569 161.117 32.9595 162.464 33.0696C162.398 33.9052 162.337 34.6683 162.271 35.5115C163.775 35.6353 165.238 35.7617 166.772 35.9006C165.954 45.1791 165.143 54.3751 164.327 63.6361C165.166 63.7124 165.936 63.785 166.735 63.8613C166.702 64.2191 166.675 64.5131 166.643 64.8596C136.023 61.9198 105.205 61.916 74.5458 64.8596C74.5183 64.5581 74.4883 64.2466 74.452 63.8576C75.1161 63.7938 75.784 63.7312 76.5069 63.6649C75.6789 54.3476 74.8572 45.1078 74.0305 35.798L74.0293 35.8042ZM96.5852 46.3863C96.5489 45.6182 96.5151 44.8901 96.4814 44.1558C95.8723 44.1858 95.3082 44.2134 94.7317 44.2434C94.7705 45.004 94.8055 45.7208 94.843 46.4739C95.4308 46.4439 95.9911 46.4151 96.5852 46.3863ZM98.3586 44.0382C98.3912 44.7901 98.4224 45.5231 98.4562 46.2962C99.0277 46.2712 99.5906 46.2462 100.157 46.2237C100.126 45.4493 100.097 44.7162 100.067 43.9644C99.4955 43.9882 98.9815 44.0094 98.3586 44.037V44.0382ZM127.254 24.0049C127.886 24.0125 128.457 24.0212 129.054 24.0312C129.066 23.2656 129.078 22.5338 129.089 21.7945C128.467 21.7844 127.895 21.7757 127.282 21.7682C127.273 22.5188 127.263 23.2356 127.254 24.0049ZM131.051 21.8295C131.036 22.5976 131.022 23.3307 131.007 24.0662C131.632 24.0788 132.203 24.0913 132.796 24.105C132.813 23.3369 132.83 22.6026 132.847 21.8683C132.219 21.8533 131.645 21.8407 131.051 21.8295ZM136.538 24.2214C136.562 23.4395 136.583 22.7227 136.604 21.9796C135.984 21.9608 135.399 21.9433 134.808 21.9271C134.788 22.6989 134.768 23.4282 134.749 24.1688C135.362 24.1863 135.916 24.2013 136.538 24.2201V24.2214ZM130.606 44.8088C130.591 45.5982 130.576 46.3288 130.562 47.0368C131.174 47.0493 131.733 47.0618 132.282 47.0743C132.299 46.3012 132.316 45.5857 132.333 44.8463C131.743 44.8326 131.194 44.8201 130.606 44.8088ZM127.238 26.3643C127.228 27.1549 127.219 27.888 127.21 28.6161C127.833 28.6236 128.4 28.6323 128.976 28.6423C128.989 27.8692 129 27.1362 129.011 26.3906C128.404 26.3806 127.849 26.3731 127.238 26.3643ZM132.755 26.4781C132.123 26.4631 131.553 26.4506 130.957 26.4394C130.942 27.2075 130.929 27.943 130.914 28.6836C131.529 28.6961 132.097 28.7086 132.703 28.7224C132.721 27.9706 132.737 27.2525 132.755 26.4781ZM128.682 47.0381C128.695 46.2787 128.706 45.5306 128.717 44.7826C128.127 44.7725 127.577 44.765 127.005 44.7575C126.995 45.5269 126.987 46.2612 126.978 47.0131C127.562 47.0206 128.095 47.0281 128.682 47.0381ZM97.0054 55.5698C96.9691 54.8017 96.9354 54.0686 96.9003 53.3318C96.3075 53.3605 95.7672 53.3881 95.2119 53.4156C95.2507 54.1849 95.287 54.918 95.3245 55.6536C95.9098 55.6236 96.4489 55.5961 97.0054 55.5698ZM130.453 51.6605C131.062 51.673 131.604 51.6842 132.166 51.698C132.183 50.9286 132.199 50.1968 132.217 49.4612C131.62 49.4475 131.075 49.435 130.497 49.4237C130.482 50.178 130.468 50.8961 130.453 51.6605ZM135.926 44.9527C135.311 44.9339 134.764 44.9177 134.19 44.9026C134.17 45.6695 134.15 46.4013 134.132 47.1194C134.741 47.1357 135.3 47.1519 135.86 47.1694C135.883 46.4126 135.904 45.7108 135.926 44.9527ZM126.937 49.3624C126.927 50.1368 126.918 50.8536 126.909 51.5942C127.503 51.6017 128.058 51.6104 128.63 51.6192C128.642 50.8573 128.654 50.1393 128.665 49.3874C128.085 49.3774 127.541 49.3699 126.937 49.3624ZM134.666 26.5282C134.646 27.3025 134.627 28.0169 134.607 28.7549C135.222 28.7712 135.798 28.7887 136.397 28.8062C136.419 28.0419 136.44 27.3276 136.463 26.5795C135.856 26.5607 135.291 26.5444 134.666 26.5269V26.5282ZM140.189 26.7133C139.54 26.6883 138.973 26.6683 138.396 26.6483C138.37 27.4189 138.346 28.1507 138.321 28.8788C138.942 28.9 139.507 28.9213 140.106 28.9438C140.134 28.187 140.16 27.4689 140.189 26.7133ZM96.3075 39.5672C95.6634 39.5985 95.0944 39.6272 94.5078 39.6573C94.5453 40.4129 94.5816 41.1284 94.6204 41.9128C95.1231 41.8865 95.5971 41.8853 96.0636 41.8252C96.1862 41.8102 96.3826 41.6163 96.3826 41.505C96.3851 40.8657 96.3388 40.2265 96.3075 39.5672ZM98.1598 39.4696C98.1935 40.2552 98.2248 40.9708 98.2561 41.6976C98.8552 41.6713 99.4055 41.6476 99.992 41.6238C99.962 40.8632 99.9332 40.1451 99.9032 39.3958C99.3091 39.4196 98.7526 39.4446 98.1598 39.4709V39.4696ZM134.072 49.5075C134.052 50.2731 134.032 51.0037 134.013 51.7443C134.601 51.7605 135.138 51.7756 135.704 51.7931C135.726 51.025 135.749 50.2944 135.77 49.5576C135.18 49.5388 134.637 49.5238 134.072 49.5088V49.5075ZM139.261 51.9144C139.289 51.1463 139.316 50.4295 139.343 49.6852C138.748 49.6626 138.19 49.6426 137.611 49.6226C137.586 50.3807 137.562 51.0975 137.537 51.8531C138.111 51.8731 138.653 51.8919 139.262 51.9157L139.261 51.9144ZM100.531 55.4184C100.501 54.6578 100.471 53.9235 100.442 53.1904C99.8457 53.2154 99.2929 53.238 98.7488 53.263C98.7826 54.0336 98.8126 54.7504 98.8451 55.491C99.423 55.4647 99.9607 55.4422 100.531 55.4184ZM128.811 40.1564C128.292 40.1476 127.837 40.1251 127.384 40.1464C127.258 40.1527 127.038 40.284 127.034 40.3666C126.998 41.0409 127.002 41.7164 126.993 42.3944C127.642 42.4032 128.192 42.4107 128.775 42.4207C128.788 41.6713 128.799 40.9558 128.811 40.1564ZM130.689 40.219C130.674 41.0108 130.66 41.7289 130.646 42.4382C131.258 42.4507 131.825 42.4632 132.382 42.4757C132.399 41.7089 132.416 40.9933 132.432 40.2565C131.833 40.2427 131.28 40.2302 130.689 40.219ZM134.232 42.542C134.848 42.5583 135.399 42.5758 135.975 42.5921C135.998 41.8315 136.019 41.1022 136.041 40.3791C135.426 40.3603 134.861 40.3441 134.29 40.3278C134.27 41.0834 134.252 41.7827 134.232 42.5408V42.542ZM137.841 42.6509C138.463 42.6721 139.014 42.6922 139.581 42.7134C139.608 41.9478 139.636 41.2172 139.662 40.4854C139.053 40.4629 138.499 40.4429 137.915 40.4216C137.89 41.176 137.866 41.8903 137.841 42.6496V42.6509ZM126.889 53.956C126.879 54.7166 126.87 55.4472 126.861 56.1878C127.459 56.1953 128.01 56.204 128.551 56.2128C128.564 55.4422 128.575 54.7241 128.586 53.981C128.026 53.9723 127.503 53.9635 126.889 53.956ZM94.9393 48.8958C94.9568 49.2423 94.9743 49.6038 94.9931 49.9654C95.0106 50.3219 95.0293 50.6784 95.0469 51.0425C95.6759 51.0099 96.2312 50.9824 96.8416 50.9524C96.8278 50.6684 96.8166 50.4295 96.8065 50.1906C96.7557 49.0989 96.1775 48.6377 95.0719 48.807C95.0544 48.8095 95.0381 48.8282 94.9405 48.8958H94.9393ZM138.444 24.2752C139.082 24.2964 139.653 24.3177 140.265 24.3415C140.292 23.5796 140.32 22.8478 140.346 22.1185C139.707 22.0947 139.118 22.0734 138.518 22.0522C138.493 22.8065 138.469 23.5096 138.444 24.2764V24.2752ZM132.6 33.2948C132.617 32.5379 132.633 31.8236 132.65 31.0855C132.033 31.0718 131.456 31.058 130.859 31.0467C130.844 31.8023 130.83 32.5141 130.816 33.256C131.43 33.2685 132.007 33.281 132.6 33.2948ZM139.897 33.5224C139.926 32.7431 139.952 32.02 139.977 31.3257C139.339 31.3019 138.78 31.2819 138.218 31.2619C138.193 32.0188 138.169 32.7193 138.144 33.4586C138.737 33.4786 139.298 33.4987 139.896 33.5224H139.897ZM128.898 35.5403C128.354 35.5315 127.876 35.5065 127.401 35.5303C127.285 35.5365 127.089 35.6954 127.084 35.7917C127.048 36.4497 127.053 37.109 127.045 37.7758C127.703 37.7845 128.272 37.792 128.863 37.8021C128.875 37.0452 128.885 36.3434 128.899 35.539L128.898 35.5403ZM132.581 35.6579C131.947 35.6429 131.373 35.6303 130.76 35.6178C130.745 36.3759 130.731 37.0915 130.716 37.8896C131.249 37.9009 131.744 37.9284 132.237 37.9084C132.341 37.9034 132.516 37.7257 132.523 37.6182C132.565 36.9789 132.566 36.3372 132.581 35.6566V35.6579ZM136.159 37.9935C136.179 37.3179 136.214 36.6987 136.203 36.0794C136.2 35.9543 136.035 35.7367 135.925 35.7254C135.435 35.6729 134.937 35.6791 134.427 35.6654C134.406 36.4735 134.387 37.1891 134.367 37.9409C134.962 37.9572 135.519 37.9734 136.158 37.9935H136.159ZM139.803 38.1098C139.828 37.4243 139.866 36.7838 139.862 36.1432C139.862 36.0407 139.687 35.858 139.578 35.848C139.087 35.7992 138.589 35.798 138.07 35.7805C138.044 36.5786 138.02 37.2942 137.995 38.0447C138.582 38.0648 139.136 38.0848 139.803 38.1098ZM98.6275 50.8911C99.2304 50.8648 99.7719 50.8411 100.343 50.8173C100.313 50.0592 100.285 49.3274 100.255 48.5955C99.6531 48.6206 99.0978 48.6443 98.5312 48.6694C98.5637 49.4237 98.5938 50.1217 98.6275 50.8898V50.8911ZM130.368 56.2341C130.981 56.2466 131.53 56.2591 132.064 56.2716C132.082 55.4972 132.098 54.7817 132.114 54.0561C131.526 54.0423 130.986 54.0298 130.411 54.0186C130.396 54.7679 130.382 55.4835 130.368 56.2341ZM139.408 47.3296C139.437 46.5352 139.464 45.8046 139.491 45.079C138.883 45.0565 138.334 45.0365 137.782 45.0177C137.756 45.7921 137.732 46.5239 137.707 47.2683C138.293 47.2883 138.825 47.3083 139.408 47.3296ZM136.259 33.3936C136.282 32.6367 136.303 31.9212 136.324 31.1994C135.705 31.1806 135.128 31.1631 134.537 31.1481C134.517 31.9012 134.498 32.6005 134.479 33.3423C135.07 33.3586 135.629 33.3748 136.259 33.3936ZM127.139 33.2009C127.772 33.2097 128.35 33.2172 128.923 33.2272C128.935 32.4541 128.946 31.7385 128.958 31.0005C128.342 30.9904 127.777 30.9829 127.167 30.9742C127.158 31.7173 127.148 32.4353 127.139 33.2009ZM114.197 41.4124C114.182 40.1764 114.167 38.9942 114.152 37.767C113.771 37.772 113.415 37.777 113.064 37.782C113.082 39.0293 113.099 40.2114 113.117 41.4274C113.478 41.4224 113.801 41.4174 114.197 41.4124ZM84.9977 44.8438C84.3936 44.8864 83.8333 44.9277 83.2805 44.9689C83.3356 45.7371 83.3881 46.4526 83.4419 47.1982C84.0247 47.1544 84.5687 47.1144 85.1515 47.0731C85.1003 46.3238 85.0502 45.6082 84.9977 44.8438ZM114.108 35.8242C114.093 34.5795 114.078 33.3961 114.063 32.1926C113.686 32.1976 113.344 32.2026 112.99 32.2076C113.008 33.4436 113.025 34.6258 113.043 35.8393C113.403 35.8343 113.729 35.8293 114.108 35.8242ZM111.013 43.6492C111.028 44.4273 111.04 45.1466 111.054 45.8859C111.65 45.8747 112.209 45.8646 112.784 45.8559C112.773 45.0865 112.761 44.3685 112.75 43.6191C112.165 43.6291 111.615 43.6379 111.013 43.6492ZM81.5746 47.3371C81.5171 46.579 81.462 45.8596 81.4058 45.1166C80.8129 45.1628 80.2526 45.2079 79.6898 45.2542C79.7511 46.0235 79.8074 46.7391 79.8662 47.4747C80.4528 47.4259 80.9993 47.3821 81.5746 47.3371ZM104.274 57.6202C104.301 58.4158 104.324 59.1476 104.347 59.8707C104.931 59.8519 105.461 59.8344 105.995 59.8181C105.973 59.0413 105.951 58.3069 105.929 57.5676C105.356 57.5851 104.836 57.6014 104.273 57.6202H104.274ZM114.626 43.5904C114.635 44.3847 114.644 45.1028 114.652 45.8446C115.241 45.8371 115.789 45.8321 116.341 45.8271C116.335 45.0515 116.328 44.3159 116.322 43.5728C115.738 43.5778 115.204 43.5841 114.626 43.5904ZM105.72 50.6359C105.698 49.854 105.676 49.126 105.654 48.3879C105.056 48.4054 104.517 48.4229 103.973 48.4417C103.998 49.2148 104.022 49.9454 104.045 50.6897C104.622 50.6709 105.15 50.6534 105.719 50.6359H105.72ZM79.3296 40.6656C79.3922 41.4487 79.4485 42.1605 79.506 42.8848C80.1013 42.836 80.6491 42.7922 81.2169 42.7472C81.1594 41.9903 81.1044 41.276 81.0481 40.5279C80.4603 40.5742 79.9112 40.618 79.3296 40.6656ZM82.9503 40.3691C83.0066 41.1484 83.0592 41.8627 83.1129 42.6071C83.7008 42.5633 84.2498 42.5233 84.8239 42.482C84.7713 41.7164 84.72 40.9883 84.6688 40.2427C84.081 40.284 83.5457 40.324 82.9503 40.3678V40.3691ZM109.493 59.7293C109.476 58.9662 109.461 58.2381 109.445 57.5076C108.852 57.5213 108.306 57.5351 107.776 57.5488C107.796 58.3157 107.814 59.0313 107.832 59.7693C108.403 59.7543 108.931 59.7406 109.493 59.7281V59.7293ZM80.0475 49.8115C80.1101 50.5909 80.1664 51.3077 80.2239 52.0295C80.8155 51.9807 81.3695 51.9369 81.8998 51.8944C81.841 51.1275 81.7872 50.412 81.7309 49.6764C81.1556 49.7214 80.6303 49.764 80.0475 49.8115ZM83.7695 51.7593C84.3786 51.7143 84.9189 51.6742 85.4629 51.6354C85.4104 50.8736 85.3604 50.1593 85.3091 49.4187C84.7251 49.46 84.1835 49.5 83.6082 49.5425C83.6632 50.2956 83.7145 51.0112 83.7683 51.7593H83.7695ZM111.112 48.2503C111.127 49.0396 111.139 49.7577 111.153 50.4808C111.742 50.4695 112.285 50.4595 112.853 50.4508C112.841 49.6952 112.83 48.9758 112.819 48.2203C112.239 48.229 111.695 48.239 111.112 48.2503ZM114.687 50.4245C115.293 50.417 115.832 50.412 116.372 50.407C116.366 49.6376 116.36 48.9083 116.353 48.194C115.757 48.199 115.218 48.2052 114.661 48.2115C114.67 48.9671 114.677 49.6689 114.687 50.4245ZM82.2687 56.5143C82.2099 55.7437 82.1549 55.0256 82.0986 54.2863C81.5133 54.3326 80.9618 54.3763 80.4215 54.4214C80.4828 55.1932 80.5403 55.9113 80.5991 56.6494C81.1619 56.6031 81.6822 56.5618 82.27 56.5155L82.2687 56.5143ZM85.7894 56.2416C85.7356 55.471 85.6868 54.7554 85.6355 54.0173C85.0502 54.0586 84.4999 54.0986 83.9421 54.1412C83.9972 54.9043 84.0497 55.6186 84.1035 56.3642C84.67 56.3216 85.2028 56.2828 85.7894 56.2416ZM105.855 55.2358C105.833 54.4477 105.811 53.7183 105.79 52.989C105.2 53.0065 104.663 53.024 104.123 53.0415C104.148 53.8159 104.172 54.5465 104.196 55.2883C104.765 55.2696 105.285 55.2533 105.855 55.2358ZM109.382 55.1432C109.365 54.3563 109.348 53.6258 109.332 52.8927C108.743 52.9064 108.208 52.919 107.664 52.934C107.684 53.7058 107.702 54.4376 107.721 55.1845C108.289 55.1695 108.809 55.157 109.382 55.1432ZM80.7967 58.9875C80.8555 59.7281 80.9143 60.4724 80.9743 61.2142C81.5471 61.1667 82.0774 61.1242 82.6127 61.0829C82.5551 60.3198 82.5001 59.6017 82.4426 58.8549C81.8873 58.8987 81.3695 58.9399 80.7967 58.9875ZM86.1095 60.8389C86.0558 60.0596 86.0057 59.344 85.9557 58.6047C85.3779 58.646 84.8326 58.686 84.2973 58.726C84.3536 59.4979 84.4061 60.226 84.4587 60.959C85.0265 60.9165 85.538 60.879 86.1095 60.8389ZM107.537 48.3253C107.557 49.1122 107.576 49.8315 107.595 50.5646C108.175 50.5496 108.715 50.5358 109.273 50.5233C109.256 49.7577 109.239 49.0284 109.223 48.2841C108.639 48.2978 108.114 48.3103 107.539 48.3253H107.537ZM151.316 43.5916C151.278 44.2171 151.246 44.7675 151.213 45.3192C151.831 45.3567 152.396 45.393 152.977 45.4306C153.014 44.8351 153.049 44.2834 153.086 43.7029C152.478 43.6629 151.91 43.6279 151.317 43.5916H151.316ZM152.298 56.2353C151.692 56.1965 151.125 56.1603 150.564 56.1252C150.528 56.7332 150.495 57.2861 150.462 57.8391C151.062 57.8754 151.616 57.9104 152.189 57.9479C152.226 57.3562 152.261 56.802 152.296 56.2341L152.298 56.2353ZM155.9 56.4742C155.292 56.4305 154.738 56.3917 154.174 56.3529C154.134 56.9509 154.097 57.5051 154.059 58.0705C154.649 58.1105 155.199 58.1506 155.78 58.1919C155.821 57.6114 155.858 57.0722 155.9 56.4742ZM157.759 56.5993C157.716 57.1986 157.673 57.7665 157.632 58.3295C158.232 58.3745 158.784 58.4183 159.346 58.4633C159.393 57.8691 159.435 57.3162 159.48 56.7332C158.891 56.6857 158.338 56.6431 157.761 56.5993H157.759ZM151.408 41.7164C152.035 41.7552 152.605 41.7902 153.201 41.8302C153.238 41.241 153.272 40.6906 153.308 40.1176C152.692 40.0776 152.118 40.0413 151.51 40.0038C151.476 40.5805 151.443 41.1172 151.408 41.7164ZM158.547 45.8309C159.155 45.8772 159.718 45.9209 160.296 45.9672C160.342 45.3668 160.386 44.8026 160.428 44.2509C159.809 44.2021 159.245 44.1571 158.675 44.1145C158.631 44.71 158.59 45.2604 158.549 45.8321L158.547 45.8309ZM156.65 45.6908C156.691 45.0965 156.73 44.5424 156.771 43.9632C156.166 43.9194 155.599 43.8793 155.004 43.8381C154.965 44.4273 154.928 44.9802 154.889 45.5657C155.474 45.6057 156.023 45.6445 156.65 45.6895V45.6908ZM158.417 47.6573C158.371 48.2753 158.331 48.8257 158.29 49.3774C158.901 49.425 159.464 49.4675 160.027 49.5125C160.073 48.9196 160.116 48.3704 160.159 47.7937C159.565 47.7461 159.018 47.7036 158.416 47.6573H158.417ZM156.899 42.0854C156.94 41.5025 156.978 40.9533 157.019 40.3691C156.407 40.3253 155.838 40.284 155.245 40.244C155.207 40.8319 155.169 41.3824 155.13 41.9603C155.735 42.0016 156.301 42.0416 156.899 42.0854ZM156.525 47.5422C155.887 47.4959 155.328 47.4571 154.779 47.4184C154.739 48.0201 154.703 48.5705 154.666 49.1072C155.274 49.1485 155.832 49.1885 156.406 49.2298C156.447 48.6468 156.485 48.1127 156.525 47.5422ZM150.984 48.8595C151.611 48.8983 152.19 48.9346 152.752 48.9708C152.789 48.3779 152.823 47.84 152.858 47.2758C152.25 47.2357 151.685 47.2007 151.085 47.1632C151.051 47.7386 151.018 48.2765 150.983 48.8583L150.984 48.8595ZM160.58 42.3794C160.627 41.7652 160.67 41.2147 160.712 40.6581C160.093 40.6093 159.523 40.5642 158.945 40.5204C158.901 41.1197 158.86 41.6701 158.817 42.2418C159.421 42.2881 159.978 42.3319 160.578 42.3794H160.58ZM150.787 52.5311C150.749 53.1516 150.717 53.7021 150.684 54.2462C151.293 54.2838 151.849 54.3188 152.404 54.3551C152.441 53.7559 152.476 53.2042 152.512 52.64C151.916 52.6012 151.371 52.5662 150.786 52.5311H150.787ZM154.28 54.4802C154.894 54.5227 155.449 54.5615 156.003 54.6015C156.045 54.0048 156.083 53.4569 156.121 52.924C155.507 52.8802 154.952 52.8401 154.391 52.8014C154.353 53.3818 154.317 53.9022 154.28 54.4789V54.4802ZM157.974 53.0278C157.936 53.5469 157.881 54.0048 157.884 54.4627C157.884 54.5778 158.062 54.7754 158.178 54.7942C158.649 54.8655 159.129 54.883 159.614 54.9218C159.663 54.29 159.705 53.7408 159.749 53.1666C159.165 53.1204 158.624 53.0778 157.974 53.0278ZM150.235 61.4006C150.848 61.4382 151.408 61.4732 151.955 61.5095C151.992 60.904 152.028 60.3548 152.061 59.8169C151.463 59.7781 150.913 59.7431 150.335 59.708C150.302 60.281 150.269 60.8139 150.234 61.4019L150.235 61.4006ZM153.934 59.9395C153.895 60.5262 153.857 61.0804 153.82 61.6383C154.406 61.6783 154.952 61.7171 155.523 61.7584C155.564 61.1717 155.602 60.635 155.642 60.0596C155.072 60.0183 154.536 59.9808 153.932 59.9395H153.934Z" fill="#206141"/>
<path d="M116.425 75.4355C152 75.4355 180.839 72.5124 180.839 68.9066C180.839 65.3008 152 62.3777 116.425 62.3777C80.8506 62.3777 52.0117 65.3008 52.0117 68.9066C52.0117 72.5124 80.8506 75.4355 116.425 75.4355Z" fill="#2A7D53"/>
<path d="M116.067 72.592C148.391 72.592 174.594 70.6821 174.594 68.3262C174.594 65.9702 148.391 64.0603 116.067 64.0603C83.7442 64.0603 57.541 65.9702 57.541 68.3262C57.541 70.6821 83.7442 72.592 116.067 72.592Z" fill="#206141"/>
<path d="M128.703 54.3126C128.614 54.5728 128.549 54.848 128.516 55.1345C128.301 56.9847 129.402 58.6848 131.07 59.2615C131.32 59.3503 131.584 59.4116 131.857 59.4454C133.038 59.588 134.156 59.1677 134.953 58.3933C135.513 59.1802 136.292 59.8069 137.213 60.1685L137.395 67.802H140.356L140.259 60.3624C141.827 59.9633 143.131 58.8136 143.729 57.2687C144.203 57.5802 144.753 57.7916 145.352 57.8629C145.46 57.8754 145.566 57.8842 145.671 57.8879C147.636 57.9592 149.359 56.4881 149.596 54.469C149.742 53.2117 149.281 52.0245 148.445 51.2089C148.91 50.7473 149.231 50.1281 149.312 49.4212C149.506 47.7749 148.348 46.2838 146.729 46.0886C146.504 46.0611 146.284 46.0624 146.068 46.0861C146.071 46.0598 146.078 46.0361 146.08 46.0111C146.274 44.3648 145.116 42.8736 143.497 42.6784C143.465 42.6734 143.432 42.6709 143.4 42.6684C142.987 42.6334 142.586 42.6884 142.214 42.8135C141.93 41.6351 140.955 40.7006 139.699 40.548C138.506 40.4041 137.395 41.0059 136.818 41.9904C136.39 41.6802 135.883 41.4725 135.326 41.4049C134.864 41.3499 134.415 41.3949 133.997 41.5263C132.897 41.8703 132.025 42.801 131.781 43.9982C131.777 43.9982 131.772 43.997 131.769 43.9957C129.995 43.7818 128.388 45.0678 128.178 46.868C128.102 47.521 128.221 48.1502 128.487 48.7007C127.72 49.2148 127.172 50.053 127.056 51.0525C126.896 52.4186 127.588 53.6871 128.703 54.3138V54.3126Z" fill="#27734C"/>
<path d="M81.7541 54.0387C81.6653 54.2989 81.6002 54.5741 81.5665 54.8606C81.3513 56.7108 82.4532 58.4109 84.1203 58.9876C84.3705 59.0764 84.6344 59.1377 84.9083 59.1715C86.0889 59.3141 87.207 58.8937 88.0037 58.1194C88.564 58.9063 89.3431 59.533 90.2636 59.8945L90.4462 67.528H93.4066L93.3103 60.0884C94.8774 59.6894 96.1818 58.5397 96.7796 56.9947C97.2536 57.3062 97.8039 57.5177 98.403 57.589C98.5106 57.6015 98.6169 57.6102 98.7219 57.614C100.687 57.6853 102.41 56.2141 102.647 54.195C102.793 52.9378 102.331 51.7506 101.496 50.935C101.961 50.4734 102.281 49.8541 102.363 49.1473C102.556 47.501 101.398 46.0099 99.78 45.8147C99.5549 45.7872 99.3348 45.7884 99.1184 45.8122C99.1222 45.7859 99.1284 45.7622 99.1309 45.7371C99.3248 44.0908 98.1666 42.5997 96.5483 42.4045C96.5157 42.3995 96.4832 42.397 96.4507 42.3945C96.038 42.3595 95.6365 42.4145 95.2651 42.5396C94.9812 41.3612 94.0056 40.4267 92.75 40.2741C91.5568 40.1302 90.4462 40.7319 89.8684 41.7165C89.4407 41.4062 88.9342 41.1986 88.3764 41.131C87.9149 41.076 87.4659 41.121 87.0482 41.2524C85.9476 41.5964 85.0758 42.5271 84.832 43.7243C84.8282 43.7243 84.8232 43.7231 84.8195 43.7218C83.046 43.5079 81.4389 44.7939 81.2288 46.5941C81.1525 47.2471 81.2713 47.8763 81.5377 48.4268C80.771 48.9409 80.2232 49.7791 80.1069 50.7786C79.9468 52.1447 80.6385 53.4132 81.7541 54.0399V54.0387Z" fill="#27734C"/>
<path d="M65.6708 43.1701C65.5408 43.5492 65.447 43.9457 65.3994 44.3598C65.0392 47.4397 67.2029 50.2319 70.2345 50.5972C71.9417 50.8036 73.5601 50.1957 74.712 49.0748C75.5236 50.2144 76.6505 51.1189 77.9812 51.643L78.3677 67.7407H82.5962L82.4686 57.9455L82.3898 51.9233C84.6573 51.3466 86.5458 49.6828 87.41 47.4472C88.0954 47.8976 88.8908 48.2016 89.7575 48.3079C91.5035 48.5181 93.1581 47.8776 94.3137 46.7067C95.1642 45.846 95.7445 44.6988 95.8971 43.3953C96.0197 42.357 95.8533 41.3512 95.4644 40.458C95.1717 39.7887 94.754 39.1832 94.2362 38.6791C94.9078 38.0111 95.3718 37.1154 95.4906 36.0921C95.7683 33.7114 94.0961 31.5547 91.7536 31.2708C91.4284 31.232 91.1095 31.2345 90.7969 31.2683C90.8031 31.232 90.8106 31.1957 90.8144 31.1582C91.0933 28.7775 89.4199 26.6209 87.0774 26.3369C86.4308 26.2581 85.8017 26.3369 85.2226 26.5345C84.8111 24.8282 83.4004 23.4746 81.5819 23.2557C79.8547 23.0468 78.2501 23.9162 77.4109 25.3411C76.7931 24.8932 76.0602 24.593 75.2535 24.4942C72.8247 24.2014 70.6123 25.8578 70.1257 28.2471C70.1195 28.2459 70.112 28.2446 70.1057 28.2446C67.6894 27.9532 65.4845 29.5882 64.9842 31.9576C64.9542 32.1014 64.9304 32.2503 64.9117 32.4004C64.8004 33.3436 64.973 34.2544 65.3582 35.0487C64.2488 35.7931 63.4559 37.0065 63.2871 38.4514C63.0557 40.428 64.055 42.2644 65.6721 43.1701H65.6708Z" fill="#2A7D53"/>
<path d="M141.394 45.502C141.283 45.8247 141.203 46.1662 141.162 46.519C140.856 49.1486 142.704 51.5342 145.292 51.8482C146.751 52.0234 148.133 51.5055 149.118 50.5472C149.811 51.5205 150.774 52.2923 151.912 52.7414L152.224 65.8405L152.259 69.8386H155.564C155.672 69.6335 155.783 69.5159 155.893 69.5684L155.83 64.8159L155.677 52.9791C157.616 52.4862 159.228 51.0664 159.966 49.1549C160.553 49.5402 161.233 49.7991 161.973 49.8892C163.238 50.043 164.446 49.6715 165.384 48.9459C166.369 48.1878 167.059 47.0382 167.219 45.6934C167.399 44.1397 166.828 42.671 165.797 41.6652C166.372 41.0948 166.767 40.3279 166.868 39.4547C167.106 37.4219 165.677 35.5779 163.676 35.3365C163.399 35.3027 163.125 35.304 162.859 35.3327C162.863 35.3002 162.87 35.2714 162.875 35.2389C163.113 33.206 161.683 31.3621 159.682 31.1207C159.131 31.0531 158.593 31.1182 158.098 31.2883C157.746 29.8296 156.54 28.675 154.987 28.4873C153.513 28.3097 152.142 29.0515 151.425 30.2687C150.897 29.8872 150.271 29.6307 149.582 29.5469C149.258 29.5069 148.94 29.5094 148.629 29.5494C146.952 29.7533 145.552 31.0281 145.202 32.7519C145.196 32.7519 145.191 32.7494 145.184 32.7494C142.994 32.4842 141.007 34.0742 140.746 36.301C140.652 37.1066 140.801 37.8847 141.128 38.564C140.18 39.1983 139.504 40.2353 139.359 41.4713C139.16 43.1614 140.014 44.7276 141.395 45.5007L141.394 45.502Z" fill="#2A7D53"/>
<path d="M104.642 18.3994L103.499 17.5112L101.605 18.5858L103.244 18.0829L104.678 18.9987L106.752 18.2556L107.38 18.9987L107.037 17.7589L104.642 18.3994Z" fill="#206141"/>
<path d="M104.894 18.7785L105.238 18.9986L104.894 19.1275L104.678 18.9986L104.37 19.1275L104.027 18.9986L104.633 18.6309L104.894 18.7785Z" fill="#206141"/>
<path d="M99.6284 24.2427L98.4853 23.3545L96.5918 24.4291L98.2302 23.9262L99.6647 24.8419L101.738 24.0988L102.366 24.8419L102.023 23.6022L99.6284 24.2427Z" fill="#206141"/>
<path d="M99.8804 24.6217L100.224 24.8419L99.8804 24.9708L99.664 24.8419L99.3564 24.9708L99.0137 24.8419L99.619 24.4741L99.8804 24.6217Z" fill="#206141"/>
<path d="M94.1968 20.0144L93.0537 19.1274L91.1602 20.2008L92.7985 19.6979L94.2331 20.6149L96.3067 19.8705L96.9345 20.6149L96.5918 19.3751L94.1968 20.0144Z" fill="#206141"/>
<path d="M94.4487 20.3947L94.7927 20.6149L94.4487 20.7425L94.2324 20.6149L93.9247 20.7425L93.582 20.6149L94.1874 20.2471L94.4487 20.3947Z" fill="#206141"/>
<path d="M106.765 21.6946L105.622 20.8076L103.729 21.881L105.367 21.3781L106.801 22.295L108.875 21.5507L109.504 22.295L109.16 21.0553L106.765 21.6946Z" fill="#206141"/>
<path d="M107.018 22.0749L107.361 22.295L107.018 22.4226L106.801 22.295L106.493 22.4226L106.15 22.295L106.756 21.9272L107.018 22.0749Z" fill="#206141"/>
<path d="M107.529 25.864L106.386 24.9758L104.492 26.0504L106.131 25.5475L107.565 26.4633L109.639 25.7202L110.267 26.4633L109.924 25.2235L107.529 25.864Z" fill="#206141"/>
<path d="M107.781 26.243L108.125 26.4632L107.781 26.5921L107.564 26.4632L107.257 26.5921L106.914 26.4632L107.519 26.0967L107.781 26.243Z" fill="#206141"/>
<path d="M72.7959 8.80065C69.753 12.6912 67.8107 16.2703 68.4586 16.7932C69.1064 17.3161 72.0981 14.5852 75.1409 10.6946C78.1838 6.80408 80.1261 3.22501 79.4783 2.7021C78.8304 2.17919 75.8388 4.91008 72.7959 8.80065Z" fill="white"/>
<path d="M61.0977 12.9264C56.3727 11.6379 52.3693 11.2514 52.1554 12.0633C51.9415 12.8751 55.5973 14.5777 60.3223 15.865C65.0473 17.1535 69.0508 17.5388 69.2646 16.7282C69.4785 15.9163 65.8228 14.2137 61.0977 12.9264Z" fill="white"/>
<path d="M75.5384 20.8676C79.1841 24.1814 81.6917 27.3764 81.1402 28.0019C80.5886 28.6287 77.1868 26.4495 73.5411 23.1356C69.8954 19.8218 67.3878 16.6267 67.9393 16.0012C68.4909 15.3745 71.8927 17.5537 75.5384 20.8676Z" fill="white"/>
<path d="M69.7639 15.6372H67.8691V69.8399H69.7639V15.6372Z" fill="white"/>
<path d="M68.5872 17.316C69.043 17.316 69.4126 16.9402 69.4126 16.4766C69.4126 16.013 69.043 15.6372 68.5872 15.6372C68.1313 15.6372 67.7617 16.013 67.7617 16.4766C67.7617 16.9402 68.1313 17.316 68.5872 17.316Z" fill="#E6E6E6"/>
<path d="M69.7623 19.2865C69.7623 19.2865 68.5579 17.9192 68.334 17.2749C68.334 17.2749 69.372 19.8332 69.7623 20.3073V19.2865Z" fill="#E6E6E6"/>
<path d="M158.239 8.80065C161.281 12.6912 163.224 16.2703 162.576 16.7932C161.928 17.3161 158.936 14.5852 155.894 10.6946C152.851 6.80408 150.908 3.22501 151.556 2.7021C152.204 2.17919 155.196 4.91008 158.239 8.80065Z" fill="white"/>
<path d="M169.936 12.9264C174.661 11.6379 178.664 11.2514 178.878 12.0633C179.092 12.8751 175.436 14.5777 170.711 15.865C165.986 17.1535 161.983 17.5388 161.769 16.7282C161.555 15.9163 165.211 14.2137 169.936 12.9264Z" fill="white"/>
<path d="M155.496 20.8676C151.85 24.1814 149.343 27.3764 149.894 28.0019C150.446 28.6287 153.848 26.4495 157.494 23.1356C161.139 19.8218 163.647 16.6267 163.095 16.0012C162.544 15.3745 159.142 17.5537 155.496 20.8676Z" fill="white"/>
<path d="M161.271 69.8398H163.166V15.6372H161.271V69.8398Z" fill="white"/>
<path d="M162.448 17.316C162.904 17.316 163.274 16.9402 163.274 16.4766C163.274 16.013 162.904 15.6372 162.448 15.6372C161.993 15.6372 161.623 16.013 161.623 16.4766C161.623 16.9402 161.993 17.316 162.448 17.316Z" fill="#E6E6E6"/>
<path d="M161.273 19.2865C161.273 19.2865 162.478 17.9192 162.702 17.2749C162.702 17.2749 161.664 19.8332 161.273 20.3073V19.2865Z" fill="#E6E6E6"/>
<path d="M50.7964 51.6694C51.1154 54.4065 53.5604 56.3631 56.2569 56.0378C57.0273 55.944 57.7352 55.6738 58.3455 55.2722C59.1134 57.2613 60.7931 58.7399 62.8091 59.2528L62.6766 69.5097H66.4786L66.5987 64.4894L66.73 59.0039C67.9144 58.5373 68.9162 57.7329 69.6378 56.7196C70.6621 57.7166 72.1017 58.2583 73.62 58.0744C76.3152 57.7504 78.2412 55.2659 77.9198 52.5275C77.8773 52.1597 77.7935 51.8057 77.6784 51.4692C77.8085 51.3966 77.9335 51.3166 78.0549 51.2303C78.8916 50.636 79.4931 49.7403 79.7233 48.7183C79.8283 48.2567 79.8571 47.77 79.7995 47.2721C79.6495 45.9874 78.9441 44.9078 77.9573 44.246C78.3 43.5392 78.4538 42.7298 78.355 41.8904C78.0836 39.5736 76.0163 37.9185 73.735 38.1938C73.73 38.1938 73.7225 38.195 73.7175 38.1963C73.2848 36.0708 71.3175 34.5984 69.1576 34.8586C68.4409 34.9462 67.7881 35.2127 67.239 35.6117C66.4924 34.3445 65.0654 33.5714 63.5295 33.7565C61.9124 33.9517 60.658 35.1551 60.2915 36.6726C59.7763 36.4962 59.216 36.4274 58.6419 36.4962C56.9948 36.6951 55.7191 37.936 55.3814 39.4948C55.2901 39.9064 55.2663 40.3404 55.3189 40.7833C55.3226 40.8171 55.3301 40.8483 55.3351 40.8809C55.0575 40.8508 54.7723 40.8496 54.4834 40.8834C52.3998 41.1361 50.9127 43.0551 51.1591 45.1717C51.2654 46.0812 51.6769 46.8781 52.2747 47.4723C51.2017 48.5194 50.6076 50.0481 50.7964 51.6669V51.6694Z" fill="#339966"/>
<path d="M74.1097 68.948L73.3105 67.4668L70.9017 66.2646L70.0138 66.2446L68.5054 66.4623L67.8213 66.7725L67.0259 67.2079C67.0259 67.2079 66.8871 68.4476 66.1979 68.2787C65.5088 68.1098 64.0681 68.9468 64.0681 68.9468H61.2816L60.8613 69.3909L66.6845 70.4054H69.5523L72.7115 69.4922H76.3071L74.1072 68.9455L74.1097 68.948Z" fill="#339966"/>
<path d="M168.796 68.6265L167.997 67.1453L165.588 65.9431L164.7 65.9231L163.192 66.1408L162.508 66.451L161.713 66.8864C161.713 66.8864 161.575 68.1261 160.885 67.9572C160.196 67.7883 158.756 68.6252 158.756 68.6252H155.969L155.549 69.0693L161.372 70.0839H164.24L167.399 69.1707H170.995L168.795 68.624L168.796 68.6265Z" fill="#339966"/>
<path d="M154.363 48.9696C154.514 50.2456 155.168 51.3377 156.104 52.057C156.996 52.7463 158.141 53.0991 159.342 52.9527C160.045 52.8677 160.69 52.6212 161.247 52.2559C161.947 54.0699 163.478 55.4184 165.319 55.8863L165.174 67.1239L165.155 68.5825H168.586L168.598 68.0946L168.894 55.6586C169.976 55.232 170.889 54.4989 171.547 53.5757C172.481 54.4852 173.793 54.9768 175.179 54.8104C177.637 54.5127 179.39 52.2484 179.1 49.7515C179.061 49.4162 178.985 49.0922 178.88 48.7857C180.191 48.0514 181.001 46.564 180.813 44.9602C180.676 43.788 180.034 42.8035 179.134 42.2005C179.445 41.5563 179.586 40.8182 179.498 40.0526C179.25 37.9384 177.363 36.4297 175.284 36.6812C175.279 36.6812 175.273 36.6837 175.268 36.6837C174.936 35.0474 173.607 33.8364 172.015 33.6438C171.72 33.6063 171.418 33.6038 171.111 33.6413C170.457 33.7213 169.861 33.9653 169.36 34.3268C168.679 33.1709 167.377 32.4666 165.978 32.6355C164.503 32.8131 163.359 33.9102 163.025 35.2951C162.555 35.1337 162.044 35.0712 161.52 35.1362C159.621 35.3651 158.264 37.1153 158.489 39.0455C158.493 39.0756 158.5 39.1043 158.504 39.1344C158.25 39.1081 157.991 39.1056 157.728 39.1381C155.829 39.367 154.472 41.1172 154.697 43.0474C154.793 43.8768 155.168 44.6049 155.715 45.1466C154.736 46.1011 154.194 47.4947 154.365 48.9708L154.363 48.9696Z" fill="#339966"/>
<path d="M152.438 58.5623L152.378 58.6648V58.6661V58.6673L151.097 60.9191L148.844 64.8835H145.214V65.4489H144.598V64.8835H138.803L139.566 63.5424L140.691 61.5596L142.395 58.5623H152.438Z" fill="#E6E6E6"/>
<path d="M142.395 58.562L141.938 59.3652L141.244 60.5874L140.691 61.5594L140.539 61.8284L139.566 63.541L139.254 64.0889L138.803 64.8833H144.598V69.0465H141.593L141.608 69.617L143.833 69.6983L144.137 69.7096L148.884 69.8847V69.0465H145.215V64.8833H148.846L149.365 63.9688L149.87 63.0793L151.098 60.9176L151.886 59.5328L152.379 58.6659V58.6634L152.438 58.5608H142.395V58.562ZM148.42 59.1262L147.35 61.0102L147.068 61.5044H144.42L144.607 61.1741L145.771 59.1262H148.42ZM141.861 60.4773L142.265 59.7667L142.629 59.125H145.277L144.091 61.2129L143.927 61.5031H141.277L141.284 61.4881L141.859 60.4773H141.861ZM142.291 64.3829H139.643L140.866 62.2312L140.995 62.0048H143.644L142.427 64.1439L142.292 64.3816L142.291 64.3829ZM145.433 64.3829H142.782L144.116 62.0385L144.134 62.006H146.785L145.678 63.9538L145.433 64.3841V64.3829ZM149.342 63.0318L148.575 64.3816H145.927L145.969 64.3078L147.279 62.0048H149.927L149.343 63.0318H149.342ZM150.542 60.9227L150.211 61.5031H147.564L147.858 60.9877L148.916 59.125H151.565L150.543 60.9227H150.542Z" fill="#F2F2F2"/>
<path d="M157.928 58.4573L157.868 58.5624V58.5636V58.5649L156.564 60.8579L154.27 64.8961H150.572V65.4715H149.944V64.8961H144.041L144.819 63.53L145.965 61.5109L147.7 58.4573H157.928Z" fill="#E6E6E6"/>
<path d="M147.701 58.4571L147.236 59.2752L146.529 60.5212L145.967 61.5107L145.811 61.7847L144.821 63.5298L144.503 64.0877L144.043 64.8959H149.946V69.1355H146.884L146.9 69.7159L149.166 69.7985L149.476 69.8097L154.311 69.9874V69.1342H150.573V64.8946H154.271L154.8 63.9639L155.314 63.0582L156.565 60.8565L157.366 59.4466L157.868 58.5634V58.5609L157.928 58.4558H147.699L147.701 58.4571ZM153.838 59.0313L152.748 60.9503L152.461 61.4544H149.764L149.954 61.1179L151.139 59.0325H153.837L153.838 59.0313ZM147.157 60.4086L147.569 59.6843L147.94 59.0313H150.638L149.428 61.1579L149.262 61.4532H146.563L146.571 61.4382L147.157 60.4086ZM147.595 64.3855H144.897L146.143 62.1938L146.274 61.9636H148.972L147.732 64.1428L147.595 64.3855ZM150.795 64.3855H148.096L149.455 61.9973L149.473 61.9636H152.172L151.044 63.9476L150.795 64.3855ZM154.776 63.0106L153.995 64.3855H151.297L151.339 64.3104L152.673 61.9636H155.37L154.775 63.0094L154.776 63.0106ZM155.998 60.8627L155.662 61.4544H152.964L153.263 60.9303L154.34 59.0325H157.037L155.997 60.864L155.998 60.8627Z" fill="white"/>
<g style="mix-blend-mode:multiply">
<path d="M147.702 58.457L142.633 64.8833L144.042 64.8958L147.702 58.457Z" fill="#E6E6E6"/>
</g>
<path d="M77.9395 58.562L77.9982 58.6646L77.9995 58.6658V58.6671L79.2789 60.9189L81.5326 64.8832H85.1621V65.4487H85.7787V64.8832H91.5743L90.8114 63.5422L89.6858 61.5594L87.9824 58.562H77.9395Z" fill="#E6E6E6"/>
<path d="M77.9395 58.562L77.9982 58.6646V58.6671L78.491 59.5328L79.2789 60.9176L80.5071 63.0793L81.0124 63.9675L81.5314 64.8832H85.1621V69.0465H81.4926V69.8847L86.2402 69.7095L86.5441 69.6983L88.769 69.617L88.784 69.0465H85.7787V64.8832H91.5743L91.1228 64.0901L90.8114 63.5409L89.8384 61.8283L89.6858 61.5594L89.133 60.5874L88.4389 59.3651L87.9824 58.562H77.9395ZM84.6055 59.1262L85.7699 61.1741L85.9575 61.5043H83.3086L83.0272 61.0102L81.9566 59.1262H84.6055ZM88.5164 60.4785L89.0917 61.4893L89.0992 61.5043H86.449L86.2852 61.2141L85.0983 59.1262H87.7472L88.1112 59.768L88.5151 60.4785H88.5164ZM87.9511 64.1439L86.7342 62.0047H89.3831L89.5119 62.2311L90.7351 64.3828H88.0874L87.9523 64.1452L87.9511 64.1439ZM84.6993 63.9525L83.5925 62.0047H86.2427L86.2614 62.0372L87.5946 64.3816H84.9445L84.6993 63.9513V63.9525ZM80.4508 62.0047H83.0997L84.4092 64.3078L84.4517 64.3816H81.8028L81.0361 63.0318L80.4521 62.0035L80.4508 62.0047ZM78.8137 59.1262H81.4626L82.5207 60.9889L82.8146 61.5043H80.1669L79.8367 60.9239L78.8149 59.1262H78.8137Z" fill="#F2F2F2"/>
<path d="M72.4492 58.457L72.5093 58.5621V58.5634V58.5646L73.8137 60.8577L76.1074 64.8958H79.8057V65.4713H80.4335V64.8958H86.3367L85.5588 63.5298L84.4132 61.5107L82.6772 58.457H72.4492Z" fill="#E6E6E6"/>
<path d="M72.4485 58.457L72.5085 58.5621V58.5646L73.0101 59.4466L73.8117 60.8577L75.0624 63.0594L75.5764 63.9639L76.1055 64.8958H79.8037V69.1354H76.0655V69.9886L80.9006 69.811L81.2107 69.7997L83.4769 69.7171L83.492 69.1367H80.4303V64.8971H86.3335L85.8732 64.089L85.5556 63.5298L84.565 61.7847L84.4099 61.5107L83.8471 60.5212L83.1405 59.2752L82.6753 58.457H72.4473H72.4485ZM79.2372 59.0312L80.4228 61.1166L80.6129 61.4531H77.9152L77.6288 60.949L76.5382 59.03H79.2359L79.2372 59.0312ZM83.2206 60.4086L83.8071 61.4381L83.8146 61.4531H81.1157L80.9493 61.1579L79.7399 59.0312H82.4376L82.8091 59.6842L83.2206 60.4086ZM82.6453 64.1428L81.4058 61.9635H84.1035L84.2349 62.1937L85.4805 64.3854H82.7828L82.6453 64.1428ZM79.3322 63.9476L78.2041 61.9635H80.9031L80.9218 61.9973L82.2801 64.3854H79.5811L79.3322 63.9476ZM75.0049 61.9635H77.7026L79.0358 64.3104L79.0783 64.3854H76.3806L75.599 63.0106L75.0036 61.9635H75.0049ZM73.339 59.0312H76.0367L77.1135 60.929L77.4124 61.4531H74.7147L74.3783 60.8614L73.3377 59.03L73.339 59.0312Z" fill="white"/>
<g style="mix-blend-mode:multiply">
<path d="M82.6758 58.457L87.7448 64.8833L86.3353 64.8958L82.6758 58.457Z" fill="#E6E6E6"/>
</g>
<path d="M166.035 155.794C164.29 156.457 162.28 155.716 161.548 154.139L140.734 109.407C140 107.83 140.82 106.015 142.565 105.352C144.309 104.689 146.319 105.429 147.052 107.007L167.866 151.738C168.6 153.316 167.78 155.131 166.035 155.794Z" fill="white"/>
<path d="M63.6293 155.794C65.3739 156.457 67.3838 155.716 68.1167 154.139L88.9304 109.407C89.6645 107.83 88.8441 106.015 87.0994 105.352C85.3547 104.689 83.3449 105.429 82.612 107.007L61.7983 151.738C61.0641 153.316 61.8846 155.131 63.6293 155.794Z" fill="white"/>
<g style="mix-blend-mode:multiply">
<path d="M170.371 112.173L67.8683 119.77C67.8683 119.77 61.6825 113.146 60.7095 110.104C59.7377 107.062 170.371 112.173 170.371 112.173Z" fill="#E6E6E6"/>
</g>
<path d="M180.455 105.014H53.462C51.9804 105.014 50.7793 106.215 50.7793 107.697V109.49C50.7793 110.972 51.9804 112.173 53.462 112.173H180.455C181.937 112.173 183.138 110.972 183.138 109.49V107.697C183.138 106.215 181.937 105.014 180.455 105.014Z" fill="white"/>
<path d="M116.08 63.6787V66.9951H94.1753C93.5137 66.6698 93.6475 66.1682 93.9427 65.7529C93.9564 65.7341 93.9689 65.7153 93.9839 65.6966C93.9989 65.6766 94.0152 65.6565 94.0302 65.6365C94.0452 65.6178 94.0602 65.599 94.0765 65.5802C94.1278 65.5202 94.179 65.4639 94.2316 65.4114C94.4767 65.1599 94.8019 65.001 95.1508 64.961L96.6178 64.7934C96.9005 63.5411 98.2525 63.6825 98.2525 63.6825L116.08 63.6775V63.6787Z" fill="white"/>
<path d="M109.748 65.5815H104.939V65.6966H109.748V65.5815Z" fill="#C1272D"/>
<path d="M116.025 65.5815H110.973V65.6966H116.025V65.5815Z" fill="#C1272D"/>
<path d="M103.639 65.5816V65.6967H93.9824C93.9974 65.6766 94.0137 65.6566 94.0287 65.6366C94.0437 65.6179 94.0587 65.5991 94.075 65.5803H103.639V65.5816Z" fill="#C1272D"/>
<path d="M104.541 66.2595H104.042C103.813 66.2595 103.627 66.0731 103.627 65.8441V64.6907C103.627 64.4618 103.813 64.2754 104.042 64.2754H104.541C104.77 64.2754 104.956 64.4618 104.956 64.6907V65.8441C104.956 66.0731 104.77 66.2595 104.541 66.2595ZM104.042 64.3755C103.868 64.3755 103.727 64.5168 103.727 64.6907V65.8441C103.727 66.018 103.868 66.1594 104.042 66.1594H104.541C104.715 66.1594 104.856 66.018 104.856 65.8441V64.6907C104.856 64.5168 104.715 64.3755 104.541 64.3755H104.042Z" fill="#A0B1CB"/>
<path d="M110.613 66.2595H110.114C109.886 66.2595 109.699 66.0731 109.699 65.8441V64.6907C109.699 64.4618 109.886 64.2754 110.114 64.2754H110.613C110.842 64.2754 111.029 64.4618 111.029 64.6907V65.8441C111.029 66.0731 110.842 66.2595 110.613 66.2595ZM110.114 64.3755C109.941 64.3755 109.799 64.5168 109.799 64.6907V65.8441C109.799 66.018 109.941 66.1594 110.114 66.1594H110.613C110.787 66.1594 110.929 66.018 110.929 65.8441V64.6907C110.929 64.5168 110.787 64.3755 110.613 64.3755H110.114Z" fill="#A0B1CB"/>
<path d="M99.4128 64.1028H98.1121C97.7019 64.1028 97.3217 64.313 97.1028 64.6595L96.8965 64.986H99.4128V64.1016V64.1028Z" fill="#A0B1CB"/>
<path d="M101.7 64.1028H99.7598V64.9872H101.7V64.1028Z" fill="#A0B1CB"/>
<path d="M103.41 64.1028H101.969V64.9872H103.41V64.1028Z" fill="#A0B1CB"/>
<path d="M109.211 64.1028H107.393V64.9872H109.211V64.1028Z" fill="#A0B1CB"/>
<path d="M113.36 64.1028H111.58V64.9872H113.36V64.1028Z" fill="#A0B1CB"/>
<path d="M115.357 64.1028H113.629V64.9872H115.357V64.1028Z" fill="#A0B1CB"/>
<path d="M107.097 64.1028H105.291V64.9872H107.097V64.1028Z" fill="#A0B1CB"/>
<path d="M96.9217 67.4842C97.2042 67.4842 97.4332 67.2552 97.4332 66.9726C97.4332 66.69 97.2042 66.4609 96.9217 66.4609C96.6392 66.4609 96.4102 66.69 96.4102 66.9726C96.4102 67.2552 96.6392 67.4842 96.9217 67.4842Z" fill="white"/>
<path d="M96.9222 67.5982C96.577 67.5982 96.2969 67.3179 96.2969 66.9727C96.2969 66.6274 96.577 66.3472 96.9222 66.3472C97.2674 66.3472 97.5475 66.6274 97.5475 66.9727C97.5475 67.3179 97.2674 67.5982 96.9222 67.5982ZM96.9222 66.5736C96.7021 66.5736 96.5245 66.7525 96.5245 66.9714C96.5245 67.1903 96.7033 67.3692 96.9222 67.3692C97.1411 67.3692 97.3199 67.1903 97.3199 66.9714C97.3199 66.7525 97.1411 66.5736 96.9222 66.5736Z" fill="#3E5372"/>
<path d="M98.4803 67.4842C98.7628 67.4842 98.9918 67.2552 98.9918 66.9726C98.9918 66.69 98.7628 66.4609 98.4803 66.4609C98.1978 66.4609 97.9688 66.69 97.9688 66.9726C97.9688 67.2552 98.1978 67.4842 98.4803 67.4842Z" fill="white"/>
<path d="M98.4789 67.5982C98.1337 67.5982 97.8535 67.3179 97.8535 66.9727C97.8535 66.6274 98.1337 66.3472 98.4789 66.3472C98.824 66.3472 99.1042 66.6274 99.1042 66.9727C99.1042 67.3179 98.824 67.5982 98.4789 67.5982ZM98.4789 66.5736C98.2587 66.5736 98.0811 66.7525 98.0811 66.9714C98.0811 67.1903 98.26 67.3692 98.4789 67.3692C98.6977 67.3692 98.8766 67.1903 98.8766 66.9714C98.8766 66.7525 98.6977 66.5736 98.4789 66.5736Z" fill="#3E5372"/>
<path d="M98.0845 66.8589H97.3203V67.0866H98.0845V66.8589Z" fill="#3E5372"/>
<path d="M98.4792 67.1315C98.5669 67.1315 98.638 67.0603 98.638 66.9726C98.638 66.8848 98.5669 66.8137 98.4792 66.8137C98.3914 66.8137 98.3203 66.8848 98.3203 66.9726C98.3203 67.0603 98.3914 67.1315 98.4792 67.1315Z" fill="#5976A3"/>
<path d="M96.9225 67.1315C97.0102 67.1315 97.0813 67.0603 97.0813 66.9726C97.0813 66.8848 97.0102 66.8137 96.9225 66.8137C96.8348 66.8137 96.7637 66.8848 96.7637 66.9726C96.7637 67.0603 96.8348 67.1315 96.9225 67.1315Z" fill="#5976A3"/>
<path d="M101.189 67.4842C101.472 67.4842 101.701 67.2552 101.701 66.9726C101.701 66.69 101.472 66.4609 101.189 66.4609C100.907 66.4609 100.678 66.69 100.678 66.9726C100.678 67.2552 100.907 67.4842 101.189 67.4842Z" fill="white"/>
<path d="M101.19 67.5982C100.845 67.5982 100.564 67.3179 100.564 66.9727C100.564 66.6274 100.845 66.3472 101.19 66.3472C101.535 66.3472 101.815 66.6274 101.815 66.9727C101.815 67.3179 101.535 67.5982 101.19 67.5982ZM101.19 66.5736C100.97 66.5736 100.792 66.7525 100.792 66.9714C100.792 67.1903 100.971 67.3692 101.19 67.3692C101.409 67.3692 101.588 67.1903 101.588 66.9714C101.588 66.7525 101.409 66.5736 101.19 66.5736Z" fill="#3E5372"/>
<path d="M102.748 67.4842C103.03 67.4842 103.259 67.2552 103.259 66.9726C103.259 66.69 103.03 66.4609 102.748 66.4609C102.465 66.4609 102.236 66.69 102.236 66.9726C102.236 67.2552 102.465 67.4842 102.748 67.4842Z" fill="white"/>
<path d="M102.748 67.5982C102.403 67.5982 102.123 67.3179 102.123 66.9727C102.123 66.6274 102.403 66.3472 102.748 66.3472C103.094 66.3472 103.374 66.6274 103.374 66.9727C103.374 67.3179 103.094 67.5982 102.748 67.5982ZM102.748 66.5736C102.528 66.5736 102.351 66.7525 102.351 66.9714C102.351 67.1903 102.53 67.3692 102.748 67.3692C102.967 67.3692 103.146 67.1903 103.146 66.9714C103.146 66.7525 102.967 66.5736 102.748 66.5736Z" fill="#3E5372"/>
<path d="M102.354 66.8589H101.59V67.0866H102.354V66.8589Z" fill="#3E5372"/>
<path d="M102.749 67.1315C102.836 67.1315 102.908 67.0603 102.908 66.9726C102.908 66.8848 102.836 66.8137 102.749 66.8137C102.661 66.8137 102.59 66.8848 102.59 66.9726C102.59 67.0603 102.661 67.1315 102.749 67.1315Z" fill="#5976A3"/>
<path d="M101.19 67.1315C101.278 67.1315 101.349 67.0603 101.349 66.9726C101.349 66.8848 101.278 66.8137 101.19 66.8137C101.102 66.8137 101.031 66.8848 101.031 66.9726C101.031 67.0603 101.102 67.1315 101.19 67.1315Z" fill="#5976A3"/>
<path d="M106.318 67.4842C106.601 67.4842 106.83 67.2552 106.83 66.9726C106.83 66.69 106.601 66.4609 106.318 66.4609C106.036 66.4609 105.807 66.69 105.807 66.9726C105.807 67.2552 106.036 67.4842 106.318 67.4842Z" fill="white"/>
<path d="M106.319 67.5982C105.974 67.5982 105.693 67.3179 105.693 66.9727C105.693 66.6274 105.974 66.3472 106.319 66.3472C106.664 66.3472 106.944 66.6274 106.944 66.9727C106.944 67.3179 106.664 67.5982 106.319 67.5982ZM106.319 66.5736C106.099 66.5736 105.921 66.7525 105.921 66.9714C105.921 67.1903 106.1 67.3692 106.319 67.3692C106.538 67.3692 106.716 67.1903 106.716 66.9714C106.716 66.7525 106.538 66.5736 106.319 66.5736Z" fill="#3E5372"/>
<path d="M108.388 66.9726C108.388 67.2553 108.159 67.4842 107.877 67.4842C107.594 67.4842 107.365 67.2553 107.365 66.9726C107.365 66.6899 107.594 66.4609 107.877 66.4609C108.159 66.4609 108.388 66.6899 108.388 66.9726Z" fill="white"/>
<path d="M107.877 67.5982C107.532 67.5982 107.252 67.3179 107.252 66.9727C107.252 66.6274 107.532 66.3472 107.877 66.3472C108.222 66.3472 108.503 66.6274 108.503 66.9727C108.503 67.3179 108.222 67.5982 107.877 67.5982ZM107.877 66.5736C107.657 66.5736 107.48 66.7525 107.48 66.9714C107.48 67.1903 107.658 67.3692 107.877 67.3692C108.096 67.3692 108.275 67.1903 108.275 66.9714C108.275 66.7525 108.096 66.5736 107.877 66.5736Z" fill="#3E5372"/>
<path d="M107.483 66.8589H106.719V67.0866H107.483V66.8589Z" fill="#3E5372"/>
<path d="M108.034 66.9726C108.034 67.0602 107.963 67.1315 107.876 67.1315C107.788 67.1315 107.717 67.0602 107.717 66.9726C107.717 66.885 107.788 66.8137 107.876 66.8137C107.963 66.8137 108.034 66.885 108.034 66.9726Z" fill="#5976A3"/>
<path d="M106.478 66.9726C106.478 67.0602 106.407 67.1315 106.319 67.1315C106.231 67.1315 106.16 67.0602 106.16 66.9726C106.16 66.885 106.231 66.8137 106.319 66.8137C106.407 66.8137 106.478 66.885 106.478 66.9726Z" fill="#5976A3"/>
<path d="M112.719 67.4842C113.001 67.4842 113.23 67.2552 113.23 66.9726C113.23 66.69 113.001 66.4609 112.719 66.4609C112.436 66.4609 112.207 66.69 112.207 66.9726C112.207 67.2552 112.436 67.4842 112.719 67.4842Z" fill="white"/>
<path d="M112.719 67.5982C112.374 67.5982 112.094 67.3179 112.094 66.9727C112.094 66.6274 112.374 66.3472 112.719 66.3472C113.064 66.3472 113.344 66.6274 113.344 66.9727C113.344 67.3179 113.064 67.5982 112.719 67.5982ZM112.719 66.5736C112.499 66.5736 112.321 66.7525 112.321 66.9714C112.321 67.1903 112.5 67.3692 112.719 67.3692C112.938 67.3692 113.117 67.1903 113.117 66.9714C113.117 66.7525 112.938 66.5736 112.719 66.5736Z" fill="#3E5372"/>
<path d="M114.275 67.4842C114.558 67.4842 114.787 67.2552 114.787 66.9726C114.787 66.69 114.558 66.4609 114.275 66.4609C113.993 66.4609 113.764 66.69 113.764 66.9726C113.764 67.2552 113.993 67.4842 114.275 67.4842Z" fill="white"/>
<path d="M114.276 67.5982C113.931 67.5982 113.65 67.3179 113.65 66.9727C113.65 66.6274 113.931 66.3472 114.276 66.3472C114.621 66.3472 114.901 66.6274 114.901 66.9727C114.901 67.3179 114.621 67.5982 114.276 67.5982ZM114.276 66.5736C114.056 66.5736 113.878 66.7525 113.878 66.9714C113.878 67.1903 114.057 67.3692 114.276 67.3692C114.495 67.3692 114.673 67.1903 114.673 66.9714C114.673 66.7525 114.495 66.5736 114.276 66.5736Z" fill="#3E5372"/>
<path d="M113.881 66.8589H113.117V67.0866H113.881V66.8589Z" fill="#3E5372"/>
<path d="M114.276 67.1315C114.364 67.1315 114.435 67.0603 114.435 66.9726C114.435 66.8848 114.364 66.8137 114.276 66.8137C114.188 66.8137 114.117 66.8848 114.117 66.9726C114.117 67.0603 114.188 67.1315 114.276 67.1315Z" fill="#5976A3"/>
<path d="M112.719 67.1315C112.807 67.1315 112.878 67.0603 112.878 66.9726C112.878 66.8848 112.807 66.8137 112.719 66.8137C112.632 66.8137 112.561 66.8848 112.561 66.9726C112.561 67.0603 112.632 67.1315 112.719 67.1315Z" fill="#5976A3"/>
<path d="M116.057 63.6787V66.9951H137.961C138.623 66.6698 138.489 66.1682 138.194 65.7529C138.18 65.7341 138.167 65.7153 138.152 65.6966C138.137 65.6766 138.121 65.6565 138.106 65.6365C138.091 65.6178 138.076 65.599 138.06 65.5802C138.008 65.5202 137.957 65.4639 137.905 65.4114C137.66 65.1599 137.334 65.001 136.985 64.961L135.518 64.7934C135.236 63.5411 133.884 63.6825 133.884 63.6825L116.057 63.6775V63.6787Z" fill="white"/>
<path d="M127.196 65.5815H122.387V65.6966H127.196V65.5815Z" fill="#C1272D"/>
<path d="M121.164 65.5815H116.111V65.6966H121.164V65.5815Z" fill="#C1272D"/>
<path d="M128.496 65.5816V65.6967H138.153C138.138 65.6766 138.121 65.6566 138.106 65.6366C138.091 65.6179 138.076 65.5991 138.06 65.5803H128.496V65.5816Z" fill="#C1272D"/>
<path d="M127.178 65.8441V64.6907C127.178 64.4618 127.364 64.2754 127.593 64.2754H128.092C128.321 64.2754 128.507 64.4618 128.507 64.6907V65.8441C128.507 66.0731 128.321 66.2595 128.092 66.2595H127.593C127.364 66.2595 127.178 66.0731 127.178 65.8441ZM127.594 64.3755C127.42 64.3755 127.279 64.5168 127.279 64.6907V65.8441C127.279 66.018 127.42 66.1594 127.594 66.1594H128.093C128.267 66.1594 128.408 66.018 128.408 65.8441V64.6907C128.408 64.5168 128.267 64.3755 128.093 64.3755H127.594Z" fill="#A0B1CB"/>
<path d="M121.107 65.8441V64.6907C121.107 64.4618 121.294 64.2754 121.523 64.2754H122.022C122.251 64.2754 122.437 64.4618 122.437 64.6907V65.8441C122.437 66.0731 122.251 66.2595 122.022 66.2595H121.523C121.294 66.2595 121.107 66.0731 121.107 65.8441ZM121.523 64.3755C121.349 64.3755 121.207 64.5168 121.207 64.6907V65.8441C121.207 66.018 121.349 66.1594 121.523 66.1594H122.022C122.196 66.1594 122.337 66.018 122.337 65.8441V64.6907C122.337 64.5168 122.196 64.3755 122.022 64.3755H121.523Z" fill="#A0B1CB"/>
<path d="M132.723 64.1028H134.023C134.434 64.1028 134.814 64.313 135.033 64.6595L135.239 64.986H132.723V64.1016V64.1028Z" fill="#A0B1CB"/>
<path d="M132.377 64.1028H130.438V64.9872H132.377V64.1028Z" fill="#A0B1CB"/>
<path d="M130.167 64.1028H128.727V64.9872H130.167V64.1028Z" fill="#A0B1CB"/>
<path d="M124.744 64.1028H122.926V64.9872H124.744V64.1028Z" fill="#A0B1CB"/>
<path d="M120.555 64.1028H118.775V64.9872H120.555V64.1028Z" fill="#A0B1CB"/>
<path d="M118.506 64.1028H116.777V64.9872H118.506V64.1028Z" fill="#A0B1CB"/>
<path d="M126.845 64.1028H125.039V64.9872H126.845V64.1028Z" fill="#A0B1CB"/>
<path d="M135.213 67.4842C135.495 67.4842 135.724 67.2552 135.724 66.9726C135.724 66.69 135.495 66.4609 135.213 66.4609C134.93 66.4609 134.701 66.69 134.701 66.9726C134.701 67.2552 134.93 67.4842 135.213 67.4842Z" fill="white"/>
<path d="M134.588 66.9727C134.588 66.6274 134.868 66.3472 135.213 66.3472C135.558 66.3472 135.839 66.6274 135.839 66.9727C135.839 67.3179 135.558 67.5982 135.213 67.5982C134.868 67.5982 134.588 67.3179 134.588 66.9727ZM134.816 66.9727C134.816 67.1928 134.994 67.3705 135.213 67.3705C135.432 67.3705 135.611 67.1916 135.611 66.9727C135.611 66.7537 135.432 66.5748 135.213 66.5748C134.994 66.5748 134.816 66.7537 134.816 66.9727Z" fill="#3E5372"/>
<path d="M133.656 67.4842C133.939 67.4842 134.168 67.2552 134.168 66.9726C134.168 66.69 133.939 66.4609 133.656 66.4609C133.374 66.4609 133.145 66.69 133.145 66.9726C133.145 67.2552 133.374 67.4842 133.656 67.4842Z" fill="white"/>
<path d="M133.031 66.9727C133.031 66.6274 133.311 66.3472 133.657 66.3472C134.002 66.3472 134.282 66.6274 134.282 66.9727C134.282 67.3179 134.002 67.5982 133.657 67.5982C133.311 67.5982 133.031 67.3179 133.031 66.9727ZM133.258 66.9727C133.258 67.1928 133.436 67.3705 133.655 67.3705C133.874 67.3705 134.053 67.1916 134.053 66.9727C134.053 66.7537 133.874 66.5748 133.655 66.5748C133.436 66.5748 133.258 66.7537 133.258 66.9727Z" fill="#3E5372"/>
<path d="M134.815 66.8589H134.051V67.0866H134.815V66.8589Z" fill="#3E5372"/>
<path d="M133.657 67.1315C133.745 67.1315 133.816 67.0603 133.816 66.9726C133.816 66.8848 133.745 66.8137 133.657 66.8137C133.569 66.8137 133.498 66.8848 133.498 66.9726C133.498 67.0603 133.569 67.1315 133.657 67.1315Z" fill="#5976A3"/>
<path d="M135.214 67.1315C135.301 67.1315 135.372 67.0603 135.372 66.9726C135.372 66.8848 135.301 66.8137 135.214 66.8137C135.126 66.8137 135.055 66.8848 135.055 66.9726C135.055 67.0603 135.126 67.1315 135.214 67.1315Z" fill="#5976A3"/>
<path d="M130.945 67.4842C131.228 67.4842 131.457 67.2552 131.457 66.9726C131.457 66.69 131.228 66.4609 130.945 66.4609C130.663 66.4609 130.434 66.69 130.434 66.9726C130.434 67.2552 130.663 67.4842 130.945 67.4842Z" fill="white"/>
<path d="M130.32 66.9727C130.32 66.6274 130.6 66.3472 130.946 66.3472C131.291 66.3472 131.571 66.6274 131.571 66.9727C131.571 67.3179 131.291 67.5982 130.946 67.5982C130.6 67.5982 130.32 67.3179 130.32 66.9727ZM130.548 66.9727C130.548 67.1928 130.727 67.3705 130.946 67.3705C131.165 67.3705 131.343 67.1916 131.343 66.9727C131.343 66.7537 131.165 66.5748 130.946 66.5748C130.727 66.5748 130.548 66.7537 130.548 66.9727Z" fill="#3E5372"/>
<path d="M129.388 67.4842C129.671 67.4842 129.9 67.2552 129.9 66.9726C129.9 66.69 129.671 66.4609 129.388 66.4609C129.106 66.4609 128.877 66.69 128.877 66.9726C128.877 67.2552 129.106 67.4842 129.388 67.4842Z" fill="white"/>
<path d="M128.764 66.9727C128.764 66.6274 129.044 66.3472 129.389 66.3472C129.734 66.3472 130.014 66.6274 130.014 66.9727C130.014 67.3179 129.734 67.5982 129.389 67.5982C129.044 67.5982 128.764 67.3179 128.764 66.9727ZM128.991 66.9727C128.991 67.1928 129.17 67.3705 129.389 67.3705C129.608 67.3705 129.787 67.1916 129.787 66.9727C129.787 66.7537 129.608 66.5748 129.389 66.5748C129.17 66.5748 128.991 66.7537 128.991 66.9727Z" fill="#3E5372"/>
<path d="M130.547 66.8589H129.783V67.0866H130.547V66.8589Z" fill="#3E5372"/>
<path d="M129.389 67.1315C129.477 67.1315 129.548 67.0603 129.548 66.9726C129.548 66.8848 129.477 66.8137 129.389 66.8137C129.302 66.8137 129.23 66.8848 129.23 66.9726C129.23 67.0603 129.302 67.1315 129.389 67.1315Z" fill="#5976A3"/>
<path d="M130.946 67.1315C131.034 67.1315 131.105 67.0603 131.105 66.9726C131.105 66.8848 131.034 66.8137 130.946 66.8137C130.858 66.8137 130.787 66.8848 130.787 66.9726C130.787 67.0603 130.858 67.1315 130.946 67.1315Z" fill="#5976A3"/>
<path d="M125.816 67.4842C126.099 67.4842 126.328 67.2552 126.328 66.9726C126.328 66.69 126.099 66.4609 125.816 66.4609C125.534 66.4609 125.305 66.69 125.305 66.9726C125.305 67.2552 125.534 67.4842 125.816 67.4842Z" fill="white"/>
<path d="M125.191 66.9727C125.191 66.6274 125.472 66.3472 125.817 66.3472C126.162 66.3472 126.442 66.6274 126.442 66.9727C126.442 67.3179 126.162 67.5982 125.817 67.5982C125.472 67.5982 125.191 67.3179 125.191 66.9727ZM125.419 66.9727C125.419 67.1928 125.598 67.3705 125.817 67.3705C126.036 67.3705 126.214 67.1916 126.214 66.9727C126.214 66.7537 126.036 66.5748 125.817 66.5748C125.598 66.5748 125.419 66.7537 125.419 66.9727Z" fill="#3E5372"/>
<path d="M124.26 67.4842C124.542 67.4842 124.771 67.2552 124.771 66.9726C124.771 66.69 124.542 66.4609 124.26 66.4609C123.977 66.4609 123.748 66.69 123.748 66.9726C123.748 67.2552 123.977 67.4842 124.26 67.4842Z" fill="white"/>
<path d="M123.635 66.9727C123.635 66.6274 123.915 66.3472 124.26 66.3472C124.605 66.3472 124.885 66.6274 124.885 66.9727C124.885 67.3179 124.605 67.5982 124.26 67.5982C123.915 67.5982 123.635 67.3179 123.635 66.9727ZM123.862 66.9727C123.862 67.1928 124.041 67.3705 124.26 67.3705C124.479 67.3705 124.658 67.1916 124.658 66.9727C124.658 66.7537 124.479 66.5748 124.26 66.5748C124.041 66.5748 123.862 66.7537 123.862 66.9727Z" fill="#3E5372"/>
<path d="M125.418 66.8589H124.654V67.0866H125.418V66.8589Z" fill="#3E5372"/>
<path d="M124.102 66.9726C124.102 67.0602 124.173 67.1315 124.26 67.1315C124.348 67.1315 124.419 67.0602 124.419 66.9726C124.419 66.885 124.348 66.8137 124.26 66.8137C124.173 66.8137 124.102 66.885 124.102 66.9726Z" fill="#5976A3"/>
<path d="M125.817 67.1315C125.905 67.1315 125.976 67.0603 125.976 66.9726C125.976 66.8848 125.905 66.8137 125.817 66.8137C125.729 66.8137 125.658 66.8848 125.658 66.9726C125.658 67.0603 125.729 67.1315 125.817 67.1315Z" fill="#5976A3"/>
<path d="M119.416 67.4842C119.698 67.4842 119.927 67.2552 119.927 66.9726C119.927 66.69 119.698 66.4609 119.416 66.4609C119.133 66.4609 118.904 66.69 118.904 66.9726C118.904 67.2552 119.133 67.4842 119.416 67.4842Z" fill="white"/>
<path d="M118.791 66.9727C118.791 66.6274 119.071 66.3472 119.416 66.3472C119.762 66.3472 120.042 66.6274 120.042 66.9727C120.042 67.3179 119.762 67.5982 119.416 67.5982C119.071 67.5982 118.791 67.3179 118.791 66.9727ZM119.017 66.9727C119.017 67.1928 119.196 67.3705 119.415 67.3705C119.634 67.3705 119.813 67.1916 119.813 66.9727C119.813 66.7537 119.634 66.5748 119.415 66.5748C119.196 66.5748 119.017 66.7537 119.017 66.9727Z" fill="#3E5372"/>
<path d="M117.859 67.4842C118.142 67.4842 118.371 67.2552 118.371 66.9726C118.371 66.69 118.142 66.4609 117.859 66.4609C117.577 66.4609 117.348 66.69 117.348 66.9726C117.348 67.2552 117.577 67.4842 117.859 67.4842Z" fill="white"/>
<path d="M117.234 66.9727C117.234 66.6274 117.515 66.3472 117.86 66.3472C118.205 66.3472 118.485 66.6274 118.485 66.9727C118.485 67.3179 118.205 67.5982 117.86 67.5982C117.515 67.5982 117.234 67.3179 117.234 66.9727ZM117.461 66.9727C117.461 67.1928 117.64 67.3705 117.858 67.3705C118.077 67.3705 118.256 67.1916 118.256 66.9727C118.256 66.7537 118.077 66.5748 117.858 66.5748C117.64 66.5748 117.461 66.7537 117.461 66.9727Z" fill="#3E5372"/>
<path d="M119.018 66.8589H118.254V67.0866H119.018V66.8589Z" fill="#3E5372"/>
<path d="M117.86 67.1315C117.948 67.1315 118.019 67.0603 118.019 66.9726C118.019 66.8848 117.948 66.8137 117.86 66.8137C117.772 66.8137 117.701 66.8848 117.701 66.9726C117.701 67.0603 117.772 67.1315 117.86 67.1315Z" fill="#5976A3"/>
<path d="M119.417 67.1315C119.504 67.1315 119.575 67.0603 119.575 66.9726C119.575 66.8848 119.504 66.8137 119.417 66.8137C119.329 66.8137 119.258 66.8848 119.258 66.9726C119.258 67.0603 119.329 67.1315 119.417 67.1315Z" fill="#5976A3"/>
<g style="mix-blend-mode:multiply">
<path d="M138.661 67.5806H92.0547V67.9021H138.661V67.5806Z" fill="#CCCCCC"/>
</g>
<path d="M134.454 6.45386H133.812V11.1025H134.454V6.45386Z" fill="#687689"/>
<path d="M135.563 12.0394H132.703L133.368 9.5249H134.898L135.563 12.0394Z" fill="#339966"/>
<g style="mix-blend-mode:multiply">
<path d="M134.444 6.63892H133.812V7.11429L134.444 6.63892Z" fill="#E6E6E6"/>
</g>
<g style="mix-blend-mode:multiply">
<path d="M133.368 9.5249H134.009L133.627 12.0394H132.703L133.368 9.5249Z" fill="#E6E6E6"/>
</g>
<path d="M136.967 5.90206H130.994L132.093 1.65747H135.976L136.967 5.90206Z" fill="white"/>
<path d="M131.258 6.08353H130.637L131.915 1.58374H132.31L131.258 6.08353Z" fill="#339966"/>
<path d="M134.444 6.08353H133.822L133.936 1.58374H134.33L134.444 6.08353Z" fill="#339966"/>
<path d="M137.632 6.08353H137.011L135.959 1.58374H136.354L137.632 6.08353Z" fill="#339966"/>
<path d="M136.659 2.66198H131.607L131.661 2.47559H136.606L136.659 2.66198Z" fill="#339966"/>
<path d="M136.397 1.73386H131.873L131.916 1.58374H136.354L136.397 1.73386Z" fill="#95A8C4"/>
<path d="M137.087 4.16194H131.184L131.255 3.90674H137.014L137.087 4.16194Z" fill="#339966"/>
<path d="M137.684 6.26864H130.584L130.688 5.9021H137.58L137.684 6.26864Z" fill="#339966"/>
<path d="M137.685 6.2688H130.584V6.63909H137.685V6.2688Z" fill="#2A7D53"/>
<path d="M237 154.461H0V162H237V154.461Z" fill="#4F68C0"/>
</svg>
