<svg width="218" height="177" viewBox="0 0 218 177" fill="none" xmlns="http://www.w3.org/2000/svg">
<path d="M28.3519 163.143C42.5573 163.143 54.073 161.853 54.073 160.262C54.073 158.67 42.5573 157.38 28.3519 157.38C14.1466 157.38 2.63086 158.67 2.63086 160.262C2.63086 161.853 14.1466 163.143 28.3519 163.143Z" fill="#A7D6F3"/>
<path d="M98.5746 176.252C112.78 176.252 124.296 174.962 124.296 173.371C124.296 171.78 112.78 170.49 98.5746 170.49C84.3692 170.49 72.8535 171.78 72.8535 173.371C72.8535 174.962 84.3692 176.252 98.5746 176.252Z" fill="#A7D6F3"/>
<path d="M104.016 154.255C126.364 154.255 144.481 152.225 144.481 149.721C144.481 147.217 126.364 145.188 104.016 145.188C81.6675 145.188 63.5508 147.217 63.5508 149.721C63.5508 152.225 81.6675 154.255 104.016 154.255Z" fill="#A7D6F3"/>
<path d="M194.052 160.964C206.835 160.964 217.198 159.803 217.198 158.371C217.198 156.939 206.835 155.778 194.052 155.778C181.269 155.778 170.906 156.939 170.906 158.371C170.906 159.803 181.269 160.964 194.052 160.964Z" fill="#A7D6F3"/>
<path d="M26.3382 134.162C34.3608 140.662 43.8695 144.375 53.5465 147.13C57.8766 145.753 179.604 151.235 178.66 142.432C207.458 123.617 209.381 87.0606 187.417 61.8412C182.391 54.9767 176.914 48.4215 172.67 40.839C167.977 31.417 165.201 20.0468 157.451 12.5521C135.591 -10.1297 113.969 4.4334 90.8019 14.7699C76.8868 19.3894 62.1429 17.2981 48.1609 21.5268C2.31451 35.9059 -10.2534 104.03 26.3382 134.162Z" fill="#E2F2FB"/>
<path d="M102.59 74.8734C85.6771 67.4915 74.748 50.4713 74.748 31.5155V19.0532L103.845 7.87427L132.942 19.0532V31.5155C132.942 50.4724 122.014 67.4915 105.1 74.8734L103.845 75.4221L102.59 74.8734Z" fill="#62B2E3"/>
<path d="M103.217 73.4352C86.8755 66.3021 76.3164 49.8473 76.3164 31.5144V20.1296L103.845 9.55273L131.373 20.1296V31.5144C131.373 49.8473 120.814 66.3021 104.472 73.4352L103.845 73.7091L103.217 73.4352Z" fill="#C7E3F6"/>
<path d="M129.805 21.2082V31.5144C129.805 50.4462 118.567 65.5715 103.846 71.9971C89.1252 65.5715 77.8867 50.4462 77.8867 31.5144V21.2082L103.846 11.2344L129.805 21.2082Z" fill="#62B2E3"/>
<path d="M129.805 21.2082V31.5144C129.805 50.4462 118.567 65.5715 103.846 71.9971V11.2344L129.805 21.2082Z" fill="#94CEF0"/>
<g style="mix-blend-mode:screen" opacity="0.2">
<path d="M90.9933 59.8117C90.5334 59.8117 90.1007 59.6131 89.805 59.2672C83.2958 51.6303 79.7109 41.7746 79.7109 31.5154V22.5596L101.048 14.3614C101.23 14.2914 101.421 14.2559 101.614 14.2559C102.264 14.2559 102.857 14.6635 103.09 15.2707C103.241 15.6658 103.231 16.0953 103.06 16.4799C102.888 16.8656 102.577 17.1614 102.183 17.3129L82.8725 24.7314V31.5165C82.8725 41.0127 86.1825 50.1326 92.1921 57.1957C92.7418 57.8406 92.6969 58.7979 92.0917 59.3738C91.7949 59.657 91.404 59.8128 90.9933 59.8128V59.8117Z" fill="#C7E3F6"/>
</g>
<path d="M126.378 79.6863H81.3129L71.4102 82.7099L103.845 89.3163L136.28 82.7099L126.378 79.6863Z" fill="#A7D6F3"/>
<path d="M141.542 147.976H66.1465V94.6925L103.845 90.1409L141.542 94.6925V147.976Z" fill="#A7D6F3"/>
<path d="M136.28 82.71H103.845H71.4098L66.1465 94.6926H103.845H141.542L136.28 82.71Z" fill="white"/>
<path d="M80.8235 91.7253C82.4939 91.7253 83.8481 90.3712 83.8481 88.7007C83.8481 87.0302 82.4939 85.676 80.8235 85.676C79.153 85.676 77.7988 87.0302 77.7988 88.7007C77.7988 90.3712 79.153 91.7253 80.8235 91.7253Z" fill="#62B2E3"/>
<path d="M97.6884 84.8242H97.4741C97.2069 84.8242 96.9902 85.0409 96.9902 85.3081V92.0932C96.9902 92.3605 97.2069 92.5771 97.4741 92.5771H97.6884C97.9556 92.5771 98.1723 92.3605 98.1723 92.0932V85.3081C98.1723 85.0409 97.9556 84.8242 97.6884 84.8242Z" fill="#62B2E3"/>
<path d="M88.6649 84.8242H88.4507C88.1834 84.8242 87.9668 85.0409 87.9668 85.3081V92.0932C87.9668 92.3605 88.1834 92.5771 88.4507 92.5771H88.6649C88.9322 92.5771 89.1489 92.3605 89.1489 92.0932V85.3081C89.1489 85.0409 88.9322 84.8242 88.6649 84.8242Z" fill="#62B2E3"/>
<path d="M88.5573 88.7005C88.7924 88.7005 88.9837 88.5093 88.9837 88.2741V84.382H89.0704C89.1112 84.5848 89.2899 84.7373 89.5042 84.7373H96.6342C96.8484 84.7373 97.0271 84.5837 97.0679 84.382H97.1547V88.2741C97.1547 88.5093 97.3459 88.7005 97.5811 88.7005C97.8162 88.7005 98.0075 88.5093 98.0075 88.2741V83.7528C98.0075 83.6044 97.8873 83.4842 97.7389 83.4842H97.4233C97.2748 83.4842 97.1547 83.6044 97.1547 83.7528V83.7936H97.0679C97.0271 83.5908 96.8484 83.4382 96.6342 83.4382H89.5042C89.2899 83.4382 89.1112 83.5919 89.0704 83.7936H88.9837V83.7528C88.9837 83.6044 88.8635 83.4842 88.7151 83.4842H88.3995C88.251 83.4842 88.1309 83.6044 88.1309 83.7528V88.2741C88.1309 88.5093 88.3221 88.7005 88.5573 88.7005Z" fill="#A7D6F3"/>
<path d="M128.267 90.9855H105.492V83.4458H128.267V90.9855ZM105.813 90.6636H127.946V83.7656H105.813V90.6636Z" fill="#A7D6F3"/>
<path d="M127.464 84.2473H106.295V90.1817H127.464V84.2473Z" fill="#A7D6F3"/>
<path d="M109.949 89.4396C111.177 89.4396 112.173 88.4438 112.173 87.2155C112.173 85.9872 111.177 84.9915 109.949 84.9915C108.72 84.9915 107.725 85.9872 107.725 87.2155C107.725 88.4438 108.72 89.4396 109.949 89.4396Z" fill="white"/>
<path d="M115.607 89.4396C116.835 89.4396 117.831 88.4438 117.831 87.2155C117.831 85.9872 116.835 84.9915 115.607 84.9915C114.379 84.9915 113.383 85.9872 113.383 87.2155C113.383 88.4438 114.379 89.4396 115.607 89.4396Z" fill="white"/>
<path d="M107.146 93.6766C107.616 93.6766 107.996 93.2957 107.996 92.8258C107.996 92.356 107.616 91.9751 107.146 91.9751C106.676 91.9751 106.295 92.356 106.295 92.8258C106.295 93.2957 106.676 93.6766 107.146 93.6766Z" fill="#62B2E3"/>
<path d="M113.636 93.6766C114.106 93.6766 114.487 93.2957 114.487 92.8258C114.487 92.356 114.106 91.9751 113.636 91.9751C113.166 91.9751 112.785 92.356 112.785 92.8258C112.785 93.2957 113.166 93.6766 113.636 93.6766Z" fill="#62B2E3"/>
<path d="M120.124 93.6766C120.594 93.6766 120.975 93.2957 120.975 92.8258C120.975 92.356 120.594 91.9751 120.124 91.9751C119.654 91.9751 119.273 92.356 119.273 92.8258C119.273 93.2957 119.654 93.6766 120.124 93.6766Z" fill="#62B2E3"/>
<path d="M126.614 93.6766C127.084 93.6766 127.465 93.2957 127.465 92.8258C127.465 92.356 127.084 91.9751 126.614 91.9751C126.145 91.9751 125.764 92.356 125.764 92.8258C125.764 93.2957 126.145 93.6766 126.614 93.6766Z" fill="#62B2E3"/>
<path d="M109.947 89.4396C111.175 89.4396 112.171 88.4438 112.171 87.2155C112.171 85.9872 111.175 84.9915 109.947 84.9915C108.718 84.9915 107.723 85.9872 107.723 87.2155C107.723 88.4438 108.718 89.4396 109.947 89.4396Z" fill="white"/>
<path d="M109.947 87.3732C110.034 87.3732 110.105 87.3026 110.105 87.2154C110.105 87.1283 110.034 87.0576 109.947 87.0576C109.86 87.0576 109.789 87.1283 109.789 87.2154C109.789 87.3026 109.86 87.3732 109.947 87.3732Z" fill="#62B2E3"/>
<path d="M109.946 85.3499L109.826 87.2154H110.068L109.946 85.3499Z" fill="#62B2E3"/>
<path d="M115.607 89.4394C116.835 89.4394 117.831 88.4436 117.831 87.2153C117.831 85.987 116.835 84.9912 115.607 84.9912C114.379 84.9912 113.383 85.987 113.383 87.2153C113.383 88.4436 114.379 89.4394 115.607 89.4394Z" fill="white"/>
<path d="M115.607 87.373C115.694 87.373 115.765 87.3023 115.765 87.2152C115.765 87.128 115.694 87.0574 115.607 87.0574C115.52 87.0574 115.449 87.128 115.449 87.2152C115.449 87.3023 115.52 87.373 115.607 87.373Z" fill="#62B2E3"/>
<path d="M116.751 85.7417L115.512 87.1412L115.702 87.2885L116.751 85.7417Z" fill="#62B2E3"/>
<path d="M119.203 88.9221C119.203 87.0356 120.732 85.5066 122.619 85.5066C124.505 85.5066 126.034 87.0356 126.034 88.9221H119.204H119.203Z" fill="white"/>
<path d="M122.447 88.9222H122.743L123.632 86.7964L122.447 88.9222Z" fill="#62B2E3"/>
<g style="mix-blend-mode:screen" opacity="0.6">
<path d="M134.191 45.9268L122.199 73.3357L118.742 81.2276H88.9483L85.492 73.3357L73.5 45.9268H134.191Z" fill="black"/>
<path d="M73.832 46.6887H133.857L122.102 73.5553L118.575 81.2277H89.1131L85.5868 73.5553L73.832 46.6887Z" fill="#080808"/>
<path d="M74.166 47.4497H133.524L122.007 73.7738L118.409 81.2278H89.2799L85.6835 73.7738L74.166 47.4497Z" fill="#0D0E0F"/>
<path d="M74.498 48.2114H133.19L121.91 73.9931L118.242 81.2276H89.4457L85.7794 73.9931L74.498 48.2114Z" fill="#131416"/>
<path d="M74.832 48.9724H132.858L121.815 74.2127L118.076 81.2277H89.6125L85.8761 74.2127L74.832 48.9724Z" fill="#17191A"/>
<path d="M75.166 49.7344H132.526L121.719 74.4322L117.909 81.2278H89.7793L85.9718 74.4322L75.166 49.7344Z" fill="#1D1F22"/>
<path d="M75.5 50.4951H132.193L121.623 74.6505L117.744 81.2276H89.946L86.0685 74.6505L75.5 50.4951Z" fill="#242629"/>
<path d="M75.832 51.2571H131.859L121.527 74.8701L117.576 81.2277H90.1108L86.1644 74.8701L75.832 51.2571Z" fill="#292C30"/>
<path d="M76.1641 52.0181H131.525L121.429 75.0897L117.409 81.2278H90.2756L86.2591 75.0897L76.1641 52.0181Z" fill="#2F3237"/>
<path d="M76.498 52.7798H131.193L121.335 75.309L117.242 81.2276H90.4424L86.3559 75.309L76.498 52.7798Z" fill="#35393E"/>
<path d="M76.8301 53.5408H130.859L121.238 75.5275L117.076 81.2277H90.6082L86.4517 75.5275L76.8301 53.5408Z" fill="#3B3F46"/>
<path d="M77.1641 54.3015H130.526L121.143 75.7469L116.909 81.2276H90.775L86.5484 75.7469L77.1641 54.3015Z" fill="#42454C"/>
<path d="M77.498 55.0635H130.194L121.047 75.9664L116.743 81.2277H90.9418L86.6441 75.9664L77.498 55.0635Z" fill="#474B52"/>
<path d="M77.832 55.8245H129.862L120.952 76.186L116.577 81.2278H91.1085L86.7409 76.186L77.832 55.8245Z" fill="#4E5359"/>
<path d="M78.1641 56.5862H129.528L120.855 76.4043L116.41 81.2276H91.2744L86.8367 76.4043L78.1641 56.5862Z" fill="#535860"/>
<path d="M78.498 57.3472H129.195L120.76 76.6239L116.244 81.2277H91.4412L86.9334 76.6239L78.498 57.3472Z" fill="#5A5F68"/>
<path d="M78.8301 58.1091H128.861L120.663 76.8434L116.076 81.2278H91.6059L87.0282 76.8434L78.8301 58.1091Z" fill="#5F646F"/>
<path d="M79.1621 58.8699H128.528L120.567 77.0627L115.908 81.2276H91.7718L87.124 77.0627L79.1621 58.8699Z" fill="#656B76"/>
<path d="M79.4961 59.6318H128.195L120.471 77.2823L115.743 81.2277H91.9386L87.2208 77.2823L79.4961 59.6318Z" fill="#6A717B"/>
<path d="M79.8281 60.3926H127.861L120.374 77.5006L115.574 81.2276H92.1023L87.3145 77.5006L79.8281 60.3926Z" fill="#717781"/>
<path d="M80.1621 61.1545H127.528L120.278 77.7201L115.409 81.2276H92.2691L87.4112 77.7201L80.1621 61.1545Z" fill="#767E88"/>
<path d="M80.4941 61.9155H127.194L120.181 77.9397L115.241 81.2277H92.4349L87.5071 77.9397L80.4941 61.9155Z" fill="#7C838F"/>
<path d="M80.8281 62.6772H126.862L120.086 78.159L115.075 81.2276H92.6017L87.6038 78.159L80.8281 62.6772Z" fill="#818995"/>
<path d="M81.1621 63.4382H126.53L119.991 78.3776L114.909 81.2277H92.7685L87.7006 78.3776L81.1621 63.4382Z" fill="#878F9D"/>
<path d="M81.4941 64.1992H126.195L119.894 78.5972L114.741 81.2278H92.9333L87.7953 78.5972L81.4941 64.1992Z" fill="#8D96A4"/>
<path d="M81.8281 64.9612H125.863L119.799 78.8167L114.576 81.2278H93.1011L87.8931 78.8167L81.8281 64.9612Z" fill="#939CAB"/>
<path d="M82.1602 65.7219H125.53L119.702 79.036L114.408 81.2277H93.2659L87.9868 79.036L82.1602 65.7219Z" fill="#99A1B0"/>
<path d="M82.4941 66.4839H125.197L119.606 79.2545L114.242 81.2278H93.4326L88.0836 79.2545L82.4941 66.4839Z" fill="#A0A9B9"/>
<path d="M82.8262 67.2446H124.863L119.51 79.4739L114.075 81.2276H93.5985L88.1794 79.4739L82.8262 67.2446Z" fill="#A5AFC0"/>
<path d="M83.1602 68.0066H124.53L119.414 79.6934L113.908 81.2277H93.7653L88.2761 79.6934L83.1602 68.0066Z" fill="#ABB5C6"/>
<path d="M83.4941 68.7673H124.198L119.32 79.9128L113.743 81.2276H93.932L88.3729 79.9128L83.4941 68.7673Z" fill="#B0BBCD"/>
<path d="M83.8262 69.5293H123.864L119.222 80.1313L113.574 81.2276H94.0958L88.4677 80.1313L83.8262 69.5293Z" fill="#B6C2D4"/>
<path d="M84.1602 70.2903H123.532L119.128 80.3509L113.41 81.2277H94.2636L88.5655 80.3509L84.1602 70.2903Z" fill="#BCC8DB"/>
<path d="M84.4922 71.0522H123.198L119.03 80.5704L113.242 81.2278H94.4284L88.6602 80.5704L84.4922 71.0522Z" fill="#C2CEE1"/>
<path d="M84.8262 71.813H122.865L118.935 80.7898L113.075 81.2277H94.5952L88.7559 80.7898L84.8262 71.813Z" fill="#C9D4E8"/>
<path d="M85.1582 72.574H122.532L118.838 81.0083L112.909 81.2278H94.761L88.8517 81.0083L85.1582 72.574Z" fill="#CFDBEE"/>
<path d="M122.199 73.3357L118.742 81.2276H88.9485L85.4922 73.3357H122.199Z" fill="#C7E3F6"/>
</g>
<path d="M107.361 124.8H51.6465V97.5166H52.076V124.371H106.931V92.3044H107.361V124.8Z" fill="#62B2E3"/>
<path d="M113.85 127.377H45.1562V97.5166H45.5858V126.948H113.42V92.3044H113.85V127.377Z" fill="#62B2E3"/>
<path d="M60.0048 38.3579H2.25V100.197H60.0048V38.3579Z" fill="#A7D6F3"/>
<path d="M58.8335 99.0266H3.42188V39.5295H58.8335V99.0266ZM3.75632 98.6911H58.498V39.864H3.75632V98.6911Z" fill="white"/>
<path d="M55.1765 64.3018H7.08203V93.0036H55.1765V64.3018Z" fill="white"/>
<path d="M32.088 71.3021C31.9218 70.8172 31.7002 70.3615 31.4274 69.9403C30.7962 70.2141 30.0384 70.1221 29.4897 69.6361C28.941 69.1502 28.7592 68.4081 28.9546 67.7486C28.5041 67.5281 28.0244 67.363 27.5238 67.2563C27.2709 67.8949 26.6699 68.3663 25.9394 68.4102C25.2078 68.4541 24.5556 68.059 24.2274 67.4549C23.7425 67.6211 23.2857 67.8427 22.8656 68.1155C23.1384 68.7467 23.0474 69.5045 22.5614 70.0532C22.0754 70.6019 21.3334 70.7837 20.6739 70.5883C20.4534 71.0387 20.2882 71.5185 20.1816 72.0191C20.8202 72.272 21.2916 72.873 21.3355 73.6035C21.3794 74.3351 20.9843 74.9873 20.3802 75.3155C20.5464 75.8004 20.768 76.2561 21.0408 76.6773C21.672 76.4035 22.4298 76.4954 22.9785 76.9814C23.5272 77.4674 23.709 78.2095 23.5136 78.869C23.964 79.0895 24.4437 79.2546 24.9444 79.3612C25.1973 78.7227 25.7983 78.2513 26.5288 78.2074C27.2604 78.1635 27.9126 78.5586 28.2408 79.1627C28.7257 78.9965 29.1824 78.7749 29.6026 78.5021C29.3298 77.8709 29.4207 77.1131 29.9067 76.5644C30.3927 76.0157 31.1348 75.8339 31.7943 76.0293C32.0148 75.5788 32.1799 75.0991 32.2865 74.5985C31.6479 74.3456 31.1766 73.7446 31.1327 73.0141C31.0888 72.2825 31.4839 71.6303 32.088 71.3021ZM26.3637 75.4702C25.1701 75.5423 24.1438 74.633 24.0717 73.4384C23.9996 72.2448 24.9088 71.2185 26.1034 71.1464C27.297 71.0743 28.3233 71.9835 28.3954 73.1781C28.4676 74.3717 27.5583 75.398 26.3637 75.4702Z" fill="#A7D6F3"/>
<path d="M19.4835 72.8584V72.8156L18.6401 72.479C18.6139 72.1404 18.5345 71.8133 18.4091 71.5071L19.0121 70.8267L18.9923 70.789C18.9087 70.6344 18.8156 70.486 18.7143 70.3459C18.6139 70.2069 18.5021 70.0721 18.3798 69.9425L18.3505 69.9111L17.5155 70.2707C17.2646 70.0554 16.9783 69.8777 16.6658 69.747L16.6114 68.8399L16.5707 68.8273C16.4014 68.7771 16.2299 68.7374 16.0606 68.7103C15.8913 68.6831 15.7157 68.6664 15.5391 68.6611H15.4963L15.1597 69.5046C14.8211 69.5307 14.494 69.6101 14.1888 69.7355L13.5084 69.1325L13.4708 69.1524C13.315 69.237 13.1656 69.33 13.0276 69.4304C12.8876 69.5317 12.7517 69.6446 12.6242 69.7648L12.5928 69.7941L12.9513 70.6291C12.736 70.88 12.5583 71.1664 12.4277 71.4789L11.5205 71.5332L11.508 71.574C11.4578 71.7433 11.4181 71.9147 11.3909 72.084C11.3637 72.2533 11.347 72.4289 11.3418 72.6055V72.6484L12.1852 72.9849C12.2114 73.3235 12.2908 73.6507 12.4162 73.9558L11.8132 74.6362L11.833 74.6739C11.9166 74.8285 12.0096 74.977 12.111 75.117C12.2103 75.255 12.3232 75.3908 12.4455 75.5204L12.4747 75.5518L13.3098 75.1933C13.5606 75.4086 13.847 75.5863 14.1595 75.7169L14.2139 76.6241L14.2546 76.6366C14.4239 76.6868 14.5953 76.7265 14.7647 76.7537C14.934 76.7809 15.1096 76.7976 15.2862 76.8028H15.329L15.6656 75.9594C16.0042 75.9333 16.3313 75.8538 16.6376 75.7284L17.3179 76.3315L17.3556 76.3116C17.5123 76.2269 17.6608 76.1329 17.7987 76.0336C17.9388 75.9333 18.0746 75.8204 18.2021 75.7002L18.2335 75.6709L17.874 74.8359C18.0893 74.585 18.2669 74.2987 18.3976 73.9862L19.3048 73.9318L19.3173 73.891C19.3675 73.7217 19.4072 73.5503 19.4344 73.381C19.4615 73.2107 19.4783 73.0361 19.4835 72.8595V72.8584ZM15.0939 74.7167C13.9975 74.5401 13.2523 73.5085 13.429 72.4122C13.6056 71.3158 14.6371 70.5706 15.7335 70.7472C16.8299 70.9239 17.5751 71.9554 17.3984 73.0518C17.2218 74.1482 16.1902 74.8933 15.0939 74.7167Z" fill="#AED8F3"/>
<path d="M22.5911 84.1981L23.9237 83.7048V83.6379C23.9216 83.362 23.9028 83.0882 23.8662 82.8216C23.8296 82.5551 23.7752 82.2855 23.7021 82.02L23.6843 81.9552L22.2681 81.8361C22.0748 81.3417 21.8072 80.8881 21.4811 80.4878L22.0738 79.196L22.0257 79.149C21.8302 78.9567 21.6222 78.7759 21.408 78.6118C21.1958 78.4498 20.9659 78.2983 20.7255 78.1603L20.668 78.1268L19.5821 79.0434C19.1087 78.8365 18.6007 78.6996 18.0729 78.6463L17.5786 77.3137H17.5117C17.2358 77.3158 16.9609 77.3346 16.6954 77.3712C16.43 77.4078 16.1593 77.4621 15.8938 77.5343L15.829 77.552L15.7099 78.9682C15.2155 79.1615 14.7619 79.4291 14.3616 79.7552L13.0698 79.1626L13.0228 79.2107C12.8273 79.4082 12.6476 79.6151 12.4856 79.8283C12.3215 80.0436 12.1699 80.2736 12.0341 80.5108L12.0006 80.5683L12.9172 81.6542C12.7103 82.1277 12.5734 82.6356 12.5201 83.1634L11.1875 83.6578V83.7247C11.1896 84.0006 11.2084 84.2754 11.245 84.5409C11.2816 84.8074 11.3359 85.0771 11.4091 85.3425L11.4268 85.4073L12.843 85.5265C13.0364 86.0208 13.3039 86.4744 13.63 86.8747L13.0374 88.1665L13.0844 88.2136C13.2788 88.4069 13.4868 88.5867 13.7021 88.7508C13.9143 88.9128 14.1442 89.0643 14.3846 89.2023L14.4421 89.2357L15.528 88.3191C16.0014 88.5261 16.5094 88.663 17.0382 88.7163L17.5315 90.0488H17.5984C17.8743 90.0467 18.1492 90.0279 18.4147 89.9913C18.6802 89.9548 18.9498 89.9004 19.2163 89.8283L19.2811 89.8105L19.4003 88.3944C19.8946 88.201 20.3482 87.9335 20.7485 87.6074L22.0403 88.2L22.0873 88.1519C22.2828 87.9544 22.4636 87.7464 22.6245 87.5342C22.7876 87.32 22.9391 87.09 23.076 86.8517L23.1095 86.7942L22.1929 85.7083C22.3998 85.2349 22.5368 84.7269 22.5901 84.1981H22.5911ZM17.981 86.7942C16.2617 87.0284 14.6772 85.8244 14.4431 84.1051C14.209 82.3858 15.413 80.8014 17.1323 80.5662C18.8516 80.3321 20.436 81.5361 20.6712 83.2554C20.9053 84.9746 19.7013 86.5591 17.982 86.7932L17.981 86.7942Z" fill="#62B2E3"/>
<path d="M19.4811 83.6965C19.4928 82.6316 18.639 81.7588 17.5741 81.7471C16.5092 81.7354 15.6364 82.5892 15.6247 83.6541C15.613 84.719 16.4668 85.5918 17.5317 85.6035C18.5966 85.6152 19.4694 84.7614 19.4811 83.6965Z" fill="#62B2E3"/>
<path d="M51.0657 67.5647H37.4004V67.8176H51.0657V67.5647Z" fill="#A7D6F3"/>
<path d="M51.0657 70.697H37.4004V70.95H51.0657V70.697Z" fill="#A7D6F3"/>
<path d="M51.0657 73.8284H37.4004V74.0813H51.0657V73.8284Z" fill="#A7D6F3"/>
<path d="M51.0657 76.9607H37.4004V77.2136H51.0657V76.9607Z" fill="#A7D6F3"/>
<path d="M51.0657 80.0918H37.4004V80.3447H51.0657V80.0918Z" fill="#A7D6F3"/>
<path d="M51.0657 83.2231H37.4004V83.4761H51.0657V83.2231Z" fill="#A7D6F3"/>
<path d="M51.0657 86.3555H37.4004V86.6084H51.0657V86.3555Z" fill="#A7D6F3"/>
<path d="M51.0657 89.4868H37.4004V89.7397H51.0657V89.4868Z" fill="#A7D6F3"/>
<path d="M53.7089 45.9751H31.8852C31.0763 45.9751 30.4199 46.6315 30.4199 47.4404C30.4199 48.2493 31.0763 48.9057 31.8852 48.9057H53.7089C54.5179 48.9057 55.1742 48.2493 55.1742 47.4404C55.1742 46.6315 54.5179 45.9751 53.7089 45.9751Z" fill="white"/>
<path d="M53.7089 51.7966H31.8852C31.0763 51.7966 30.4199 52.453 30.4199 53.2619C30.4199 54.0709 31.0763 54.7272 31.8852 54.7272H53.7089C54.5179 54.7272 55.1742 54.0709 55.1742 53.2619C55.1742 52.453 54.5179 51.7966 53.7089 51.7966Z" fill="white"/>
<path d="M53.7089 57.6191H31.8852C31.0763 57.6191 30.4199 58.2755 30.4199 59.0844C30.4199 59.8934 31.0763 60.5497 31.8852 60.5497H53.7089C54.5179 60.5497 55.1742 59.8934 55.1742 59.0844C55.1742 58.2755 54.5179 57.6191 53.7089 57.6191Z" fill="white"/>
<path d="M26.7157 60.9718C27.7581 60.9718 28.6032 60.1268 28.6032 59.0843C28.6032 58.0419 27.7581 57.1968 26.7157 57.1968C25.6732 57.1968 24.8281 58.0419 24.8281 59.0843C24.8281 60.1268 25.6732 60.9718 26.7157 60.9718Z" fill="#62B2E3"/>
<path d="M26.9878 59.0842L27.5397 58.5323C27.6149 58.4571 27.6149 58.3348 27.5397 58.2596C27.4644 58.1843 27.3421 58.1843 27.2669 58.2596L26.715 58.8114L26.1632 58.2596C26.088 58.1843 25.9657 58.1843 25.8904 58.2596C25.8152 58.3348 25.8152 58.4571 25.8904 58.5323L26.4423 59.0842L25.8904 59.636C25.8152 59.7113 25.8152 59.8336 25.8904 59.9088C25.9657 59.9841 26.088 59.9841 26.1632 59.9088L26.715 59.357L27.2669 59.9088C27.3421 59.9841 27.4644 59.9841 27.5397 59.9088C27.6149 59.8336 27.6149 59.7113 27.5397 59.636L26.9878 59.0842Z" fill="white"/>
<path d="M26.7157 55.1493C27.7581 55.1493 28.6032 54.3043 28.6032 53.2618C28.6032 52.2193 27.7581 51.3743 26.7157 51.3743C25.6732 51.3743 24.8281 52.2193 24.8281 53.2618C24.8281 54.3043 25.6732 55.1493 26.7157 55.1493Z" fill="#62B2E3"/>
<path d="M26.9878 53.2617L27.5397 52.7098C27.6149 52.6346 27.6149 52.5123 27.5397 52.4371C27.4644 52.3618 27.3421 52.3618 27.2669 52.4371L26.715 52.9889L26.1632 52.4371C26.088 52.3618 25.9657 52.3618 25.8904 52.4371C25.8152 52.5123 25.8152 52.6346 25.8904 52.7098L26.4423 53.2617L25.8904 53.8135C25.8152 53.8888 25.8152 54.011 25.8904 54.0863C25.9657 54.1615 26.088 54.1615 26.1632 54.0863L26.715 53.5345L27.2669 54.0863C27.3421 54.1615 27.4644 54.1615 27.5397 54.0863C27.6149 54.011 27.6149 53.8888 27.5397 53.8135L26.9878 53.2617Z" fill="white"/>
<path d="M26.7157 49.3278C27.7581 49.3278 28.6032 48.4827 28.6032 47.4403C28.6032 46.3978 27.7581 45.5527 26.7157 45.5527C25.6732 45.5527 24.8281 46.3978 24.8281 47.4403C24.8281 48.4827 25.6732 49.3278 26.7157 49.3278Z" fill="#62B2E3"/>
<path d="M26.9878 47.4401L27.5397 46.8883C27.6149 46.8131 27.6149 46.6908 27.5397 46.6155C27.4644 46.5403 27.3421 46.5403 27.2669 46.6155L26.715 47.1674L26.1632 46.6155C26.088 46.5403 25.9657 46.5403 25.8904 46.6155C25.8152 46.6908 25.8152 46.8131 25.8904 46.8883L26.4423 47.4401L25.8904 47.992C25.8152 48.0672 25.8152 48.1895 25.8904 48.2648C25.9657 48.34 26.088 48.34 26.1632 48.2648L26.715 47.7129L27.2669 48.2648C27.3421 48.34 27.4644 48.34 27.5397 48.2648C27.6149 48.1895 27.6149 48.0672 27.5397 47.992L26.9878 47.4401Z" fill="white"/>
<path d="M18.8096 45.9751H8.18571C7.57616 45.9751 7.08203 46.4692 7.08203 47.0788V59.446C7.08203 60.0555 7.57616 60.5497 8.18571 60.5497H18.8096C19.4192 60.5497 19.9133 60.0555 19.9133 59.446V47.0788C19.9133 46.4692 19.4192 45.9751 18.8096 45.9751Z" fill="white"/>
<path d="M16.9824 50.5413V51.9847C16.9824 54.3007 15.6457 56.3847 13.5794 57.2867L13.4979 57.3212L13.4206 57.2867C11.3501 56.3847 10.0176 54.3007 10.0176 51.9847V50.5413L13.4979 49.2046L16.9824 50.5413Z" fill="#62B2E3"/>
<path d="M16.9826 50.5413V51.9847C16.9826 54.3007 15.6458 56.3847 13.5796 57.2867L13.498 57.3212V49.2046L16.9826 50.5413Z" fill="#A7D6F3"/>
<path d="M191.744 91.5958V32.3025H142.799V91.5958H191.744Z" fill="white"/>
<path d="M151.574 32.2971H142.795V91.6019H151.574V32.2971Z" fill="#A7D6F3"/>
<path d="M192.179 92.0315H142.363V31.8677H192.179V92.0315ZM143.223 91.1714H191.32V32.7268H143.223V91.1714Z" fill="#A7D6F3"/>
<path d="M158.496 54.6279C159.287 54.6279 159.928 53.9868 159.928 53.196C159.928 52.4052 159.287 51.7642 158.496 51.7642C157.706 51.7642 157.064 52.4052 157.064 53.196C157.064 53.9868 157.706 54.6279 158.496 54.6279Z" fill="#62B2E3"/>
<path d="M167.102 54.6279C167.893 54.6279 168.534 53.9868 168.534 53.196C168.534 52.4052 167.893 51.7642 167.102 51.7642C166.311 51.7642 165.67 52.4052 165.67 53.196C165.67 53.9868 166.311 54.6279 167.102 54.6279Z" fill="#62B2E3"/>
<path d="M175.707 54.6279C176.498 54.6279 177.139 53.9868 177.139 53.196C177.139 52.4052 176.498 51.7642 175.707 51.7642C174.916 51.7642 174.275 52.4052 174.275 53.196C174.275 53.9868 174.916 54.6279 175.707 54.6279Z" fill="#62B2E3"/>
<path d="M184.311 54.6279C185.102 54.6279 185.743 53.9868 185.743 53.196C185.743 52.4052 185.102 51.7642 184.311 51.7642C183.52 51.7642 182.879 52.4052 182.879 53.196C182.879 53.9868 183.52 54.6279 184.311 54.6279Z" fill="#62B2E3"/>
<path d="M158.496 63.0937C159.287 63.0937 159.928 62.4526 159.928 61.6618C159.928 60.871 159.287 60.23 158.496 60.23C157.706 60.23 157.064 60.871 157.064 61.6618C157.064 62.4526 157.706 63.0937 158.496 63.0937Z" fill="#62B2E3"/>
<path d="M167.102 63.0937C167.893 63.0937 168.534 62.4526 168.534 61.6618C168.534 60.871 167.893 60.23 167.102 60.23C166.311 60.23 165.67 60.871 165.67 61.6618C165.67 62.4526 166.311 63.0937 167.102 63.0937Z" fill="#62B2E3"/>
<path d="M175.707 63.0937C176.498 63.0937 177.139 62.4526 177.139 61.6618C177.139 60.871 176.498 60.23 175.707 60.23C174.916 60.23 174.275 60.871 174.275 61.6618C174.275 62.4526 174.916 63.0937 175.707 63.0937Z" fill="#62B2E3"/>
<path d="M184.311 63.0937C185.102 63.0937 185.743 62.4526 185.743 61.6618C185.743 60.871 185.102 60.23 184.311 60.23C183.52 60.23 182.879 60.871 182.879 61.6618C182.879 62.4526 183.52 63.0937 184.311 63.0937Z" fill="#62B2E3"/>
<path d="M178.903 69.1794H157.375V85.7649H178.903V69.1794Z" fill="#A7D6F3"/>
<path d="M184.311 69.1794C183.388 69.1794 182.641 69.9278 182.641 70.8496V84.0937C182.641 85.0165 183.389 85.7638 184.311 85.7638C185.233 85.7638 185.981 85.0155 185.981 84.0937V70.8496C185.981 69.9267 185.233 69.1794 184.311 69.1794Z" fill="#A7D6F3"/>
<path d="M160.123 46.7277C162.496 46.7277 164.419 44.8041 164.419 42.4311C164.419 40.0582 162.496 38.1345 160.123 38.1345C157.75 38.1345 155.826 40.0582 155.826 42.4311C155.826 44.8041 157.75 46.7277 160.123 46.7277Z" fill="#A7D6F3"/>
<path d="M160.122 42.7363C160.29 42.7363 160.427 42.5997 160.427 42.4312C160.427 42.2626 160.29 42.126 160.122 42.126C159.953 42.126 159.816 42.2626 159.816 42.4312C159.816 42.5997 159.953 42.7363 160.122 42.7363Z" fill="white"/>
<path d="M160.123 38.8274L159.891 42.4311H160.356L160.123 38.8274Z" fill="white"/>
<path d="M171.084 46.7277C173.457 46.7277 175.38 44.8041 175.38 42.4311C175.38 40.0582 173.457 38.1345 171.084 38.1345C168.711 38.1345 166.787 40.0582 166.787 42.4311C166.787 44.8041 168.711 46.7277 171.084 46.7277Z" fill="#A7D6F3"/>
<path d="M171.083 42.7363C171.251 42.7363 171.388 42.5997 171.388 42.4312C171.388 42.2626 171.251 42.126 171.083 42.126C170.914 42.126 170.777 42.2626 170.777 42.4312C170.777 42.5997 170.914 42.7363 171.083 42.7363Z" fill="white"/>
<path d="M173.295 39.5852L170.9 42.288L171.268 42.5733L173.295 39.5852Z" fill="white"/>
<path d="M187.496 38.1345H178.902V46.7277H187.496V38.1345Z" fill="#A7D6F3"/>
<path d="M184.919 40.6011L182.898 44.2235L183.316 44.4274L184.919 40.6011Z" fill="white"/>
<path d="M187.496 44.0959H178.902V46.7276H187.496V44.0959Z" fill="#A7D6F3"/>
<path d="M160.924 115.449H126.398V92.3045H126.828V115.02H160.494V83.0664H160.924V115.449Z" fill="#62B2E3"/>
<path d="M169.258 118.028H119.908V92.3045H120.338V117.598H168.828V83.0664H169.258V118.028Z" fill="#62B2E3"/>
<path d="M160.708 83.522C160.959 83.522 161.163 83.318 161.163 83.0663C161.163 82.8146 160.959 82.6106 160.708 82.6106C160.456 82.6106 160.252 82.8146 160.252 83.0663C160.252 83.318 160.456 83.522 160.708 83.522Z" fill="#62B2E3"/>
<path d="M164.876 83.522C165.127 83.522 165.331 83.318 165.331 83.0663C165.331 82.8146 165.127 82.6106 164.876 82.6106C164.624 82.6106 164.42 82.8146 164.42 83.0663C164.42 83.318 164.624 83.522 164.876 83.522Z" fill="#62B2E3"/>
<path d="M169.044 83.522C169.295 83.522 169.499 83.318 169.499 83.0663C169.499 82.8146 169.295 82.6106 169.044 82.6106C168.792 82.6106 168.588 82.8146 168.588 83.0663C168.588 83.318 168.792 83.522 169.044 83.522Z" fill="#62B2E3"/>
<path d="M173.212 83.522C173.463 83.522 173.667 83.318 173.667 83.0663C173.667 82.8146 173.463 82.6106 173.212 82.6106C172.96 82.6106 172.756 82.8146 172.756 83.0663C172.756 83.318 172.96 83.522 173.212 83.522Z" fill="#62B2E3"/>
<path d="M103.846 21.3552L88.0703 51.167H119.62L103.846 21.3552Z" fill="#C1DFF5"/>
<path d="M119.621 51.7628H88.071C87.8619 51.7628 87.6675 51.6531 87.5599 51.4744C87.4522 51.2956 87.446 51.073 87.5442 50.888L103.32 21.0763C103.423 20.8808 103.626 20.7585 103.846 20.7585C104.067 20.7585 104.27 20.8808 104.373 21.0763L120.149 50.888C120.247 51.073 120.241 51.2956 120.133 51.4744C120.025 51.6531 119.831 51.7628 119.622 51.7628H119.621ZM89.0597 50.5703H118.63L103.845 22.6294L89.0607 50.5703H89.0597Z" fill="#73BCE8"/>
<path d="M103.083 43.8595L102.379 36.6814V33.3621H105.312V36.6814L104.617 43.8595H103.082H103.083ZM102.494 47.5071V44.796H105.205V47.5071H102.494Z" fill="#73BCE8"/>
<path d="M172.051 93.8625L173.575 91.582C174.737 92.3387 176.669 93.7654 178.264 94.7258C180.045 95.7982 181.619 96.6938 182.513 97.1516L180.121 100.731C177.495 98.9493 173.924 95.979 172.051 93.8625Z" fill="#F9C3BC"/>
<path d="M181.278 101.068C182.467 101.068 183.431 100.104 183.431 98.9147C183.431 97.7256 182.467 96.7617 181.278 96.7617C180.089 96.7617 179.125 97.7256 179.125 98.9147C179.125 100.104 180.089 101.068 181.278 101.068Z" fill="#F9C3BC"/>
<path d="M172.774 94.0674C173.531 94.0674 174.145 93.4535 174.145 92.6962C174.145 91.9389 173.531 91.325 172.774 91.325C172.016 91.325 171.402 91.9389 171.402 92.6962C171.402 93.4535 172.016 94.0674 172.774 94.0674Z" fill="#F9C3BC"/>
<path d="M172.827 94.0369C172.827 94.0369 172.058 94.1205 171.935 94.1111C171.713 94.0996 171.575 93.7892 171.358 93.8248L169.331 91.2255L169.416 89.5606L169.429 89.5188C169.443 89.4696 169.433 89.4121 169.42 89.3641C169.406 89.3233 169.379 89.2888 169.353 89.2543L169.355 89.246C169.238 89.0944 169.043 88.9659 168.928 88.8958C168.736 88.7851 168.522 88.6868 168.374 88.5175C168.224 88.3566 168.146 88.1005 168.24 87.903C168.279 87.8329 168.342 87.7713 168.418 87.7577C168.61 87.7148 168.862 87.9594 169.018 88.042C169.148 88.1162 169.291 88.1852 169.421 88.2594C169.49 88.298 169.56 88.3367 169.63 88.3743C169.644 88.3879 169.652 88.39 169.669 88.3952C169.806 88.4799 169.945 88.5572 170.082 88.6419C170.388 88.8216 170.689 88.991 170.977 89.2021C171.412 89.5271 171.616 90.0277 171.958 90.4521C172.303 90.868 173.281 91.423 173.281 91.423L172.826 94.0359L172.827 94.0369Z" fill="#F9C3BC"/>
<path d="M172.798 94.0372C173.542 94.0372 174.146 93.434 174.146 92.69C174.146 91.9459 173.542 91.3428 172.798 91.3428C172.054 91.3428 171.451 91.9459 171.451 92.69C171.451 93.434 172.054 94.0372 172.798 94.0372Z" fill="#F9C3BC"/>
<path d="M185.743 149.721L185.644 152.645C185.63 153.081 185.648 153.468 185.246 153.638L183.076 154.703C181.943 155.177 182.283 156.425 183.511 156.425H189.179V154.698L189.302 149.722H185.742L185.743 149.721Z" fill="#F9C3BC"/>
<path d="M188.599 154.562C188.687 154.511 188.89 154.394 188.957 154.368C189.184 154.276 189.411 154.498 189.411 154.74V157.622C189.411 157.864 189.214 158.062 188.971 158.062H178.297C177.978 158.062 177.721 157.804 177.721 157.486C177.721 157.448 177.728 157.402 177.736 157.365C177.774 157.19 177.895 157.039 178.07 156.963L184.427 153.882C184.78 153.708 185.05 153.843 185.118 154.157C185.23 154.673 185.677 154.987 186.736 154.973C187.504 154.964 188.174 154.804 188.6 154.563L188.599 154.562Z" fill="#213467"/>
<path d="M189.411 157.365V157.623C189.411 157.865 189.213 158.063 188.971 158.063H178.297C177.978 158.063 177.721 157.805 177.721 157.487C177.721 157.449 177.728 157.403 177.736 157.366H189.411V157.365Z" fill="#203B71"/>
<path d="M200.316 150.785L200.963 156.556H204.391L203.743 150.785H200.316Z" fill="#F9C3BC"/>
<path d="M208.028 157.889C207.926 158.257 207.58 158.539 206.86 158.591C205.838 158.656 203.111 158.554 201.751 158.363C200.92 158.253 200.634 158.051 200.605 157.537C200.597 157.412 200.59 157.273 200.583 157.118C200.568 156.478 200.578 155.75 200.611 155.021C200.618 154.867 200.795 154.779 200.919 154.881C201.287 155.175 201.522 155.275 201.92 155.3C202.356 155.328 202.745 155.095 202.73 154.707C202.714 154.302 203.053 154.178 203.796 154.178C204.237 154.178 204.516 154.185 205.133 154.73C205.824 155.348 207.567 156.758 207.86 157.03C208.044 157.2 208.132 157.552 208.03 157.89L208.028 157.889Z" fill="#213467"/>
<path d="M208.028 157.889C207.925 158.257 207.579 158.609 206.859 158.661C205.837 158.726 203.11 158.624 201.75 158.433C200.92 158.323 200.633 158.05 200.604 157.536C200.597 157.411 200.589 157.272 200.582 157.117C200.744 157.411 201.045 157.653 201.619 157.735C203.044 157.948 206.213 158.028 207.287 157.97C207.544 157.955 207.794 157.933 208.029 157.889H208.028Z" fill="#203B71"/>
<path d="M204.894 153.219L203.563 132.002L202.242 109.681L197.253 107.582L192.486 109.932L196.139 132.002L199.652 153.219H204.894Z" fill="#203B71"/>
<path d="M190.049 153.219L192.466 132.002L194.982 109.928L190.219 107.582L185.572 110.215L185.027 132.002L184.807 153.219H190.049Z" fill="#203B71"/>
<path d="M193.753 118.802C193.666 118.802 193.587 118.738 193.573 118.648L192.266 110.752C192.249 110.652 192.317 110.558 192.418 110.541C192.519 110.524 192.612 110.592 192.629 110.692L193.935 118.588C193.952 118.689 193.884 118.783 193.784 118.8C193.773 118.802 193.763 118.802 193.753 118.802Z" fill="#213467"/>
<path d="M185.476 86.5975C184.635 87.9855 185.035 89.779 186.357 90.6841C186.404 90.7165 186.452 90.7478 186.502 90.7771C187.941 91.6477 189.811 91.1889 190.683 89.7507C191.554 88.3126 191.095 86.4418 189.657 85.5702C188.219 84.6996 186.348 85.1584 185.476 86.5965V86.5975Z" fill="#F9C3BC"/>
<path d="M181.624 100.852C182.824 100.852 183.797 99.8795 183.797 98.6794C183.797 97.4794 182.824 96.5066 181.624 96.5066C180.424 96.5066 179.451 97.4794 179.451 98.6794C179.451 99.8795 180.424 100.852 181.624 100.852Z" fill="#F9C3BC"/>
<path d="M190.681 89.7507C188.351 93.6522 186.37 96.2181 183.521 99.758L183.483 99.805L179.766 97.5527C182.144 93.6804 183.633 90.8167 185.45 86.6518L185.474 86.5964L190.681 89.7507Z" fill="#F9C3BC"/>
<path d="M184.708 87.3607C185.844 85.2317 187.883 84.4426 189.669 85.4512C190.964 86.1828 191.383 88.0693 191.189 89.3464C191.132 89.7258 190.729 90.5912 190.563 90.9288C189.985 92.1077 187.31 96.5235 185.964 98.4507L180.611 95.6727C182.025 92.9647 183.525 89.5764 184.708 87.3607Z" fill="#64B5D3"/>
<path d="M202.341 106.122C202.385 106.636 202.474 107.806 202.555 109.136H185.545C185.869 104.064 186.148 99.0067 186.442 94.06L185.92 85.8347C186.979 84.9599 189.073 83.8354 190.662 83.3138L196.771 83.1299C199.072 83.7476 201.225 84.7028 202.718 85.6811L202.512 93.5761C202.211 98.736 202.005 102.669 202.343 106.124L202.341 106.122Z" fill="#64B5D3"/>
<path d="M193.199 87.0763C192.635 87.0763 192.113 86.9645 191.646 86.7429C190.738 86.3134 190.063 85.4616 189.84 84.4655C189.818 84.3662 189.88 84.268 189.979 84.2461C190.081 84.2241 190.177 84.2868 190.199 84.3851C190.397 85.2713 190.997 86.0291 191.803 86.4106C192.345 86.6677 192.996 86.7555 193.651 86.6833C194.921 86.5454 196.616 85.749 197.215 83.9597C197.247 83.8635 197.354 83.8123 197.448 83.8437C197.544 83.8761 197.596 83.9806 197.564 84.0767C196.91 86.0312 195.069 86.8997 193.692 87.0491C193.529 87.0669 193.365 87.0763 193.201 87.0763H193.199Z" fill="#35A4BE"/>
<path d="M196.765 83.1246L193.706 82.3501L190.658 83.3085V83.644C190.644 84.5595 191.266 85.3528 191.982 85.681C192.47 85.9046 193.009 85.9506 193.533 85.8952C195.017 85.7385 196.504 84.7874 196.764 83.1256L196.765 83.1246Z" fill="#F9C3BC"/>
<path d="M191.482 84.3286L191.479 83.0232L191.465 76.4618L196.123 76.4524L196.128 78.5897L196.141 84.3412L191.482 84.3286Z" fill="#F9C3BC"/>
<path d="M196.128 78.5897C195.752 80.9768 193.813 82.7693 191.479 83.0232L191.465 76.4618L196.123 76.4524L196.128 78.5908V78.5897Z" fill="#EE9A8E"/>
<path d="M202.608 108.669L202.672 110.365L185.572 110.674L185.573 108.975L202.608 108.669Z" fill="#213467"/>
<path d="M193.343 108.59C193.19 108.44 192.988 108.359 192.77 108.36L190.928 108.395C190.483 108.404 190.124 108.79 190.125 109.256L190.128 110.145C190.128 110.382 190.224 110.61 190.388 110.771C190.541 110.92 190.741 111.002 190.949 111.002L192.804 110.965C193.248 110.957 193.607 110.57 193.606 110.104L193.603 109.216C193.603 108.979 193.507 108.752 193.342 108.59H193.343ZM190.598 109.255C190.598 109.045 190.75 108.872 190.937 108.869L192.78 108.833H192.785C192.869 108.833 192.949 108.867 193.012 108.928C193.087 109.001 193.13 109.107 193.13 109.218L193.133 110.106C193.133 110.315 192.981 110.489 192.794 110.493L190.958 110.529C190.852 110.523 190.781 110.494 190.719 110.433C190.643 110.36 190.601 110.254 190.601 110.144L190.597 109.255H190.598Z" fill="#203B71"/>
<path d="M202.718 109.68H195.742C194.455 109.68 193.389 108.68 193.294 107.409C193.279 107.343 193.279 107.269 193.279 107.203L193.294 104.373V104.159L193.352 93.0672C193.948 90.0823 196.282 85.4564 198.116 83.4006L198.543 83.4957C199.396 83.6797 200.054 84.0413 200.803 84.5555C200.604 84.7008 200.431 84.8555 200.292 85.0175H200.285C198.469 86.9949 198.08 89.0455 198.167 91.0302C198.211 92.3314 198.461 93.6034 198.638 94.8084C199.115 98.0944 201.99 99.5649 201.99 99.5649L202.717 109.68H202.718Z" fill="#FFD582"/>
<path d="M189.048 83.8355L189.036 83.8387C188.236 84.0142 187.496 84.3926 186.885 84.9361C187.589 87.3974 187.163 91.3982 186.624 93.4321L185.141 109.681H189.005C190.343 109.681 191.438 108.611 191.466 107.271L191.737 93.0798C191.347 89.9852 190.22 86.1986 189.048 83.8345V83.8355Z" fill="#FFD582"/>
<path d="M201.081 105.583L193.289 105.425L193.296 104.162L201.012 104.314L201.081 105.583Z" fill="white"/>
<path d="M201.195 107.565L193.296 107.408C193.283 107.339 193.283 107.275 193.283 107.206L193.289 106.145L201.119 106.303L201.194 107.565H201.195Z" fill="white"/>
<path d="M191.53 104.169L191.505 105.431L185.52 105.551L185.632 104.289L191.53 104.169Z" fill="white"/>
<path d="M191.494 106.151L191.469 107.269C191.469 107.319 191.462 107.37 191.456 107.42L185.338 107.54L185.452 106.272L191.494 106.151Z" fill="white"/>
<path d="M197.666 88.9598C197.94 90.6111 199.456 91.7461 201.099 91.5664C201.158 91.5601 201.216 91.5517 201.276 91.5423C202.986 91.2591 204.143 89.6423 203.858 87.9324C203.575 86.2225 201.958 85.0656 200.249 85.3498C198.539 85.6331 197.382 87.2499 197.666 88.9598Z" fill="#F9C3BC"/>
<path d="M205.362 103.335C206.08 102.327 205.846 100.928 204.838 100.21C203.83 99.4918 202.431 99.7267 201.712 100.735C200.994 101.743 201.229 103.142 202.237 103.86C203.245 104.578 204.644 104.343 205.362 103.335Z" fill="#F9C3BC"/>
<path d="M203.857 87.9333C204.684 91.9457 205.743 97.7201 205.744 101.603L205.746 101.666L201.325 102.399C200.442 97.9824 199.299 93.4392 197.683 89.0213L197.664 88.9618L203.857 87.9344V87.9333Z" fill="#F9C3BC"/>
<path d="M196.944 88.7737C196.666 86.9991 198.034 85.3122 199.998 85.0049C201.521 84.7666 202.869 85.4836 203.567 86.6186C203.774 86.9562 203.894 87.3304 203.987 87.7077C204.314 89.0214 204.704 90.2871 204.981 91.6176C205.369 93.479 205.747 96.4378 205.945 98.3305L199.679 99.5617C199.053 96.4838 197.913 92.7254 197.176 89.7196L196.944 88.7727V88.7737Z" fill="#64B5D3"/>
<path d="M199.681 99.7467C199.688 99.7467 199.696 99.7467 199.703 99.7456L200.574 99.6411C200.675 99.6296 200.746 99.5377 200.735 99.4373C200.722 99.3359 200.628 99.2649 200.531 99.2764L199.843 99.3589L199.003 92.3544C198.99 92.253 198.893 92.183 198.799 92.1934C198.698 92.2049 198.626 92.2969 198.638 92.3972L199.5 99.5836C199.505 99.6317 199.531 99.6767 199.569 99.7059C199.602 99.731 199.641 99.7446 199.683 99.7446L199.681 99.7467Z" fill="#35A4BE"/>
<path d="M198.376 91.0886C198.472 92.5758 198.64 94.6296 198.86 96.0949C197.318 93.968 196.235 89.7717 196.765 87.9333C197.665 84.8156 199.725 84.6641 200.375 84.9222C198.996 86.2464 198.248 89.106 198.376 91.0886Z" fill="#FFD582"/>
<path d="M189.702 78.5534C190.232 78.4235 190.544 77.8351 190.398 77.2391C190.252 76.6432 189.704 76.2653 189.173 76.3952C188.643 76.5251 188.331 77.1135 188.477 77.7095C188.623 78.3055 189.171 78.6833 189.702 78.5534Z" fill="#EE9A8E"/>
<path d="M197.115 75.6612C197.029 77.5665 196.54 79.1666 195.461 80.589C195.05 81.1304 194.494 81.5798 193.853 81.8536C192.642 82.371 191.04 82.2236 190.192 81.2391C189.436 80.3612 189.147 79.1352 189.053 77.9709C188.952 76.7408 188.95 75.5023 189.067 74.2753C189.233 72.5372 190.969 71.1973 193.341 71.3123C196.008 71.4419 197.214 73.4371 197.115 75.6622V75.6612Z" fill="#F9C3BC"/>
<path d="M193.341 71.0949C190.963 70.9842 189.035 72.3428 188.853 74.2534C188.824 74.4823 188.841 74.5324 188.841 74.5324C190.486 75.1919 192.878 75.1835 194.591 74.6871L194.602 74.6704C194.701 75.2295 195.056 75.7709 195.435 75.9925L195.353 77.7295L195.898 77.7546L197.032 77.8079C197.198 77.1495 197.296 76.4409 197.331 75.6706C197.45 73.0138 195.888 71.2183 193.341 71.0949Z" fill="#213467"/>
<path d="M190.226 77.0231C190.062 76.9823 189.896 77.0816 189.855 77.2457C189.814 77.4098 189.913 77.5759 190.077 77.6167C190.242 77.6575 190.408 77.5582 190.449 77.3941C190.489 77.23 190.39 77.0638 190.226 77.0231Z" fill="#213467"/>
<path d="M192.704 77.139C192.54 77.0983 192.374 77.1976 192.333 77.3616C192.293 77.5257 192.392 77.6919 192.556 77.7327C192.72 77.7734 192.886 77.6741 192.927 77.5101C192.968 77.346 192.868 77.1798 192.704 77.139Z" fill="#213467"/>
<path d="M193.674 76.2612C193.662 76.1964 193.582 76.1567 193.507 76.1421C193.154 76.0731 192.799 76.0992 192.45 76.1609C192.327 76.1828 191.994 76.2121 192.039 76.3783C192.069 76.4859 192.259 76.5716 192.38 76.5654C192.652 76.5518 192.922 76.5309 193.193 76.5026C193.346 76.487 193.715 76.4744 193.675 76.2623L193.674 76.2612Z" fill="#213467"/>
<path d="M190.702 76.1765C190.38 76.0239 190.027 75.9643 189.671 75.9403C189.572 75.934 189.466 75.9152 189.369 75.933C189.324 75.9413 189.281 75.956 189.253 75.9873C189.218 76.0239 189.205 76.1159 189.223 76.1619C189.24 76.2079 189.284 76.2434 189.332 76.2674C189.471 76.3354 189.645 76.3531 189.797 76.3793C189.963 76.4075 190.129 76.4336 190.295 76.4566C190.448 76.4785 190.808 76.5548 190.831 76.3354C190.838 76.2685 190.772 76.2099 190.703 76.1765H190.702Z" fill="#213467"/>
<path d="M191.087 79.1664C191.074 79.1664 191.063 79.1633 191.05 79.157C190.869 79.0692 190.753 78.9522 190.704 78.809C190.66 78.6794 190.675 78.5383 190.749 78.3899C190.79 78.3063 190.852 78.2039 190.922 78.0889C191.007 77.9478 191.104 77.7879 191.185 77.6259C191.207 77.581 191.261 77.5611 191.308 77.5841C191.353 77.6071 191.372 77.6614 191.349 77.7074C191.266 77.8778 191.166 78.0408 191.078 78.1851C191.012 78.2948 190.952 78.393 190.912 78.4725C190.861 78.5749 190.85 78.669 190.877 78.7505C190.908 78.8445 190.996 78.9281 191.13 78.9929C191.175 79.0149 191.194 79.0703 191.173 79.1152C191.156 79.1497 191.121 79.1685 191.086 79.1664H191.087Z" fill="#EE9A8E"/>
<path d="M190.957 79.752L192.801 79.6099C192.482 80.3895 191.254 80.4951 190.957 79.752Z" fill="white"/>
<path d="M197.665 74.8344C197.711 75.3173 197.682 75.7928 197.584 76.2527V76.26C197.533 76.5129 197.452 76.7533 197.362 76.9937C195.911 75.0915 193.551 73.9523 191.001 74.1969C190.027 74.2899 189.124 74.5794 188.318 75.009C188.335 74.7153 188.382 74.4174 188.453 74.1404C188.855 72.5414 190.074 71.2464 191.688 70.7845C191.965 70.6977 192.252 70.6402 192.549 70.612C192.928 70.5754 193.305 70.5848 193.671 70.6465C195.762 70.9412 197.455 72.6323 197.666 74.8323L197.665 74.8344Z" fill="#FFD582"/>
<path d="M191.761 71.2171L191.688 70.7865C191.818 70.6841 192.096 70.5419 192.37 70.5158C192.644 70.4897 193.332 70.4604 193.895 70.5743L194.256 70.7698L193.534 71.1303L191.761 71.216V71.2171Z" fill="#FFD582"/>
<path d="M191.69 70.7864C190.67 71.4061 189.717 72.6614 189.488 73.625C189.187 73.672 188.695 73.927 188.455 74.1434C188.856 72.5443 190.076 71.2494 191.69 70.7874V70.7864Z" fill="#FDC156"/>
<path d="M193.671 70.6484C192.829 71.1647 192.091 72.3228 191.916 73.3658C192.34 73.3846 192.928 73.4505 193.621 73.6511C193.735 73.508 193.878 73.37 194.019 73.2603C194.248 73.0826 194.552 73.0356 194.824 73.1359C195.194 73.2728 195.592 73.4724 195.907 73.6982C196.133 73.8591 196.283 74.11 196.303 74.3859C196.319 74.6263 196.306 74.8635 196.294 75.0098C196.873 75.4551 197.3 75.9055 197.584 76.2525C197.682 75.7926 197.711 75.3171 197.665 74.8342C197.454 72.6332 195.761 70.9432 193.67 70.6484H193.671Z" fill="#FDC156"/>
<path d="M197.496 76.8098C196.327 75.1971 194.668 74.3108 192.65 73.8844C190.935 73.5238 189.276 73.7935 188.277 74.2492C188.054 74.3526 187.862 74.4613 187.715 74.5658C186.894 75.1626 188.317 75.5483 189 75.5399L189.019 74.916C189.757 74.6651 191.586 74.431 193.359 74.8679C194.805 75.2232 196.46 76.0688 197.245 77.0878C197.284 77.1379 197.314 77.1766 197.347 77.2184L197.496 76.8087V76.8098Z" fill="#FDC156"/>
<path d="M195.876 77.3198L195.898 77.7557L196.079 78.8646L196.129 80.2556C196.321 79.8439 196.906 78.3859 197.031 77.809L195.875 77.3209L195.876 77.3198Z" fill="#213467"/>
<path d="M197.183 78.0927C197.384 77.5129 197.129 76.898 196.613 76.7193C196.097 76.5405 195.516 76.8656 195.315 77.4453C195.114 78.0251 195.369 78.64 195.885 78.8188C196.401 78.9976 196.982 78.6725 197.183 78.0927Z" fill="#F9C3BC"/>
<path d="M195.706 77.9237H195.701C195.651 77.9175 195.614 77.8725 195.62 77.8223C195.63 77.7272 195.658 77.6353 195.702 77.5475C195.853 77.2527 196.175 77.0719 196.47 77.1231C196.522 77.1315 196.572 77.1472 196.619 77.1691C196.713 77.212 196.794 77.282 196.854 77.3708C196.882 77.4127 196.871 77.4701 196.829 77.4984C196.787 77.5276 196.73 77.5161 196.701 77.4733C196.661 77.4116 196.606 77.3656 196.541 77.3353C196.508 77.3196 196.474 77.3092 196.439 77.304C196.227 77.2716 195.981 77.4053 195.866 77.6311C195.832 77.698 195.81 77.7701 195.803 77.8433C195.797 77.8924 195.754 77.9269 195.706 77.9248V77.9237Z" fill="#EE9A8E"/>
<path d="M186.217 98.1204H186.21C186.109 98.1163 186.03 98.0306 186.033 97.9292L186.309 91.1347C186.313 91.0333 186.4 90.956 186.5 90.958C186.602 90.9622 186.68 91.0479 186.677 91.1493L186.401 97.9438C186.397 98.0421 186.315 98.1204 186.217 98.1204Z" fill="#35A4BE"/>
<g style="mix-blend-mode:multiply" opacity="0.7">
<path d="M171.518 66.6939C171.603 67.0315 171.673 67.3732 171.728 67.7192C171.814 68.2219 171.877 68.7235 171.91 69.2336C172.084 71.4911 171.767 73.8228 170.89 76.0688C170.853 76.1828 170.807 76.2904 170.762 76.4064C170.569 76.8736 170.358 77.3303 170.112 77.7735C169.627 78.7131 169.042 79.5878 168.388 80.3811C167.99 80.8702 167.566 81.3259 167.119 81.7586C166.87 82.0063 166.606 82.2342 166.343 82.462C163.936 84.4927 160.963 85.7605 157.831 86.0918C156.483 86.2475 155.104 86.2235 153.726 86.0103C152.511 85.819 151.294 85.4877 150.108 84.9965C144.154 82.5404 140.502 76.8715 140.323 70.8264C140.284 69.475 140.418 68.0954 140.748 66.7367C140.935 65.933 141.193 65.1314 141.519 64.3412C142.824 61.1724 145.041 58.663 147.731 56.974C148.621 56.418 149.555 55.9519 150.533 55.5829C151.114 55.3634 151.713 55.1774 152.32 55.0206C154.542 54.4636 156.901 54.3935 159.23 54.8607C159.306 54.8774 159.372 54.8889 159.448 54.9067C159.785 54.9799 160.124 55.0603 160.462 55.1649C161.035 55.3175 161.607 55.5181 162.173 55.7522C167.041 57.7662 170.38 61.928 171.519 66.696L171.518 66.6939Z" fill="#C1DFF5"/>
<path d="M170.11 77.7723C169.625 78.7119 169.041 79.5867 168.387 80.38L147.729 56.9729C148.619 56.4169 149.552 55.9507 150.531 55.5818L170.11 77.7723Z" fill="#E2F2FB"/>
<path d="M157.829 86.0897C156.481 86.2454 155.102 86.2214 153.724 86.0082L140.321 70.8243C140.282 69.4729 140.416 68.0933 140.746 66.7346L157.83 86.0897H157.829Z" fill="#E2F2FB"/>
<path d="M171.91 69.2324C172.083 71.4899 171.766 73.8216 170.89 76.0676L152.318 55.0194C154.54 54.4623 156.899 54.3923 159.228 54.8595L171.91 69.2334V69.2324Z" fill="#E2F2FB"/>
</g>
<path d="M168.287 80.7258L165.229 83.4941L193.59 114.827L196.648 112.059L168.287 80.7258Z" fill="#8ECBEE"/>
<path d="M172.167 85.1054L169.202 87.7888C168.711 88.2335 168.673 88.9923 169.118 89.4835L192.371 115.173C192.816 115.665 193.574 115.702 194.066 115.258L197.03 112.574C197.522 112.13 197.559 111.371 197.115 110.88L173.861 85.1897C173.417 84.6985 172.658 84.6607 172.167 85.1054Z" fill="#52A8DC"/>
<path d="M164.114 83.9503L164.962 84.8867C165.196 85.1449 165.595 85.1647 165.853 84.9306L169.661 81.4837C169.919 81.2496 169.939 80.8504 169.705 80.5922L168.857 79.6558L164.113 83.9492L164.114 83.9503Z" fill="#52A8DC"/>
<path d="M167.431 82.8498C160.552 89.0768 149.889 88.5469 143.662 81.6667C137.434 74.7865 137.964 64.1239 144.844 57.8969C151.724 51.6689 162.386 52.1998 168.614 59.079C174.842 65.9592 174.312 76.6217 167.432 82.8498H167.431ZM146.199 59.3946C140.146 64.8743 139.68 74.2566 145.159 80.3111C150.64 86.3646 160.022 86.8318 166.076 81.3521C172.129 75.8713 172.596 66.489 167.117 60.4356C161.636 54.3821 152.254 53.9149 146.2 59.3946H146.199Z" fill="#52A8DC"/>
<path d="M195.029 112.309C195.825 112.309 196.47 111.664 196.47 110.868C196.47 110.072 195.825 109.427 195.029 109.427C194.233 109.427 193.588 110.072 193.588 110.868C193.588 111.664 194.233 112.309 195.029 112.309Z" fill="#F9C3BC"/>
<path d="M194.351 109.608C194.249 109.667 193.97 109.723 193.871 109.723C193.773 109.723 193.241 109.626 193.078 109.561C192.784 109.441 192.48 109.318 192.14 109.31L192.009 109.308C191.721 109.308 191.435 109.331 191.15 109.355L190.662 109.394C190.529 109.405 190.397 109.422 190.266 109.438L190.012 109.469C189.984 109.471 189.954 109.472 189.92 109.472H189.811C189.647 109.472 189.464 109.48 189.362 109.587C189.3 109.653 189.272 109.75 189.286 109.853C189.32 110.104 189.553 110.265 189.769 110.313C189.843 110.33 189.925 110.338 190.016 110.338C190.113 110.338 190.211 110.329 190.308 110.319L190.413 110.31C190.454 110.307 190.506 110.304 190.562 110.304C190.698 110.304 190.815 110.319 190.901 110.349C190.988 110.377 191.038 110.417 191.059 110.475C191.068 110.497 191.07 110.526 191.066 110.561C191.01 111.003 190.5 111.323 190.048 111.559C189.902 111.635 189.755 111.712 189.607 111.806C189.482 111.885 189.353 111.968 189.241 112.009L189.203 111.948L189.152 111.868L189.092 111.939C188.974 112.077 188.988 112.289 189.022 112.442C189.059 112.616 189.137 112.767 189.248 112.879C189.348 112.982 189.475 113.05 189.608 113.073C189.549 113.282 189.603 113.532 189.7 113.692C189.768 113.802 189.86 113.895 189.961 113.952C190.036 113.995 190.124 114.014 190.203 114.032L190.232 114.038C190.257 114.194 190.337 114.34 190.454 114.447C190.561 114.545 190.701 114.608 190.815 114.608C190.836 114.608 190.857 114.605 190.876 114.601C190.891 114.626 190.928 114.732 190.955 114.804L190.984 114.88C191.081 115.103 191.272 115.23 191.509 115.23H191.544C192.326 115.192 192.957 114.82 193.587 114.408C194.08 114.086 194.398 113.686 194.701 113.296C195.008 112.9 195.66 112.193 195.856 112.035L194.352 109.608H194.351Z" fill="#F9C3BC"/>
<path d="M196.077 111.848L194.053 109.818C195.281 108.593 196.955 106.658 198.566 104.7C199.937 103.034 201.199 101.618 201.944 100.875L205.122 104.061C202.039 106.937 199.147 109.346 196.096 111.832L196.076 111.848H196.077Z" fill="#F9C3BC"/>
<path d="M203.498 104.754C204.741 104.754 205.748 103.747 205.748 102.504C205.748 101.261 204.741 100.254 203.498 100.254C202.255 100.254 201.248 101.261 201.248 102.504C201.248 103.747 202.255 104.754 203.498 104.754Z" fill="#F9C3BC"/>
<path d="M195.03 112.302C195.822 112.302 196.464 111.66 196.464 110.868C196.464 110.076 195.822 109.434 195.03 109.434C194.238 109.434 193.596 110.076 193.596 110.868C193.596 111.66 194.238 112.302 195.03 112.302Z" fill="#F9C3BC"/>
<path d="M169.653 92.5499C169.673 92.6742 169.689 92.8028 169.747 92.9115C169.859 93.1174 170.099 93.2125 170.319 93.2919C170.285 93.5522 170.45 93.8093 170.671 93.9504C170.893 94.0925 171.162 94.1385 171.423 94.1636C171.741 94.1939 172.242 94.2242 172.521 94.0361C172.748 93.8835 172.656 93.5762 172.418 93.503C172.306 93.4685 172.188 93.4717 172.071 93.4665C171.908 93.4591 171.747 93.4351 171.589 93.3964C171.795 93.3254 172.001 93.2543 172.208 93.1832C172.31 93.1477 172.413 93.1122 172.502 93.0515C172.682 92.9293 172.783 92.6962 172.627 92.5248C172.421 92.298 172.12 92.3513 171.846 92.3325C171.718 92.3241 171.59 92.3137 171.462 92.3011C171.401 92.2948 171.188 92.2321 171.141 92.2593C171.305 92.1653 171.491 92.1161 171.667 92.0492C171.844 91.9824 172.022 91.8883 172.129 91.7326C172.237 91.5768 172.254 91.3448 172.124 91.2068C171.997 91.072 171.787 91.0699 171.601 91.0773C171.215 91.0929 170.829 91.1086 170.444 91.1243C170.694 91.0198 170.945 90.9153 171.196 90.8097C171.337 90.7512 171.513 90.6895 171.56 90.5348C171.602 90.399 171.556 90.2077 171.453 90.1115C171.34 90.006 171.175 89.983 171.021 89.9663C170.565 89.915 170.086 89.8105 169.629 89.8074C169.006 89.8032 168.397 90.2558 168.829 90.9299C168.88 91.0104 168.946 91.0804 168.991 91.164C169.122 91.4096 169.066 91.7388 169.246 91.952C169.331 92.0534 169.459 92.113 169.539 92.2186C169.612 92.3137 169.636 92.4297 169.655 92.5488L169.653 92.5499Z" fill="#F9C3BC"/>
<path d="M53.874 78.3577L53.9147 78.341L53.9304 78.3169L54.7592 77.0575C55.3037 77.44 55.9643 77.6658 56.6802 77.6658C58.5291 77.6658 60.0289 76.1671 60.0289 74.3171C60.0289 72.8278 59.0569 71.5674 57.7128 71.1326L58.8019 70.54L58.8343 70.5222L58.8437 70.471L59.0339 69.4677C59.1886 69.5429 59.3411 69.6223 59.4875 69.7122L60.7657 68.9001L60.8221 68.944C61.0562 69.1238 61.2768 69.3172 61.4785 69.5189C61.6823 69.7227 61.8756 69.9432 62.0533 70.1752L62.0962 70.2317L61.2851 71.5099C61.5715 71.9792 61.7878 72.4965 61.9206 73.0462L63.3995 73.3765L63.4089 73.4476C63.4475 73.7381 63.4663 74.0318 63.4663 74.3182C63.4663 74.6046 63.4475 74.8972 63.4089 75.1888L63.3995 75.2599L61.9206 75.5901C61.7878 76.1399 61.5715 76.6562 61.2851 77.1265L62.0962 78.4047L62.0533 78.4612C61.8756 78.6932 61.6823 78.9137 61.4785 79.1165C61.2778 79.3171 61.0573 79.5105 60.8221 79.6913L60.7657 79.7352L59.4875 78.9231C59.0182 79.2095 58.5009 79.4258 57.9511 79.5586L57.6208 81.0374L57.5498 81.0468C57.2582 81.0845 56.9655 81.1043 56.6792 81.1043C56.3938 81.1043 56.1012 81.0855 55.8096 81.0468L55.7385 81.0374L55.4083 79.5586C54.8585 79.4258 54.3412 79.2095 53.8719 78.9231L52.5937 79.7352L52.5372 79.6913C52.3136 79.5188 52.1035 79.3338 51.9102 79.1426L53.8729 78.3577H53.874Z" fill="#73BCE8"/>
<path d="M49.7244 73.2313L49.7338 73.1602L51.2127 72.8299C51.3454 72.2802 51.5618 71.7628 51.8481 71.2936L51.0361 70.0154L51.08 69.9589C51.2576 69.7269 51.452 69.5064 51.6548 69.3026C51.8555 69.1009 52.076 68.9085 52.3111 68.7277L52.3676 68.6838L53.6458 69.4959C54.1151 69.2095 54.6324 68.9932 55.1822 68.8605L55.5124 67.3816L55.5835 67.3722C55.8751 67.3346 56.1677 67.3147 56.4531 67.3147C56.7394 67.3147 57.0321 67.3335 57.3237 67.3722L57.3947 67.3816L57.725 68.8605C57.9758 68.9211 58.2194 69.0016 58.4556 69.0956L58.4326 70.1972L57.4773 70.9121C57.1544 70.8086 56.8115 70.7511 56.4541 70.7511C54.6052 70.7511 53.1055 72.2499 53.1055 74.0998C53.1055 75.2296 53.6667 76.2277 54.5248 76.8339L53.5455 77.9198L51.3036 78.5124C51.2273 78.4236 51.1521 78.3347 51.081 78.2417L51.0371 78.1853L51.8492 76.9071C51.5618 76.4378 51.3465 75.9204 51.2137 75.3707L49.7349 75.0404L49.7255 74.9693C49.6868 74.6788 49.668 74.3862 49.668 74.0987C49.668 73.8113 49.6868 73.5197 49.7255 73.2281L49.7244 73.2313Z" fill="#73BCE8"/>
<path d="M58.8184 67.9973V68.9024L59.1204 68.1478L58.8184 67.9973Z" fill="#73BCE8"/>
<path d="M51.5085 78.9097L50.2773 79.2493L50.4508 79.5159L51.5085 78.9097Z" fill="#73BCE8"/>
<path d="M57.1616 84.125L57.1292 83.5889C57.7208 83.5533 58.3102 83.4624 58.8798 83.3182L59.0126 83.8397C58.4095 83.9923 57.7866 84.0884 57.1616 84.1261V84.125ZM55.7569 84.1104C55.134 84.0602 54.5132 83.9505 53.9123 83.7843L54.0554 83.2659C54.624 83.4227 55.2103 83.5272 55.7998 83.5742L55.7569 84.1104ZM60.3472 83.3965L60.1424 82.8991C60.6869 82.6743 61.2147 82.3963 61.7091 82.0723L62.0038 82.5218C61.4812 82.8646 60.9231 83.1593 60.3472 83.3965ZM52.586 83.3129C52.0143 83.0631 51.4635 82.7569 50.9482 82.4026L51.2524 81.9595C51.7394 82.2939 52.2609 82.5834 52.8013 82.8207L52.586 83.3129ZM63.1221 81.671L62.7667 81.2676C63.2099 80.8777 63.6185 80.444 63.9822 79.9779L64.4066 80.3081C64.023 80.8014 63.5903 81.2603 63.1221 81.6721V81.671ZM49.8487 81.5278C49.3889 81.1056 48.9666 80.6374 48.5935 80.1367L49.0241 79.8159C49.3774 80.2893 49.7766 80.7325 50.2114 81.1317L49.8477 81.5278H49.8487ZM65.1904 79.1397L64.7243 78.8721C65.018 78.3589 65.2646 77.8165 65.4549 77.2584L65.9638 77.4329C65.7611 78.0234 65.5019 78.5972 65.1904 79.1397ZM47.8368 78.9536C47.5379 78.4049 47.2902 77.8249 47.101 77.2312L47.6132 77.0682C47.7919 77.6305 48.026 78.1781 48.3092 78.6965L47.8368 78.9536ZM66.3234 76.0743L65.7956 75.9739C65.9053 75.3959 65.9607 74.8023 65.9607 74.2097L66.3276 74.1825L66.4979 74.2045C66.4979 74.8357 66.4394 75.4628 66.3234 76.0743ZM46.7697 75.8642C46.6788 75.3217 46.6328 74.7657 46.6328 74.2097L46.6349 73.9965L47.1721 74.007L47.17 74.2097C47.17 74.7354 47.2139 75.2622 47.2996 75.7753L46.7697 75.8642ZM65.8625 72.8447C65.7778 72.2605 65.6367 71.6815 65.4423 71.1244L65.9503 70.9478C66.1551 71.5373 66.3046 72.1497 66.3944 72.7674L65.8625 72.8447ZM47.2933 72.6838L46.7624 72.597C46.8638 71.9794 47.0237 71.37 47.239 70.7848L47.7438 70.9698C47.54 71.5226 47.3885 72.0996 47.2933 72.6827V72.6838ZM64.9177 69.9027C64.647 69.379 64.3251 68.8774 63.9593 68.4123L64.3815 68.081C64.7682 68.5722 65.1089 69.1031 65.3953 69.656L64.9177 69.9027ZM48.2904 69.7574L47.817 69.5024C48.1127 68.9537 48.4629 68.429 48.8579 67.9451L49.2749 68.2837C48.9018 68.7425 48.5705 69.239 48.2904 69.7574ZM63.0667 67.4267C62.6392 67.017 62.1721 66.647 61.6777 66.3262L61.9703 65.8757C62.4929 66.2154 62.9873 66.6063 63.4388 67.039L63.0667 67.4267ZM50.1853 67.3138L49.8195 66.9198C50.2772 66.4955 50.7789 66.113 51.3078 65.7816L51.5931 66.2373C51.0925 66.5509 50.619 66.9125 50.1853 67.3138ZM60.5134 65.6813C59.9772 65.4326 59.416 65.235 58.8433 65.0918L58.9729 64.5703C59.579 64.7208 60.1737 64.9309 60.7402 65.1932L60.5144 65.6813H60.5134ZM52.7668 65.6144L52.5494 65.1232C53.1211 64.8703 53.7189 64.6707 54.3272 64.5306L54.4484 65.0542C53.8736 65.187 53.3082 65.3751 52.7678 65.6144H52.7668ZM57.5326 64.864C56.9474 64.8034 56.3433 64.7992 55.7601 64.8483L55.7151 64.3132C56.3307 64.261 56.9693 64.2662 57.588 64.3289L57.5326 64.864Z" fill="#73BCE8"/>
<path d="M55.1305 88.3535L53.4165 86.1023C52.0547 87.1391 49.9393 88.5166 47.8093 89.8303C45.997 90.9476 44.4439 91.9927 43.6172 92.6219L46.3074 96.1566C49.5327 93.527 52.2752 91.0218 55.1117 88.3713L55.1305 88.3546V88.3535Z" fill="#F9C3BC"/>
<path d="M45.0022 96.5798C46.2288 96.5798 47.2231 95.5855 47.2231 94.3589C47.2231 93.1323 46.2288 92.1379 45.0022 92.1379C43.7756 92.1379 42.7812 93.1323 42.7812 94.3589C42.7812 95.5855 43.7756 96.5798 45.0022 96.5798Z" fill="#F9C3BC"/>
<path d="M54.3136 88.6127C55.0951 88.6127 55.7287 87.9792 55.7287 87.1976C55.7287 86.416 55.0951 85.7825 54.3136 85.7825C53.532 85.7825 52.8984 86.416 52.8984 87.1976C52.8984 87.9792 53.532 88.6127 54.3136 88.6127Z" fill="#F9C3BC"/>
<path d="M54.555 86.9135C54.5007 86.9323 54.5341 87.0138 54.5885 86.995C54.9438 86.8727 55.3075 86.7745 55.6786 86.7128C55.9775 86.6637 56.2806 86.6616 56.5795 86.6166C56.8251 86.579 57.2055 86.4431 57.123 86.1265C57.0529 85.8589 56.7133 85.8359 56.4885 85.8046C56.1823 85.7627 55.3149 85.7105 54.8184 85.7387L54.5561 86.9135H54.555Z" fill="#EE9A8E"/>
<path d="M54.3166 88.6065C55.0987 88.6065 55.7327 87.9725 55.7327 87.1903C55.7327 86.4082 55.0987 85.7742 54.3166 85.7742C53.5344 85.7742 52.9004 86.4082 52.9004 87.1903C52.9004 87.9725 53.5344 88.6065 54.3166 88.6065Z" fill="#F9C3BC"/>
<path d="M54.2266 85.7732C54.861 85.6018 55.4598 85.6384 56.1371 85.978C56.8635 86.3417 58.2232 85.768 58.4625 85.537C58.7019 85.305 59.1053 85.3593 58.9151 85.792C59.19 85.6666 59.4502 85.4419 59.5516 85.3457C59.7293 85.1775 60.232 85.2611 60.0595 85.676C59.9352 85.9739 59.7293 86.185 59.7293 86.185C60.0062 86.023 60.3375 86.1714 60.2006 86.4494C60.1212 86.6103 59.3739 87.1716 58.9935 87.5102C58.7834 87.6983 58.565 87.8771 58.3005 87.9732L56.7506 88.639C56.5071 88.731 56.2447 88.7414 55.9887 88.6954C55.6166 88.6275 54.9279 88.5731 54.5391 88.5888L54.2266 85.7732Z" fill="#F9C3BC"/>
<path d="M37.9043 151.083L38.0057 154.078C38.0214 154.524 38.0005 154.921 38.4133 155.095L40.6353 156.186C41.7954 156.673 41.4474 157.95 40.1901 157.95H34.3843V156.18L34.2578 151.083H37.9043Z" fill="#F9C3BC"/>
<path d="M34.9754 156.042C34.8845 155.99 34.6765 155.87 34.6086 155.843C34.3766 155.749 34.1445 155.976 34.1445 156.224V159.176C34.1445 159.425 34.3462 159.626 34.595 159.626H45.5293C45.8554 159.626 46.1198 159.362 46.1198 159.036C46.1198 158.997 46.1125 158.95 46.1041 158.912C46.0655 158.733 45.9411 158.578 45.7624 158.5L39.2501 155.343C38.8895 155.165 38.6115 155.304 38.5425 155.625C38.4286 156.153 37.9698 156.475 36.8859 156.461C36.099 156.45 35.4123 156.287 34.9765 156.039L34.9754 156.042Z" fill="#213467"/>
<path d="M34.1445 158.913V159.177C34.1445 159.426 34.3462 159.627 34.595 159.627H45.5293C45.8554 159.627 46.1198 159.363 46.1198 159.037C46.1198 158.998 46.1125 158.951 46.1041 158.913H34.1445Z" fill="#203B71"/>
<path d="M22.9751 152.173L22.3125 158.085H18.8008L19.4634 152.173H22.9751Z" fill="#F9C3BC"/>
<path d="M15.0759 159.451C15.1815 159.827 15.5348 160.117 16.2737 160.169C17.3199 160.237 20.1135 160.131 21.5067 159.936C22.3575 159.823 22.6512 159.617 22.6815 159.089C22.6888 158.961 22.6961 158.818 22.7045 158.66C22.7191 158.004 22.7097 157.258 22.6762 156.512C22.6689 156.354 22.4881 156.263 22.3596 156.369C21.9833 156.67 21.7419 156.772 21.3353 156.798C20.888 156.826 20.4898 156.587 20.5055 156.19C20.5222 155.776 20.1742 155.647 19.4133 155.647C18.9618 155.647 18.6754 155.656 18.0431 156.213C17.3355 156.845 15.5504 158.292 15.2494 158.57C15.0613 158.743 14.9704 159.105 15.0759 159.451Z" fill="#213467"/>
<path d="M15.0762 159.451C15.1817 159.827 15.535 160.189 16.2739 160.241C17.3201 160.309 20.1138 160.203 21.507 160.008C22.3577 159.895 22.6514 159.616 22.6817 159.089C22.689 158.961 22.6963 158.819 22.7047 158.66C22.5385 158.961 22.2302 159.209 21.6428 159.292C20.1817 159.51 16.9365 159.593 15.837 159.533C15.5737 159.519 15.3176 159.496 15.0762 159.451Z" fill="#203B71"/>
<path d="M18.2852 154.667L19.6491 132.932L21.0015 110.067L26.1123 107.917L30.9952 110.324L27.2536 132.932L23.6551 154.667H18.2852Z" fill="#203B71"/>
<path d="M33.4927 154.667L31.0168 132.932L28.4395 110.321L33.3182 107.917L38.0799 110.613L38.6369 132.932L38.8627 154.667H33.4927Z" fill="#203B71"/>
<path d="M29.6963 119.41C29.7873 119.41 29.8667 119.344 29.8813 119.252L31.2202 111.164C31.2369 111.062 31.1679 110.964 31.0655 110.948C30.962 110.93 30.8659 111 30.8491 111.102L29.5103 119.191C29.4936 119.293 29.5626 119.39 29.665 119.407C29.6754 119.409 29.6859 119.409 29.6963 119.409V119.41Z" fill="#213467"/>
<path d="M37.1 85.2132C38.4598 86.1705 38.8214 88.0163 37.9529 89.4105C37.9215 89.4606 37.8891 89.5098 37.8557 89.5578C36.8649 90.9657 34.9198 91.3043 33.511 90.3124C32.1032 89.3216 31.7645 87.3766 32.7564 85.9678C33.7472 84.56 35.6922 84.2213 37.1011 85.2132H37.1Z" fill="#F9C3BC"/>
<path d="M46.973 95.4241C47.5602 94.3439 47.1606 92.9922 46.0804 92.405C45.0002 91.8178 43.6485 92.2174 43.0613 93.2976C42.4741 94.3778 42.8737 95.7295 43.9539 96.3167C45.0341 96.9039 46.3857 96.5043 46.973 95.4241Z" fill="#F9C3BC"/>
<path d="M33.5117 90.3114C37.3014 93.0152 39.5527 94.0028 43.681 96.1537L43.7364 96.183L46.2991 92.5417C42.4759 89.886 40.5644 88.4155 37.1467 85.2549L37.1007 85.2131L33.5117 90.3124V90.3114Z" fill="#F9C3BC"/>
<path d="M38.1332 85.6122C36.1913 84.0811 33.9547 84.1793 32.6942 85.8589C31.7797 87.0775 32.1623 89.0205 32.8688 90.1388C33.0788 90.4711 33.7906 91.1452 34.1062 91.3668C35.3165 92.2134 39.1104 94.5367 41.2373 95.7637L44.7322 91.1222C42.2918 89.1626 40.1534 87.204 38.1342 85.6122H38.1332Z" fill="#64B5D3"/>
<path d="M20.9011 106.421C20.8562 106.948 20.7653 108.146 20.6827 109.508H38.1074C37.7761 104.313 37.4897 99.1322 37.1887 94.0643L37.358 85.0991C36.3369 84.4897 34.4933 83.5899 32.867 83.0558L26.6097 82.8677C24.2529 83.5 22.0466 84.4793 20.5176 85.4805L20.7287 93.5679C21.037 98.8542 21.2481 102.882 20.9022 106.422L20.9011 106.421Z" fill="#64B5D3"/>
<path d="M30.2659 86.9114C30.8438 86.9114 31.379 86.7965 31.8566 86.5707C32.7868 86.1307 33.4776 85.258 33.7065 84.2379C33.7284 84.1366 33.6657 84.0362 33.5644 84.0132C33.4609 83.9913 33.3626 84.055 33.3397 84.1554C33.1358 85.0636 32.5223 85.8391 31.6956 86.23C31.1407 86.4934 30.4739 86.5833 29.8029 86.509C28.5017 86.368 26.7657 85.5527 26.1522 83.7196C26.1187 83.6203 26.01 83.568 25.9139 83.6004C25.8146 83.6338 25.7623 83.7404 25.7947 83.8387C26.4647 85.8412 28.3501 86.7306 29.7621 86.8832C29.9293 86.902 30.0966 86.9114 30.2659 86.9114Z" fill="#35A4BE"/>
<path d="M26.6133 82.8633L29.7466 82.0701L32.8685 83.0525V83.3953C32.8842 84.3328 32.2466 85.1459 31.5129 85.4814C31.0133 85.7103 30.4605 85.7573 29.9243 85.7009C28.4036 85.541 26.8808 84.5669 26.6143 82.8633H26.6133Z" fill="#F9C3BC"/>
<path d="M32.0241 84.0969L32.0272 82.7591L32.0419 76.0377L27.2697 76.0283L27.2645 78.2179L27.252 84.1094L32.0241 84.0969Z" fill="#F9C3BC"/>
<path d="M27.2656 78.2179C27.6502 80.6635 29.6371 82.4999 32.0284 82.7591L32.043 76.0377L27.2708 76.0283L27.2656 78.2179Z" fill="#EE9A8E"/>
<path d="M20.6293 109.03L20.5645 110.768L38.0811 111.085L38.079 109.343L20.6293 109.03Z" fill="#213467"/>
<path d="M29.8508 109.59L29.8477 110.5C29.8466 110.978 30.2145 111.373 30.6702 111.382L32.5703 111.42C32.7835 111.42 32.9873 111.336 33.144 111.184C33.3134 111.019 33.4106 110.785 33.4106 110.542L33.4137 109.632C33.4147 109.154 33.0469 108.758 32.5912 108.75L30.7036 108.713C30.4821 108.713 30.273 108.796 30.1173 108.949C29.948 109.114 29.8508 109.349 29.8497 109.591L29.8508 109.59ZM32.9267 110.541C32.9267 110.654 32.8828 110.763 32.8054 110.837C32.7417 110.899 32.6685 110.929 32.5609 110.935L30.6806 110.897C30.4883 110.893 30.3336 110.716 30.3336 110.501L30.3368 109.591C30.3368 109.478 30.3807 109.369 30.458 109.295C30.5228 109.233 30.6054 109.198 30.69 109.198H30.6963L32.5839 109.235C32.7751 109.238 32.9308 109.415 32.9298 109.631L32.9267 110.541Z" fill="#203B71"/>
<path d="M20.5158 110.066H27.6614C28.9794 110.066 30.0705 109.042 30.1687 107.74C30.1834 107.672 30.1834 107.597 30.1834 107.529L30.1687 104.629V104.411L30.1081 93.0482C29.4978 89.9901 27.1075 85.2514 25.2283 83.1465L24.7915 83.2447C23.9177 83.4329 23.2436 83.8039 22.4754 84.3306C22.6803 84.4801 22.8558 84.6379 22.999 84.803H23.0064C24.8667 86.8285 25.2649 88.9293 25.175 90.9631C25.1301 92.2957 24.874 93.599 24.6932 94.8333C24.2041 98.1997 20.9474 99.7946 20.9474 99.7946L20.5137 110.067L20.5158 110.066Z" fill="#FFD582"/>
<path d="M34.5175 83.5906L34.5311 83.5937C35.3494 83.7745 36.1082 84.1612 36.7353 84.7183C36.0131 87.2402 36.451 91.3372 37.0029 93.4223L38.5215 110.067H34.5635C33.1912 110.067 32.0708 108.971 32.0426 107.599L31.7656 93.0617C32.1649 89.8918 33.3187 86.0122 34.5196 83.5916L34.5175 83.5906Z" fill="#FFD582"/>
<path d="M22.1895 105.869L30.1712 105.707L30.165 104.413L22.2605 104.569L22.1895 105.869Z" fill="white"/>
<path d="M22.0742 107.9L30.1657 107.738C30.1783 107.667 30.1783 107.602 30.1783 107.531L30.172 106.444L22.1516 106.606L22.0742 107.9Z" fill="white"/>
<path d="M31.9746 104.42L31.9997 105.713L38.1316 105.837L38.0156 104.543L31.9746 104.42Z" fill="white"/>
<path d="M32.0137 106.451L32.0398 107.596C32.0398 107.647 32.0461 107.699 32.0523 107.751L38.3201 107.875L38.2041 106.575L32.0147 106.451H32.0137Z" fill="white"/>
<path d="M25.363 89.4186C24.8551 91.0564 23.1577 91.997 21.5148 91.5852C21.4562 91.5706 21.3977 91.5539 21.3392 91.5361C19.6429 91.0093 18.695 89.2086 19.2217 87.5123C19.7485 85.816 21.5493 84.8681 23.2455 85.3948C24.9418 85.9216 25.8898 87.7224 25.363 89.4186Z" fill="#F9C3BC"/>
<path d="M18.7879 103.818C19.868 103.154 20.2057 101.741 19.5423 100.661C18.8789 99.5805 17.4654 99.2427 16.3854 99.9062C15.3053 100.57 14.9675 101.983 15.6309 103.063C16.2944 104.143 17.7078 104.481 18.7879 103.818Z" fill="#F9C3BC"/>
<path d="M19.2221 87.5132C17.8227 91.4691 15.9425 97.1829 15.4011 101.122L15.3906 101.186L19.775 102.547C21.2863 98.1873 23.0798 93.736 25.3373 89.4781L25.3645 89.4195L19.2232 87.5142L19.2221 87.5132Z" fill="#F9C3BC"/>
<path d="M26.1205 89.3307C26.6494 87.5686 25.4976 85.6654 23.5463 85.0801C22.0351 84.6265 20.5656 85.1658 19.6991 86.2204C19.442 86.5339 19.2685 86.8966 19.1201 87.2665C18.6049 88.5542 18.0332 89.7843 17.566 91.096C16.9128 92.9312 16.1174 95.8806 15.6523 97.7744L21.8396 99.8971C22.9046 96.861 24.5852 93.2051 25.7516 90.2578L26.1195 89.3297L26.1205 89.3307Z" fill="#64B5D3"/>
<path d="M21.8146 100.085C21.8072 100.085 21.7999 100.083 21.7926 100.081L20.9241 99.8533C20.8238 99.8272 20.7631 99.7247 20.7893 99.6234C20.8165 99.523 20.921 99.4634 21.0192 99.4885L21.7059 99.6683L23.5349 92.6773C23.561 92.577 23.6697 92.5185 23.7648 92.5425C23.8651 92.5686 23.9258 92.671 23.8996 92.7724L22.0225 99.9453C22.01 99.9933 21.9787 100.035 21.9358 100.06C21.8992 100.081 21.8564 100.089 21.8156 100.084L21.8146 100.085Z" fill="#35A4BE"/>
<path d="M24.9615 91.0208C24.8633 92.5435 24.6908 94.6474 24.4661 96.1483C26.0453 93.9702 27.1553 89.6704 26.6118 87.7881C25.69 84.5942 23.5798 84.4395 22.9141 84.7039C24.3271 86.0605 25.0932 88.99 24.9625 91.0208H24.9615Z" fill="#FFD582"/>
<path d="M34.9959 77.1427C35.1238 76.5278 34.7835 75.9371 34.2359 75.8232C33.6883 75.7093 33.1407 76.1154 33.0128 76.7302C32.8849 77.3451 33.2252 77.9358 33.7728 78.0497C34.3204 78.1636 34.868 77.7575 34.9959 77.1427Z" fill="#EE9A8E"/>
<path d="M26.0819 75.378C26.2377 77.3261 26.7968 78.9461 27.9527 80.3633C28.3928 80.9026 28.978 81.3426 29.6438 81.5997C30.9022 82.0857 32.5378 81.8777 33.3697 80.8378C34.1108 79.9118 34.3637 78.6461 34.4191 77.4515C34.4776 76.188 34.4347 74.9202 34.2707 73.6681C34.0386 71.8955 32.2138 70.5849 29.788 70.7887C27.0612 71.0176 25.899 73.1037 26.0809 75.378H26.0819Z" fill="#F9C3BC"/>
<path d="M29.7825 70.5673C32.2125 70.3676 34.2348 71.6898 34.4898 73.639C34.5285 73.872 34.5128 73.9243 34.5128 73.9243C32.8521 74.659 30.4033 74.7364 28.6318 74.2901L28.6203 74.2734C28.5388 74.8492 28.1939 75.4167 27.8155 75.6561L27.9608 77.4318L27.4037 77.4778L26.2447 77.5729C26.0503 76.905 25.9249 76.1828 25.8601 75.3948C25.6437 72.6785 27.178 70.7847 29.7804 70.5662L29.7825 70.5673Z" fill="#213467"/>
<path d="M33.1828 76.5243C33.3489 76.4763 33.5235 76.5724 33.5705 76.7396C33.6186 76.9058 33.5224 77.0804 33.3552 77.1284C33.189 77.1765 33.0145 77.0804 32.9675 76.9131C32.9194 76.747 33.0155 76.5724 33.1828 76.5243Z" fill="#213467"/>
<path d="M30.6515 76.7314C30.8177 76.6833 30.9922 76.7795 31.0403 76.9467C31.0884 77.1129 30.9922 77.2874 30.825 77.3355C30.6588 77.3836 30.4843 77.2874 30.4362 77.1202C30.3881 76.954 30.4843 76.7795 30.6515 76.7314Z" fill="#213467"/>
<path d="M29.6279 75.8679C29.6373 75.801 29.7188 75.7571 29.7951 75.7394C30.1525 75.6568 30.5173 75.6704 30.8779 75.7206C31.0043 75.7383 31.3461 75.7571 31.3064 75.9285C31.2803 76.0393 31.089 76.1344 30.9646 76.1324C30.6856 76.1282 30.4076 76.1167 30.1306 76.0979C29.9738 76.0874 29.5965 76.0885 29.6289 75.869L29.6279 75.8679Z" fill="#213467"/>
<path d="M32.6673 75.6747C32.9913 75.5074 33.3498 75.4322 33.7135 75.3956C33.8149 75.3852 33.9215 75.3622 34.0229 75.3768C34.0689 75.3831 34.1128 75.3977 34.1441 75.428C34.1807 75.4646 34.1985 75.5576 34.1807 75.6057C34.164 75.6527 34.1211 75.6914 34.072 75.7175C33.932 75.7928 33.7553 75.8168 33.6006 75.8492C33.4324 75.8847 33.2641 75.9171 33.0948 75.9464C32.9391 75.9736 32.5722 76.0656 32.5419 75.8419C32.5325 75.774 32.5984 75.7113 32.6684 75.6747H32.6673Z" fill="#213467"/>
<path d="M32.3802 78.7495C32.3928 78.7495 32.4053 78.7453 32.4168 78.739C32.5987 78.6429 32.7136 78.5185 32.7586 78.3701C32.7993 78.2363 32.7784 78.0921 32.6979 77.9426C32.653 77.859 32.5861 77.7555 32.5098 77.6406C32.4168 77.4995 32.3123 77.3396 32.2234 77.1755C32.1994 77.1295 32.143 77.1117 32.0959 77.1378C32.051 77.1629 32.0332 77.2194 32.0583 77.2654C32.1503 77.4368 32.2579 77.5998 32.352 77.744C32.4241 77.8538 32.4889 77.9531 32.5318 78.0325C32.5872 78.136 32.6039 78.2311 32.5778 78.3157C32.5485 78.4129 32.4617 78.5018 32.3269 78.5728C32.282 78.5969 32.2632 78.6544 32.2882 78.7003C32.3071 78.7348 32.3426 78.7526 32.3792 78.7505L32.3802 78.7495Z" fill="#EE9A8E"/>
<path d="M32.5353 79.3431L30.6426 79.2637C30.9969 80.0507 32.2573 80.1144 32.5353 79.3431Z" fill="white"/>
<path d="M25.4054 74.2107C25.3427 74.704 25.3583 75.1921 25.444 75.6655V75.6729C25.4869 75.9331 25.5632 76.1818 25.6478 76.4316C27.1926 74.5295 29.6445 73.4373 32.2479 73.7676C33.2419 73.894 34.1574 74.218 34.9695 74.6831C34.9611 74.3811 34.9235 74.0759 34.8587 73.7895C34.4971 72.1392 33.2899 70.7753 31.6522 70.2517C31.3721 70.1545 31.0795 70.0866 30.7753 70.0479C30.3886 69.9988 30.003 69.9967 29.6257 70.0479C27.4748 70.2841 25.6886 71.9626 25.4043 74.2086L25.4054 74.2107Z" fill="#FFD582"/>
<path d="M31.5643 70.6905L31.6521 70.2516C31.5215 70.1429 31.2414 69.9893 30.9613 69.9537C30.6822 69.9182 29.9778 69.867 29.3977 69.9663L29.0215 70.1554L29.75 70.5474L31.5633 70.6905H31.5643Z" fill="#FFD582"/>
<path d="M31.6523 70.2517C32.6766 70.9175 33.613 72.2333 33.8179 73.2272C34.1241 73.2858 34.6195 73.5606 34.8589 73.7895C34.4972 72.1392 33.2901 70.7753 31.6523 70.2517Z" fill="#FDC156"/>
<path d="M29.629 70.0488C30.4745 70.6038 31.1946 71.813 31.3399 72.8864C30.9051 72.8916 30.301 72.9418 29.5851 73.1257C29.4732 72.9752 29.3311 72.83 29.189 72.7129C28.9601 72.5237 28.6507 72.4663 28.3685 72.5603C27.985 72.6889 27.5711 72.8812 27.2408 73.1027C27.0046 73.2606 26.8437 73.5124 26.8154 73.7946C26.7904 74.0402 26.7966 74.2838 26.805 74.4332C26.1988 74.8711 25.7473 75.3195 25.4463 75.6644C25.3596 75.191 25.3449 74.7029 25.4076 74.2096C25.693 71.9625 27.4791 70.285 29.629 70.0488Z" fill="#FDC156"/>
<path d="M34.4136 75.2056L34.3551 74.612L34.2558 74.5628C33.5075 74.2806 31.6429 73.9838 29.8118 74.3799C28.3235 74.6956 26.6043 75.5097 25.766 76.5267C25.7232 76.581 25.6939 76.6197 25.6574 76.6584L25.5215 76.234C26.7683 74.6235 28.4939 73.7633 30.5674 73.3965C32.3421 73.0777 34.0258 73.4027 35.0386 73.9023C35.2612 74.0152 35.4535 74.1364 35.6009 74.2441C36.368 74.8429 35.1515 75.1795 34.4146 75.2046L34.4136 75.2056Z" fill="#FDC156"/>
<path d="M25.6697 76.3856L25.6582 76.6615L26.0198 76.6155L25.9571 76.2612L25.6697 76.3856Z" fill="#FDC156"/>
<path d="M27.4105 77.0315L27.4032 77.4778L27.2579 78.6191L27.2558 80.0447C27.0447 79.6297 26.3936 78.1592 26.2441 77.5729L27.4095 77.0315H27.4105Z" fill="#213467"/>
<path d="M27.4559 78.5619C27.9776 78.3603 28.217 77.722 27.9906 77.1362C27.7642 76.5504 27.1578 76.239 26.6361 76.4406C26.1143 76.6422 25.8749 77.2805 26.1013 77.8663C26.3277 78.4521 26.9342 78.7635 27.4559 78.5619Z" fill="#F9C3BC"/>
<path d="M27.6051 77.644H27.6114C27.6626 77.6356 27.6981 77.5876 27.6908 77.5364C27.6772 77.4402 27.6448 77.3461 27.5967 77.2573C27.4316 76.9615 27.0961 76.787 26.7951 76.8507C26.7428 76.8612 26.6927 76.879 26.6446 76.903C26.5495 76.9511 26.469 77.0253 26.4105 77.1172C26.3833 77.1611 26.3969 77.2197 26.4408 77.2468C26.4847 77.2751 26.5432 77.2615 26.5704 77.2165C26.6101 77.1517 26.6634 77.1026 26.7293 77.0702C26.7627 77.0535 26.7982 77.041 26.8338 77.0336C27.0501 76.9929 27.3062 77.1214 27.4316 77.3472C27.4692 77.4151 27.4943 77.4872 27.5048 77.5614C27.5121 77.6106 27.557 77.6461 27.6061 77.6419L27.6051 77.644Z" fill="#EE9A8E"/>
<path d="M37.2082 93.3692C37.2082 93.3692 37.2145 93.3692 37.2166 93.3692C37.3211 93.364 37.4005 93.2762 37.3953 93.1727L37.3462 92.1317C37.3409 92.0283 37.2479 91.9426 37.1497 91.953C37.0452 91.9582 36.9657 92.046 36.9709 92.1495L37.0201 93.1905C37.0253 93.2908 37.1079 93.3702 37.2082 93.3702V93.3692Z" fill="#35A4BE"/>
<path d="M15.3332 95.6509L12.6211 96.8309C12.9231 97.8196 15.2611 101.911 15.4733 102.807L19.7312 100.955C19.2944 100.293 15.3343 95.6509 15.3343 95.6509H15.3332Z" fill="#F9C3BC"/>
<path d="M17.581 104.155C18.863 104.155 19.9023 103.116 19.9023 101.834C19.9023 100.552 18.863 99.5127 17.581 99.5127C16.299 99.5127 15.2598 100.552 15.2598 101.834C15.2598 103.116 16.299 104.155 17.581 104.155Z" fill="#F9C3BC"/>
<path d="M14.0545 97.7569C14.8418 97.7569 15.4801 97.1187 15.4801 96.3313C15.4801 95.544 14.8418 94.9058 14.0545 94.9058C13.2672 94.9058 12.6289 95.544 12.6289 96.3313C12.6289 97.1187 13.2672 97.7569 14.0545 97.7569Z" fill="#F9C3BC"/>
<path d="M14.931 85.0686V88.551V93.9628L10.2445 96.6687L5.55809 93.9628V88.7298V85.0696C2.50417 86.7325 0.431641 89.9714 0.431641 93.6932C0.431641 99.1133 4.82544 103.507 10.2456 103.507C15.6657 103.507 20.0595 99.1133 20.0595 93.6932C20.0595 89.9703 17.9859 86.7325 14.932 85.0686H14.931Z" fill="#429ED7"/>
<path d="M5.20367 143.483H15.2852L15.2852 100.305H5.20367L5.20367 143.483Z" fill="#429ED7"/>
<path d="M10.2436 140C4.82348 140 0.429688 144.393 0.429688 149.813C0.429688 155.234 4.82348 159.627 10.2436 159.627C15.6637 159.627 20.0575 155.234 20.0575 149.813C20.0575 144.393 15.6637 140 10.2436 140ZM15.6157 152.914L10.2436 156.015L4.87156 152.914V146.711L10.2436 143.61L15.6157 146.711V152.914Z" fill="#429ED7"/>
<path d="M12.4909 94.7321C12.3738 94.7698 12.2536 94.8022 12.1575 94.8753C11.9756 95.0122 11.9202 95.2558 11.8763 95.4784C11.6213 95.4826 11.3998 95.678 11.2963 95.9111C11.1928 96.1441 11.1865 96.4075 11.2012 96.6625C11.2189 96.9719 11.2618 97.4568 11.4834 97.6962C11.6631 97.8916 11.9432 97.7589 11.9798 97.5195C11.9965 97.4077 11.9767 97.2938 11.9652 97.182C11.9485 97.0252 11.9474 96.8663 11.9631 96.7096C12.0613 96.8966 12.1596 97.0837 12.2568 97.2708C12.3049 97.3638 12.355 97.4568 12.4261 97.5342C12.5693 97.6889 12.8076 97.7505 12.9487 97.577C13.1357 97.3471 13.0417 97.066 13.0197 96.8015C13.0093 96.6772 12.9999 96.5528 12.9947 96.4284C12.9915 96.3699 13.0218 96.1556 12.9884 96.1138C13.1033 96.257 13.1765 96.4284 13.2664 96.5883C13.3563 96.7482 13.4723 96.904 13.6364 96.9844C13.8015 97.0649 14.0262 97.0471 14.1391 96.9029C14.2499 96.7608 14.2217 96.5591 14.1872 96.3824C14.1161 96.0145 14.045 95.6477 13.974 95.2798C14.1109 95.5055 14.2478 95.7303 14.3847 95.956C14.461 96.0825 14.5467 96.2424 14.7003 96.2654C14.8362 96.2863 15.0128 96.2142 15.0912 96.1013C15.1759 95.978 15.1738 95.816 15.1675 95.6665C15.1508 95.2213 15.1811 94.7468 15.1173 94.3089C15.0306 93.711 14.5091 93.1926 13.9248 93.7037C13.8559 93.7643 13.7973 93.8375 13.7231 93.8929C13.5068 94.0549 13.1828 94.0486 13.0041 94.2514C12.9194 94.3475 12.8807 94.4792 12.7919 94.5722C12.7114 94.6558 12.6038 94.6956 12.4919 94.7311L12.4909 94.7321Z" fill="#F9C3BC"/>
<path d="M105.237 113.201L102.102 112.023C102.813 110.127 103.897 106.422 104.662 103.56C105.313 101.125 105.97 99.0096 106.402 97.8589L111.324 99.7067C109.438 104.257 107.413 108.748 105.251 113.173L105.238 113.2L105.237 113.201Z" fill="#F9C3BC"/>
<path d="M109.822 101.279C111.169 100.738 111.821 99.2071 111.28 97.8601C110.739 96.5132 109.208 95.8602 107.861 96.4017C106.514 96.9431 105.861 98.474 106.402 99.8209C106.944 101.168 108.475 101.821 109.822 101.279Z" fill="#F9C3BC"/>
<path d="M104.271 114.223C105.129 113.878 105.545 112.903 105.2 112.045C104.855 111.187 103.88 110.771 103.022 111.116C102.164 111.461 101.748 112.436 102.093 113.294C102.438 114.152 103.413 114.568 104.271 114.223Z" fill="#F9C3BC"/>
<path d="M86.2089 90.794C84.914 92.3481 82.6387 92.6042 81.0344 91.4127C80.9769 91.3699 80.9205 91.326 80.8651 91.28C79.2556 89.938 79.0382 87.5457 80.3791 85.9361C81.7211 84.3266 84.1134 84.1092 85.7229 85.4502C87.3325 86.7921 87.5499 89.1845 86.2089 90.794Z" fill="#F9C3BC"/>
<path d="M73.4261 102.739C74.8296 102.221 75.5472 100.663 75.0288 99.2594C74.5105 97.8559 72.9526 97.1384 71.5491 97.6567C70.1456 98.175 69.428 99.733 69.9463 101.136C70.4647 102.54 72.0226 103.258 73.4261 102.739Z" fill="#F9C3BC"/>
<path d="M80.3798 85.936C76.958 89.5428 72.8255 94.3411 70.4509 98.389L70.4102 98.4527L74.5719 101.922C78.1934 97.8549 81.7657 94.4644 86.1532 90.8451L86.2086 90.7939L80.3788 85.936H80.3798Z" fill="#F9C3BC"/>
<path d="M87.0835 91.1348C88.4579 89.4542 88.0639 86.8591 86.2035 85.3373C84.7622 84.1584 82.9165 84.0811 81.4951 84.8378C81.0729 85.0625 80.7196 85.3802 80.3904 85.7157C79.246 86.8852 78.0838 87.9837 76.9623 89.1856C75.4228 90.8348 73.4538 93.0923 72.0898 94.9464L78.0576 100.216C80.5932 97.39 83.6544 94.6632 86.261 91.9803L87.0825 91.1348H87.0835Z" fill="#64B5D3"/>
<path d="M80.9293 111.954L83.4993 109.629C82.0925 108.074 80.1904 105.635 78.3656 103.172C76.8125 101.075 75.3764 99.289 74.5226 98.3452L70.4883 101.996C74.0334 105.659 77.3758 108.745 80.9063 111.933L80.9293 111.954Z" fill="#F9C3BC"/>
<path d="M72.5467 102.935C74.0492 102.935 75.2672 101.717 75.2672 100.215C75.2672 98.7124 74.0492 97.4944 72.5467 97.4944C71.0442 97.4944 69.8262 98.7124 69.8262 100.215C69.8262 101.717 71.0442 102.935 72.5467 102.935Z" fill="#F9C3BC"/>
<path d="M82.2543 112.568C83.2114 112.568 83.9872 111.793 83.9872 110.836C83.9872 109.879 83.2114 109.103 82.2543 109.103C81.2973 109.103 80.5215 109.879 80.5215 110.836C80.5215 111.793 81.2973 112.568 82.2543 112.568Z" fill="#F9C3BC"/>
<path d="M95.7815 90.5631C97.181 91.9385 99.4009 91.9678 100.835 90.6645C100.886 90.6185 100.936 90.5694 100.985 90.5203C102.41 89.0717 102.391 86.7421 100.941 85.3165C99.4928 83.892 97.1632 83.9108 95.7376 85.3604C94.3131 86.809 94.3319 89.1386 95.7815 90.5642V90.5631Z" fill="#F9C3BC"/>
<path d="M111.498 98.9724C111.782 97.5494 110.859 96.1653 109.436 95.881C108.013 95.5967 106.629 96.5197 106.345 97.9427C106.061 99.3657 106.984 100.75 108.407 101.034C109.83 101.318 111.214 100.395 111.498 98.9724Z" fill="#F9C3BC"/>
<path d="M100.941 85.3164C104.882 89.1437 107.348 92.1882 110.72 96.5256L110.764 96.5841L107.08 100.33C103.188 96.4535 100.234 93.9054 95.8398 90.608L95.7812 90.5641L100.941 85.3175V85.3164Z" fill="#F9C3BC"/>
<path d="M96.0534 91.6508C93.9642 89.6139 93.7363 86.9811 95.5079 85.2483C96.7934 83.991 99.0028 83.8248 100.359 84.5951C100.796 84.8428 101.623 85.5148 102.169 86.0551C103.307 87.1839 107.568 91.7177 109.351 93.9293L104.323 99.2062C101.654 96.6519 98.2273 93.7683 96.0534 91.6498V91.6508Z" fill="#64B5D3"/>
<path d="M93.529 84.5795L93.922 75.2066L88.2207 74.9673L87.8184 84.5795H93.529Z" fill="#F9C3BC"/>
<path d="M93.959 74.3421L93.6109 82.6594C91.7454 80.8377 91.1548 78.8185 91.2646 76.1962C91.2928 75.5189 91.3869 74.8741 91.5468 74.2407L93.959 74.3421Z" fill="#EE9A8E"/>
<path d="M96.5581 78.3471C96.5403 78.4851 96.5215 78.6136 96.5037 78.7422C96.4034 79.3661 96.2184 79.964 95.9122 80.5064C95.076 81.978 92.9492 81.7846 91.3543 81.03C90.4722 80.6203 89.7113 80.0821 89.0069 79.3787C87.6848 78.8979 86.2142 77.1473 85.7669 75.2859C85.1001 72.4807 85.8767 70.0664 89.2912 69.199C92.3315 68.4245 94.9506 69.849 95.491 71.377C96.024 72.8831 96.2999 74.4759 96.5027 76.0624C96.5999 76.8149 96.6396 77.5946 96.5591 78.3471H96.5581Z" fill="#F9C3BC"/>
<path d="M97.4214 69.986C96.7661 68.4748 95.1221 68.4371 93.5585 68.4476C92.4977 68.4549 91.3543 68.1591 90.3991 68.0964C89.2776 68.0233 87.5908 68.2877 87.0368 69.7572C86.3376 69.8418 85.6729 70.3633 85.3029 71.0103C84.7835 71.9164 84.5483 72.7849 84.749 73.9764C84.9476 75.1553 85.4168 76.1681 86.114 77.1129C86.4714 77.5968 86.8424 78.3378 87.2636 79.5031C87.389 79.8512 87.7068 80.0957 88.0747 80.1376C88.0747 80.1376 88.4164 80.1282 88.9589 80.1072C89.4804 80.0874 89.9193 79.9003 90.0897 79.3589C90.3081 78.6629 90.9269 77.3846 91.8811 76.8506C92.4726 76.5193 92.6879 76.9938 93.3004 76.9938C93.9682 76.9938 94.4542 77.1254 94.4636 76.6854C94.4824 75.8462 94.6465 75.0529 95.0667 74.6923C95.2674 74.5199 95.7074 74.1645 95.9425 74.0099C96.6145 73.5667 98.2899 71.9875 97.4214 69.985V69.986Z" fill="#213467"/>
<path d="M95.1074 75.3247L96.9218 76.9489C97.1705 77.1715 97.1037 77.578 96.7953 77.7087L95.307 78.3368L95.1085 75.3247H95.1074Z" fill="#F9C3BC"/>
<path d="M91.6422 77.3271C91.9233 78.0629 92.6309 78.4412 93.2245 78.1726C93.8171 77.904 94.07 77.0899 93.7889 76.3541C93.5078 75.6183 92.8002 75.2399 92.2066 75.5085C91.614 75.7772 91.361 76.5913 91.6422 77.3271Z" fill="#F9C3BC"/>
<path d="M93.4122 76.7586C93.4122 76.7586 93.4227 76.7586 93.4269 76.7576C93.4812 76.7492 93.5188 76.698 93.5105 76.6436C93.4938 76.5412 93.4603 76.4398 93.4112 76.3426C93.244 76.0155 92.9137 75.8305 92.6273 75.9047C92.5761 75.9173 92.526 75.9392 92.481 75.9674C92.3922 76.0228 92.318 76.1075 92.2678 76.2099C92.2438 76.2601 92.2647 76.3196 92.3138 76.3437C92.364 76.3677 92.4235 76.3479 92.4476 76.2977C92.481 76.2287 92.5291 76.1733 92.5876 76.1367C92.6148 76.119 92.6441 76.1064 92.6754 76.0991C92.8709 76.05 93.1071 76.189 93.2325 76.4346C93.2722 76.513 93.2983 76.5945 93.3119 76.676C93.3203 76.7252 93.3631 76.7607 93.4112 76.7607L93.4122 76.7586Z" fill="#EE9A8E"/>
<path d="M87.9189 82.228L87.5469 82.7976L94.0404 82.9053L93.6286 82.2688L87.9189 82.228Z" fill="#65C4E1"/>
<path d="M103.39 171.319L102.876 163.228L98.5742 163.355L98.9014 169.364L98.963 171.451L103.39 171.319Z" fill="#F9C3BC"/>
<path d="M107.222 172.589C107.222 173.025 106.973 173.371 106.671 173.371H98.6583C98.4273 173.371 98.2402 173.105 98.2402 172.775L98.2674 172.527L98.6583 168.572H103.332L106.893 171.878C107.071 171.994 107.204 172.251 107.213 172.527C107.222 172.544 107.222 172.572 107.222 172.589Z" fill="#213467"/>
<path d="M107.222 172.589C107.222 173.025 106.973 173.371 106.671 173.371H98.6583C98.4273 173.371 98.2402 173.105 98.2402 172.775L98.2674 172.527H107.214C107.223 172.544 107.223 172.572 107.223 172.589H107.222Z" fill="#203B71"/>
<path d="M79.332 171.389L79.91 163.286H84.2139L83.7624 169.301V171.389H79.332Z" fill="#F9C3BC"/>
<path d="M87.7964 172.589C87.7964 173.025 87.5477 173.371 87.2457 173.371H79.2325C79.0015 173.371 78.8145 173.105 78.8145 172.775L78.8416 172.527L79.2325 168.572H83.9064L87.4672 171.878C87.6449 171.994 87.7787 172.251 87.787 172.527C87.7964 172.544 87.7964 172.572 87.7964 172.589Z" fill="#213467"/>
<path d="M87.7964 172.589C87.7964 173.025 87.5477 173.371 87.2457 173.371H79.2325C79.0015 173.371 78.8145 173.105 78.8145 172.775L78.8416 172.527H87.7881C87.7975 172.544 87.7975 172.572 87.7975 172.589H87.7964Z" fill="#203B71"/>
<path d="M78.8145 167.516L80.0174 141.866L81.1399 115.98L88.6712 111.669L92.9062 115.186L88.9921 141.866L85.1522 167.516H78.8145Z" fill="#203B71"/>
<path d="M97.8573 167.516L94.2609 141.866L90.2402 115.183L95.9969 112.345L102.005 115.983L103.254 141.866L104.194 167.516H97.8573Z" fill="#203B71"/>
<path d="M91.4041 124.312C91.2933 124.319 91.1909 124.243 91.17 124.131L89.9294 117.452C89.9075 117.331 89.9869 117.214 90.1071 117.192C90.2221 117.17 90.3433 117.249 90.3663 117.37L91.6069 124.05C91.6288 124.17 91.5494 124.287 91.4292 124.309C91.4209 124.31 91.4125 124.311 91.4041 124.312Z" fill="#213467"/>
<path d="M102.603 119.94H90.8796L89.4111 115.181L88.9774 119.94H80.6309C80.7375 117.203 80.9193 111.67 80.9726 110.585C81.1775 106.32 81.3468 101.628 81.2026 95.4155L80.9204 85.518C82.4839 84.2565 85.2807 83.2594 87.5466 82.7974C89.2261 82.4599 93.9513 82.7191 95.5242 83.019C97.5016 83.3953 99.7623 84.131 101.32 85.2859L100.842 95.9935C101.078 99.9023 101.059 104.725 101.392 109.21C101.672 112.984 102.294 116.411 102.602 119.94H102.603Z" fill="#64B5D3"/>
<path d="M106.849 111.669L102.328 110.252L105.219 100.101L104.324 99.2083L105.066 94.2909L109.353 93.9314L111.506 96.8536C112.236 97.8455 112.38 99.1529 111.882 100.28L106.849 111.669Z" fill="#64B5D3"/>
<path d="M100.842 95.9537C100.719 95.9537 100.619 95.8545 100.619 95.7311V93.9272C100.619 93.8049 100.718 93.7046 100.842 93.7046C100.965 93.7046 101.064 93.8039 101.064 93.9272V95.7311C101.064 95.8534 100.965 95.9537 100.842 95.9537Z" fill="#35A4BE"/>
<path d="M81.2675 96.9237C81.1452 96.9237 81.0449 96.8244 81.0449 96.7011V94.8972C81.0449 94.7749 81.1442 94.6746 81.2675 94.6746C81.3909 94.6746 81.4901 94.7738 81.4901 94.8972V96.7011C81.4901 96.8234 81.3909 96.9237 81.2675 96.9237Z" fill="#35A4BE"/>
<path d="M106.415 109.787C106.575 109.787 106.704 109.658 106.704 109.499C106.704 109.34 106.575 109.21 106.415 109.21C106.256 109.21 106.127 109.34 106.127 109.499C106.127 109.658 106.256 109.787 106.415 109.787Z" fill="#35A4BE"/>
<path d="M107.007 108.463C107.167 108.463 107.296 108.334 107.296 108.175C107.296 108.015 107.167 107.886 107.007 107.886C106.848 107.886 106.719 108.015 106.719 108.175C106.719 108.334 106.848 108.463 107.007 108.463Z" fill="#35A4BE"/>
<path d="M115.106 159.283H114.368L114.367 158.105C114.367 157.371 113.768 156.773 113.034 156.774L110.651 156.776C109.917 156.776 109.32 157.375 109.321 158.11V159.29H108.584V158.11C108.582 156.968 109.509 156.039 110.65 156.037L113.033 156.035C114.174 156.034 115.104 156.961 115.105 158.102V159.282L115.106 159.283Z" fill="#3998D3"/>
<path d="M122.15 160.84L122.161 171.449C122.162 172.502 121.316 173.351 120.262 173.352L104.014 173.37C102.961 173.371 102.112 172.524 102.111 171.471L102.1 160.862C102.099 159.816 102.945 158.968 103.999 158.967L120.246 158.949C121.3 158.948 122.149 159.794 122.15 160.84Z" fill="#52A8DC"/>
<path d="M122.149 160.84L122.151 163.144C122.151 163.943 121.461 164.61 120.556 164.685L112.13 166.158L103.7 164.703C102.795 164.629 102.102 163.964 102.102 163.165L102.1 160.861C102.099 159.815 102.945 158.967 103.999 158.966L120.246 158.948C121.3 158.947 122.149 159.794 122.15 160.839L122.149 160.84Z" fill="#73BCE8"/>
<path d="M102.954 164.71C104.475 164.985 105.997 165.26 107.518 165.534C108.973 165.798 110.6 166.341 112.081 166.359C113.285 166.374 114.625 165.931 115.809 165.724C117.41 165.444 119.011 165.163 120.612 164.883C120.874 164.837 120.757 164.442 120.499 164.487C119.095 164.733 117.691 164.978 116.286 165.224C115.037 165.443 113.191 165.97 112.121 165.948C110.591 165.917 108.917 165.369 107.414 165.098C105.96 164.834 104.505 164.572 103.052 164.309C102.791 164.261 102.693 164.661 102.954 164.709V164.71Z" fill="#3998D3"/>
<path d="M107.291 165.837C107.77 165.837 108.159 165.448 108.159 164.969C108.159 164.49 107.77 164.102 107.291 164.102C106.812 164.102 106.424 164.49 106.424 164.969C106.424 165.448 106.812 165.837 107.291 165.837Z" fill="#3998D3"/>
<path d="M107.355 165.055L107.21 165.055C107.04 165.056 106.902 165.193 106.903 165.363L106.905 167.186C106.905 167.355 107.042 167.493 107.212 167.493L107.357 167.492C107.527 167.492 107.665 167.355 107.664 167.185L107.662 165.362C107.662 165.192 107.525 165.055 107.355 165.055Z" fill="#3998D3"/>
<path d="M116.965 165.826C117.444 165.826 117.833 165.438 117.833 164.959C117.833 164.479 117.444 164.091 116.965 164.091C116.486 164.091 116.098 164.479 116.098 164.959C116.098 165.438 116.486 165.826 116.965 165.826Z" fill="#3998D3"/>
<path d="M117.031 165.044L116.885 165.044C116.716 165.044 116.578 165.182 116.578 165.352L116.58 167.174C116.581 167.344 116.718 167.482 116.888 167.481L117.033 167.481C117.203 167.481 117.34 167.343 117.34 167.174L117.338 165.351C117.338 165.181 117.2 165.044 117.031 165.044Z" fill="#3998D3"/>
<path d="M101.487 109.894C101.226 111.279 100.37 111.395 99.8264 111.182C99.2829 110.969 99.0593 110.905 98.8304 110.784C98.6015 110.664 98.1939 111.136 98.6705 111.66C99.1471 112.185 100.039 112.355 100.664 112.988C101.289 113.62 102.439 114.552 104.016 114.298L102.799 110.425L101.46 109.583L101.488 109.893L101.487 109.894Z" fill="#F9C3BC"/>
<path d="M104.159 114.257C105.04 113.976 105.527 113.034 105.246 112.153C104.965 111.272 104.023 110.786 103.142 111.066C102.261 111.347 101.775 112.289 102.055 113.17C102.336 114.051 103.278 114.538 104.159 114.257Z" fill="#F9C3BC"/>
<path d="M76.9947 95.2097L72.0909 94.9453L69.894 98.2313C69.0171 99.5429 69.1927 101.291 70.312 102.403L79.7936 111.818L83.1192 108.553L77.3134 101.087L78.0586 100.215L76.9947 95.2087V95.2097Z" fill="#64B5D3"/>
<path d="M79.3959 110.144C79.5552 110.144 79.6843 110.015 79.6843 109.855C79.6843 109.696 79.5552 109.567 79.3959 109.567C79.2366 109.567 79.1074 109.696 79.1074 109.855C79.1074 110.015 79.2366 110.144 79.3959 110.144Z" fill="#35A4BE"/>
<path d="M78.476 109.024C78.6353 109.024 78.7644 108.895 78.7644 108.736C78.7644 108.577 78.6353 108.448 78.476 108.448C78.3166 108.448 78.1875 108.577 78.1875 108.736C78.1875 108.895 78.3166 109.024 78.476 109.024Z" fill="#35A4BE"/>
</svg>
