<svg width="148" height="129" viewBox="0 0 148 129" fill="none" xmlns="http://www.w3.org/2000/svg">
<g clip-path="url(#clip0_3262_3044)">
<path fill-rule="evenodd" clip-rule="evenodd" d="M33.6492 118.566C51.3712 118.566 65.7375 120.901 65.7375 123.782C65.7375 126.663 51.3712 129.001 33.6492 129.001C15.9271 129.001 1.55859 126.663 1.55859 123.782C1.55859 120.901 15.9266 118.566 33.6492 118.566Z" fill="#C7DCF5"/>
<path fill-rule="evenodd" clip-rule="evenodd" d="M76.6123 0C59.9563 0 59.7331 20.7359 47.7066 30.1455C31.7903 42.6022 26.0991 46.6408 27.7681 67.9497C29.1535 85.6122 42.0484 119.077 80.755 119.077C119.462 119.077 152.484 98.262 140.96 60.8328C129.436 23.4019 115.318 0 76.6123 0Z" fill="#E7F1FB"/>
<path fill-rule="evenodd" clip-rule="evenodd" d="M83.8795 27.4005H73.7062V31.32H69.7566V118.09C73.1681 118.729 76.8247 119.077 80.7543 119.077C87.3781 119.077 93.8351 118.468 99.9332 117.269V31.32H96.0036V27.4005H85.8404V12.3289H83.8795V27.4005ZM34.3828 90.8253C40.1041 102.089 49.9375 112.882 65.6417 117.152V64.9799L34.3828 77.1591V90.8253ZM104.042 116.356C117.857 112.934 129.468 106.34 136.391 96.8356V62.7946L104.042 48.5847V116.356Z" fill="white"/>
<path fill-rule="evenodd" clip-rule="evenodd" d="M123.316 66.3797V73.145H117.12V66.3797H123.316ZM34.3828 90.8253C35.272 92.5762 36.2622 94.3153 37.3551 96.0222H44.0604V101.097H41.0312C41.8707 102.127 42.7593 103.132 43.6948 104.111H44.0604V104.483C44.8486 105.29 45.6669 106.076 46.5231 106.837V104.111H53.5014V109.186H49.3676C51.3937 110.727 53.5913 112.132 55.9663 113.374V112.197H62.9424V116.34C63.8232 116.633 64.7224 116.902 65.6417 117.152V64.9799L34.3828 77.1591V90.8253ZM69.7566 118.09C73.1681 118.729 76.8247 119.077 80.7543 119.077C87.3781 119.077 93.8351 118.468 99.9332 117.269V31.32H96.0036V27.4005H85.8404V12.3289H83.8795V27.4005H73.7062V31.32H69.7566V118.09ZM104.042 116.356C105.261 116.052 106.46 115.728 107.642 115.378V109.512H113.837V113.244C114.954 112.804 116.049 112.339 117.12 111.849V109.512H121.701C123.872 108.284 125.917 106.946 127.821 105.492H126.602V98.7272H132.795V101.094C134.103 99.7465 135.306 98.3278 136.391 96.8356V62.7946L104.042 48.5847V116.356ZM113.837 66.3797V73.145H107.642V66.3797H113.837ZM132.795 66.3797V73.145H126.602V66.3797H132.795ZM123.316 77.1596V83.9277H117.12V77.1596H123.316ZM113.837 77.1596V83.9277H107.642V77.1596H113.837ZM132.795 77.1596V83.9277H126.602V77.1596H132.795ZM123.316 87.9451V94.7103H117.12V87.9451H123.316ZM113.837 87.9451V94.7103H107.642V87.9451H113.837ZM132.795 87.9451V94.7103H126.602V87.9451H132.795ZM123.316 98.7272V105.492H117.12V98.7272H123.316ZM113.837 98.7272V105.492H107.642V98.7272H113.837ZM53.5014 79.8479V84.9224H46.5231V79.8479H53.5014ZM44.061 79.8479V84.9224H37.0833V79.8479H44.061ZM62.9424 79.8479V84.9224H55.9663V79.8479H62.9424ZM53.5014 87.9334V93.0079H46.5231V87.9334H53.5014ZM44.061 87.9334V93.0079H37.0833V87.9334H44.061ZM62.9424 87.9334V93.0079H55.9663V87.9334H62.9424ZM53.5014 96.0228V101.097H46.5231V96.0228H53.5014ZM62.9424 96.0228V101.097H55.9663V96.0228H62.9424ZM62.9424 104.112V109.186H55.9663V104.112H62.9424ZM87.7242 34.4728H81.9594V42.7325H87.7242V34.4728ZM79.4448 34.4728H73.6833V42.7325H79.4448V34.4728ZM87.7242 46.8589H81.9594V55.1163H87.7242V46.8589ZM79.4448 46.8589H73.6833V55.1163H79.4448V46.8589ZM96.0031 46.8589H90.2382V55.1163H96.0031V46.8589ZM87.7242 59.2478H81.9594V67.5024H87.7242V59.2478ZM79.4448 59.2478H73.6833V67.5024H79.4448V59.2478ZM96.0031 59.2478H90.2382V67.5024H96.0031V59.2478ZM87.7242 71.6339H81.9594V79.8885H87.7242V71.6339ZM79.4448 71.6339H73.6833V79.8885H79.4448V71.6339ZM96.0031 71.6339H90.2382V79.8885H96.0031V71.6339ZM87.7242 84.0172H81.9594V92.2769H87.7242V84.0172ZM79.4448 84.0172H73.6833V92.2769H79.4448V84.0172ZM96.0031 84.0172H90.2382V92.2769H96.0031V84.0172ZM87.7242 96.4056H81.9594V104.663H87.7242V96.4056ZM79.4448 96.4056H73.6833V104.663H79.4448V96.4056ZM96.0031 96.4056H90.2382V104.663H96.0031V96.4056ZM87.7242 108.792H81.9594V117.049H87.7242V108.792ZM79.4448 108.792H73.6833V117.049H79.4448V108.792ZM96.0031 108.792H90.2382V117.049H96.0031V108.792ZM96.0031 34.4728H90.2382V42.7325H96.0031V34.4728Z" fill="#C7DCF5"/>
<path fill-rule="evenodd" clip-rule="evenodd" d="M92.3245 11.6984C92.6304 11.6984 92.9218 11.7495 93.1863 11.8369C93.159 11.6984 93.1428 11.557 93.1428 11.4107C93.1428 10.1489 94.2396 9.12967 95.5943 9.12967C95.8343 9.12967 96.0659 9.1625 96.2842 9.22203C96.6286 7.61083 98.1217 6.39575 99.9162 6.39575C101.961 6.39575 103.619 7.97746 103.619 9.92637C103.619 10.2607 103.57 10.584 103.477 10.8911C104.816 10.9801 105.872 11.9187 105.872 13.1282C105.872 14.3377 104.711 15.3002 103.996 15.5016C103.889 15.5311 103.743 15.5283 103.573 15.5016H92.3245C91.0619 15.5016 90.0371 14.6509 90.0371 13.5989C90.0371 12.5468 91.0625 11.6989 92.3245 11.6989V11.6984Z" fill="white"/>
<path fill-rule="evenodd" clip-rule="evenodd" d="M63.9289 20.7169C64.2308 20.7169 64.5228 20.7659 64.7879 20.8554C64.76 20.7169 64.7443 20.5728 64.7443 20.4259C64.7443 19.1675 65.8428 18.1454 67.1953 18.1454C67.4353 18.1454 67.667 18.1783 67.8852 18.2378C68.2285 16.626 69.7227 15.4143 71.5167 15.4143C73.5624 15.4143 75.2196 16.9938 75.2196 18.9421C75.2196 19.276 75.1705 19.6025 75.0806 19.9096C76.4169 19.9992 77.4718 20.9372 77.4718 22.1467C77.4718 23.3563 76.3103 24.3187 75.5958 24.5168C75.4892 24.5468 75.3446 24.5441 75.1727 24.5168H63.9272C62.6612 24.5168 61.6387 23.6661 61.6387 22.6169C61.6387 21.5676 62.6612 20.7169 63.9272 20.7169H63.9289Z" fill="white"/>
<path fill-rule="evenodd" clip-rule="evenodd" d="M113.837 88.0018C113.098 88.0018 112.498 88.1893 112.498 88.4202C112.498 88.651 113.098 88.8385 113.837 88.8385C114.576 88.8385 115.176 88.651 115.176 88.4202C115.176 88.1893 114.579 88.0018 113.837 88.0018ZM125.107 119.243C125.203 119.4 125.255 119.561 125.255 119.726C125.255 121.379 120.141 122.719 113.837 122.719C107.533 122.719 102.42 121.379 102.42 119.726C102.42 119.56 102.472 119.397 102.57 119.24L112.076 88.3734C112.073 88.3601 112.07 88.3467 112.07 88.3328C112.07 88.0279 112.861 87.7837 113.837 87.7837C114.814 87.7837 115.605 88.0279 115.605 88.3328C115.605 88.3467 115.605 88.3601 115.599 88.3734L125.108 119.242L125.107 119.243Z" fill="#ED7D2B"/>
<path fill-rule="evenodd" clip-rule="evenodd" d="M108.62 101.181C110.248 101.782 112.004 102.111 113.837 102.111C115.669 102.111 117.428 101.782 119.056 101.181L116.935 94.2964C115.97 94.6308 114.925 94.8127 113.837 94.8127C112.749 94.8127 111.704 94.6308 110.739 94.2964L108.62 101.181H108.62ZM113.837 108.789C111.311 108.789 108.879 108.406 106.613 107.696L104.488 114.594C107.423 115.545 110.566 116.062 113.836 116.062C117.106 116.062 120.252 115.546 123.187 114.594L121.062 107.696C118.793 108.406 116.364 108.789 113.836 108.789H113.837Z" fill="#F9F9F9"/>
<path fill-rule="evenodd" clip-rule="evenodd" d="M125.168 115.114C126.261 115.557 127.208 116.095 127.513 116.769L130.183 122.7C130.853 124.187 129.364 125.227 126.436 125.227H114.464C114.254 125.227 114.047 125.222 113.837 125.211C113.63 125.222 113.419 125.227 113.212 125.227H101.239C98.3102 125.227 96.8244 124.186 97.492 122.7L100.164 116.769C100.47 116.093 101.416 115.557 102.509 115.114H103.352L102.138 119.05C102.022 119.259 101.953 119.485 101.953 119.726C101.953 121.227 104.514 121.996 105.645 122.292C108.222 122.969 111.178 123.183 113.837 123.183C116.496 123.183 119.452 122.969 122.029 122.292C123.163 121.996 125.724 121.227 125.724 119.726C125.724 119.487 125.654 119.262 125.539 119.055L124.325 115.114H125.167H125.168Z" fill="#ED7D2B"/>
<path fill-rule="evenodd" clip-rule="evenodd" d="M113.837 122.719C107.533 122.719 102.42 121.379 102.42 119.726C102.42 119.56 102.472 119.397 102.57 119.24L103.84 115.114H103.352L102.138 119.05C102.022 119.259 101.953 119.485 101.953 119.726C101.953 121.227 104.514 121.996 105.645 122.292C108.222 122.969 111.179 123.183 113.837 123.183C116.496 123.183 119.452 122.969 122.029 122.292C123.163 121.996 125.724 121.227 125.724 119.726C125.724 119.487 125.654 119.259 125.539 119.055L124.325 115.114H123.834L125.108 119.243C125.203 119.4 125.255 119.561 125.255 119.726C125.255 121.379 120.142 122.719 113.838 122.719H113.837Z" fill="#ECECED"/>
<path fill-rule="evenodd" clip-rule="evenodd" d="M147.879 21.3885C146.639 39.618 142.236 59.8187 122.083 65.045L121.581 65.1758L121.082 65.045C100.931 59.8187 96.5263 39.618 95.2866 21.3885L95.166 19.6327L96.9031 19.3089C105.307 17.7383 113.014 14.5988 120.753 11.0571L121.582 10.6765L122.411 11.0571C130.152 14.5988 137.858 17.7383 146.263 19.3089L148 19.6327L147.88 21.3885H147.879Z" fill="#E7F1FB"/>
<path fill-rule="evenodd" clip-rule="evenodd" d="M145.899 21.1869C137.593 19.6381 130.186 16.7267 121.583 12.791C112.982 16.7267 105.576 19.6375 97.2695 21.1869C98.9658 46.0871 106.373 59.1169 121.583 63.0609C136.797 59.1169 144.203 46.0871 145.899 21.1869Z" fill="#1C468A"/>
<path fill-rule="evenodd" clip-rule="evenodd" d="M142.037 24.0683C134.926 22.4076 128.264 19.7655 121.583 16.7595C114.905 19.7655 108.243 22.4076 101.131 24.0683C102.132 35.1414 104.839 48.8322 113.966 55.6052C116.273 57.3177 118.845 58.5111 121.582 59.3128C124.322 58.5111 126.895 57.3177 129.201 55.6052C138.329 48.8322 141.036 35.1414 142.037 24.0683Z" fill="#699DEE"/>
<path fill-rule="evenodd" clip-rule="evenodd" d="M142.036 24.0683C134.925 22.4076 128.263 19.7655 121.582 16.7595V59.3128C124.322 58.5111 126.894 57.3149 129.201 55.6052C138.328 48.8322 141.036 35.1414 142.037 24.0683H142.036Z" fill="#4A75CB"/>
<path fill-rule="evenodd" clip-rule="evenodd" d="M108.987 37.574C108.311 36.7311 108.45 35.5032 109.295 34.8289C110.141 34.158 111.373 34.2937 112.047 35.136L118.138 42.7275L135.465 26.729C136.259 25.9957 137.5 26.0441 138.233 26.8352C138.969 27.6286 138.92 28.8631 138.127 29.597L119.257 47.0192L119.15 47.1115C118.305 47.7853 117.07 47.6468 116.396 46.8044L108.987 37.574H108.987Z" fill="white"/>
<path fill-rule="evenodd" clip-rule="evenodd" d="M79.8987 95.3294L95.4372 122.153C95.9306 123.01 95.6359 124.1 94.7768 124.589C94.4961 124.752 94.1908 124.828 93.8882 124.828V124.833H62.7036C61.7106 124.833 60.9062 124.032 60.9062 123.042C60.9062 122.672 61.0184 122.328 61.2121 122.042L76.7445 95.2287C77.2412 94.3758 78.3369 94.0848 79.1937 94.5794C79.5097 94.7613 79.7502 95.0251 79.8998 95.3299L79.8987 95.3294Z" fill="#DE7B2A"/>
<path fill-rule="evenodd" clip-rule="evenodd" d="M78.2909 98.05L64.3672 122.088H91.1294V122.075H92.2089L78.2909 98.05Z" fill="#F19C16"/>
<path fill-rule="evenodd" clip-rule="evenodd" d="M77.0295 105.623H79.5491C79.8187 105.623 80.0536 105.843 80.0369 106.109L79.5189 115.524C79.5027 115.793 79.2979 116.013 79.0277 116.013H77.5497C77.2795 116.013 77.0752 115.793 77.0585 115.524L76.5377 106.109C76.5237 105.84 76.7587 105.623 77.0289 105.623H77.0295ZM78.2893 117.005C79.0964 117.005 79.7506 117.658 79.7506 118.463C79.7506 119.267 79.0958 119.919 78.2893 119.919C77.4827 119.919 76.828 119.267 76.828 118.463C76.828 117.658 77.4821 117.005 78.2893 117.005Z" fill="white"/>
<path fill-rule="evenodd" clip-rule="evenodd" d="M42.5781 38.0551C43.1447 38.0957 43.69 37.4242 43.8485 37.2233C44.4514 36.4628 44.8354 35.5654 44.9917 35.063C44.8739 34.7314 44.7483 34.3075 44.6205 33.799C42.4364 32.3202 42.1388 31.2253 43.7257 30.5154C44.045 30.6951 44.4435 31.247 44.9174 32.1683C45.2964 32.1549 45.5822 31.9597 45.777 31.5897C45.3266 30.0324 45.0352 28.7679 44.8985 27.7953C45.9729 26.2014 48.4898 25.9738 51.8248 26.4034C51.9783 27.2896 52.1056 28.2243 52.2038 29.214C52.7933 29.7548 52.7162 31.761 52.1743 34.0738C52.4461 35.3896 51.6306 36.1073 49.73 36.2263C49.711 36.5446 49.7406 36.9084 49.7462 37.131C49.7518 37.3318 49.7607 37.7263 49.9706 37.7891L50.3217 37.8731C50.2865 42.5754 47.873 43.4773 42.5781 38.0551Z" fill="#FCB88D"/>
<path fill-rule="evenodd" clip-rule="evenodd" d="M51.8233 26.4057C48.4882 25.974 45.9714 26.201 44.8969 27.7949C45.0331 28.7674 45.325 30.032 45.7755 31.5893C45.5812 31.9592 45.2949 32.1545 44.9159 32.1679C44.442 31.2466 44.0435 30.6947 43.7242 30.5149C42.1373 31.2249 42.4348 32.3198 44.619 33.7985C44.7468 34.3071 44.8724 34.7304 44.9901 35.0626C43.0237 34.6247 41.3799 32.8717 41.1477 32.1156C38.8575 27.613 41.4122 25.7097 42.7814 25.0171C43.3837 20.5573 49.8267 25.036 53.0831 22.8862C54.3786 24.6693 52.8297 26.3651 51.8233 26.4057Z" fill="#B5453C"/>
<path fill-rule="evenodd" clip-rule="evenodd" d="M47.541 35.7664C48.073 36.0295 48.8042 36.1825 49.7307 36.2259C49.7145 36.5386 49.7279 36.8996 49.7469 37.1227C48.8142 36.943 48.0785 36.4918 47.541 35.7664Z" fill="#F08261"/>
<path fill-rule="evenodd" clip-rule="evenodd" d="M38.6004 126.089C36.5318 125.363 36.3649 124.3 35.2497 123.781C34.126 123.26 33.9977 122.327 35.0939 121.316C35.9066 121.96 36.9125 122.757 37.4472 122.335C37.8016 122.056 39.0101 122.072 39.2501 122.482C40.3 124.917 41.7647 124.146 42.0538 125.255C42.0867 126.731 39.5526 126.423 38.6009 126.089H38.6004Z" fill="#1C468A"/>
<path fill-rule="evenodd" clip-rule="evenodd" d="M56.5391 123.667C52.8937 123.607 50.1698 123.564 48.9094 123.17C47.5514 122.741 47.8322 121.914 48.6119 120.596C52.048 122.17 51.1349 120.27 52.7407 120.512C53.8705 121.417 55.5439 122.026 57.7582 122.333C58.6937 123.024 58.3147 123.638 56.5391 123.668V123.667Z" fill="#1C468A"/>
<path fill-rule="evenodd" clip-rule="evenodd" d="M54.7174 38.5876C52.8984 38.0601 51.2651 37.7425 49.8172 37.6284C49.5555 41.6136 47.4696 41.5858 43.5584 37.5466C39.7958 37.8621 39.0562 37.9083 36.9675 38.5848C32.4485 42.8876 32.0316 47.8559 29.6699 53.5312C32.2861 53.6481 33.4605 53.9607 35.2383 54.5939C35.6201 53.2325 35.9393 52.137 36.1955 51.308C36.1252 58.7932 36.0973 63.9195 36.1135 66.6918C46.5848 68.0153 52.8157 67.8768 54.8006 66.2756C54.8419 59.6244 54.8961 54.3569 54.9675 50.4757C56.0035 51.6936 56.9613 52.6344 57.8466 53.3053C59.9654 50.8808 61.4049 49.9049 62.6078 48.4751C59.9448 44.1177 56.1285 40.063 54.7163 38.5865L54.7174 38.5876Z" fill="#F99746"/>
<path fill-rule="evenodd" clip-rule="evenodd" d="M72.1545 45.8775C67.6087 47.7591 64.4293 49.313 62.6074 50.542L61.8003 49.3508C61.0479 50.1013 60.1917 50.8352 59.1445 51.9061C60.1124 52.9143 61.1517 53.746 62.3596 54.447C65.5172 54.1099 69.0075 51.7264 72.8304 47.2956C74.0199 47.0592 74.8951 46.6303 75.4566 46.0077C75.4868 45.4369 75.1976 44.8633 74.5892 44.2897C76.1772 43.2593 76.8063 42.5232 76.4848 42.0798C74.0004 43.6098 72.558 44.8766 72.1545 45.8769V45.8775Z" fill="#FCB88D"/>
<path fill-rule="evenodd" clip-rule="evenodd" d="M54.908 54.4558C54.8588 58.5194 54.8242 62.4601 54.8013 66.2767C55.369 66.7257 56.1298 70.5089 55.4561 72.7076C56.607 79.7827 55.6196 88.9937 55.0017 100.839C53.8938 105.014 52.2577 110.575 52.3644 118.403C50.4336 118.992 49.7359 119.052 47.9938 118.612C46.777 110.442 47.6059 103.9 48.7072 100.877C48.0011 96.2074 46.9512 90.9777 45.419 83.438C43.6926 91.6547 41.3862 97.7535 40.3848 101.733C40.1889 106.168 39.2863 112.156 38.8169 119.693C37.3824 120.123 36.491 120.248 35.0046 120.068C33.0766 113.137 33.4009 105.598 34.2164 97.4486C35.0866 87.6501 33.6527 76.5876 35.0894 72.7498C35.5471 70.2029 35.2641 67.8089 36.1148 66.6917C37.9288 67.1129 39.5838 66.754 41.0859 65.618C41.2249 55.9585 41.5575 49.5571 42.0872 46.4098C42.6214 41.865 41.255 39.1556 37.9886 38.2771C38.6612 37.5922 39.5152 37.4375 40.5456 37.8153C43.0814 39.4755 44.2892 42.4308 44.1726 46.6813C48.4945 47.285 51.4015 47.0919 52.8902 46.0966C53.0515 42.0853 52.2494 39.283 50.4878 37.6929C51.1531 37.22 52.0121 37.3724 53.0671 38.1524C54.4168 40.0029 55.0118 42.8737 54.851 46.7631C55.1921 48.1713 55.211 50.7338 54.908 54.4553V54.4558Z" fill="#1C468A"/>
<path fill-rule="evenodd" clip-rule="evenodd" d="M37.4457 59.0904C36.9818 59.1583 36.5431 59.2206 36.1312 59.2751C36.1094 62.5776 36.1038 65.0484 36.115 66.6924C36.5788 66.7519 37.0343 66.8064 37.4836 66.8604C37.4479 64.0987 37.4351 61.5088 37.4457 59.0898V59.0904ZM58.5982 52.477C57.3251 51.4199 56.111 49.7019 54.9606 47.3263C55.089 48.1519 55.1409 49.2613 55.1158 50.6477C56.0948 51.7816 57.0052 52.6673 57.8481 53.306C58.1076 53.0094 58.3554 52.7318 58.5982 52.4765V52.477ZM37.8057 46.0383C37.2436 47.8404 36.7089 49.5968 36.1965 51.3087C36.1831 52.7546 36.1719 54.1132 36.1607 55.3828C36.5325 55.35 36.9656 55.3261 37.4808 55.3122C37.5355 51.8005 37.641 48.7077 37.8057 46.0383Z" fill="#ED7D2B"/>
<path fill-rule="evenodd" clip-rule="evenodd" d="M49.2258 48.6282H58.7482C59.1847 48.6282 59.4845 48.9842 59.4158 49.4193L57.278 62.868C57.2099 63.3031 56.7957 63.6592 56.3592 63.6592H46.8368C46.4003 63.6592 46.0972 63.3031 46.1686 62.868L48.3042 49.4193C48.3746 48.9842 48.7893 48.6282 49.2258 48.6282Z" fill="#699DEE"/>
<path fill-rule="evenodd" clip-rule="evenodd" d="M30.548 53.5808C30.1361 55.2471 29.9647 56.7687 30.3024 58.7883C31.3272 60.2754 35.4778 59.4431 46.1568 57.6661C46.5386 58.0144 47.3318 58.3621 48.5346 58.2069C49.6527 57.927 49.7046 57.6366 50.9588 56.4594C51.2613 55.5436 51.1988 54.8448 50.7707 54.3614C49.3607 55.187 48.6167 55.6276 47.0298 55.6794C47.4518 54.595 47.5149 53.8963 47.2201 53.5814C46.677 54.0131 46.3232 54.6657 46.1618 55.5325C37.7412 55.1681 35.5191 55.2176 34.3983 55.8046C34.5211 55.2771 34.6272 54.8154 34.7232 54.4159C33.4115 53.9697 32.3448 53.7116 30.548 53.5814V53.5808Z" fill="#FCB88D"/>
<path fill-rule="evenodd" clip-rule="evenodd" d="M48.8555 118.803C48.9426 119.515 48.9537 120.153 48.894 120.719C51.7675 121.967 51.2802 120.528 52.4273 120.491C52.1381 119.985 51.9528 119.338 51.8652 118.553C50.6137 118.909 49.8993 118.99 48.8549 118.803L48.8555 118.803ZM35.461 120.115C35.461 120.634 35.4091 121.088 35.3086 121.482C36.0772 122.088 36.9608 122.721 37.4492 122.335C37.6836 122.151 38.2837 122.096 38.7369 122.194C38.551 121.569 38.4042 120.786 38.2948 119.843C37.289 120.112 36.5143 120.205 35.4615 120.115H35.461Z" fill="#FCB88D"/>
<path fill-rule="evenodd" clip-rule="evenodd" d="M42.2466 20.437C46.0646 17.9445 49.5716 18.9209 51.4364 22.3314L51.4934 22.4376C53.4816 21.5764 55.1338 21.296 55.5976 21.6142L47.4522 26.0256L39.506 30.3395L38.8602 29.1595C37.2644 26.2398 39.0316 22.5383 42.2466 20.437Z" fill="#F19C16"/>
<path fill-rule="evenodd" clip-rule="evenodd" d="M51.4381 22.3309C49.5732 18.9204 46.0662 17.944 42.2483 20.4365C39.0338 22.5378 37.2666 26.2393 38.8618 29.159L39.1398 29.6675L51.495 22.4372L51.4381 22.3309Z" fill="#DE7B2A"/>
<path fill-rule="evenodd" clip-rule="evenodd" d="M41.3623 22.2552C44.8386 19.983 48.0621 20.595 50.0174 23.3022L51.4954 22.4376L51.4385 22.3314C49.5736 18.9209 46.0666 17.9445 42.2487 20.437C40.4653 21.6031 39.129 23.2583 38.5625 25.003C39.2546 23.957 40.2175 23.0023 41.3629 22.2552H41.3623Z" fill="#F19C16"/>
<path fill-rule="evenodd" clip-rule="evenodd" d="M17.872 56.8989C17.872 56.8989 17.4115 58.5001 15.1615 61.2941C12.5576 61.2563 17.872 56.8989 17.872 56.8989Z" fill="#4E909A"/>
<path fill-rule="evenodd" clip-rule="evenodd" d="M30.1334 69.8612L28.4773 70.1683C28.4773 70.1683 23.9483 63.2072 23.8177 61.0819C23.6921 59.0568 19.6096 50.1852 24.3898 44.6462C24.603 44.3963 24.8374 44.151 25.0936 43.9179L25.1204 43.8906C25.1204 43.8906 25.1294 43.9045 25.1428 43.9312C25.241 44.0915 25.62 44.7769 26.0638 46.288C26.762 48.6502 27.6244 53.0365 27.8259 60.6118C27.8259 60.6118 28.9384 67.0995 30.1334 69.8612Z" fill="#FFB27D"/>
<path fill-rule="evenodd" clip-rule="evenodd" d="M30.132 69.8613C30.132 69.8613 31.9075 71.8564 31.9611 72.6664C32.0164 73.4737 31.3125 74.4929 30.5244 74.6671C29.7362 74.8412 30.2302 73.5933 30.1102 73.0932C29.9925 72.5902 29.4773 71.8319 29.5074 72.0578C29.5398 72.2837 29.854 73.1749 29.7558 73.319C29.6603 73.4603 29.4036 73.4815 29.3081 73.0064C29.2127 72.5307 28.4173 71.9766 28.5747 71.4653C28.7299 70.954 28.6015 70.5595 28.3866 69.878C28.1706 69.1903 27.8105 68.3697 27.8105 68.3697L29.0893 68.0977L30.132 69.8619V69.8613Z" fill="#FFB27D"/>
<path fill-rule="evenodd" clip-rule="evenodd" d="M18.1589 33.834C18.1589 33.834 18.1209 34.6735 18.6249 34.8393C19.1329 35.0051 18.1047 36.821 18.1862 38.0467C18.266 39.2723 18.8108 39.7669 18.8108 39.7669C18.8108 39.7669 18.549 39.0926 18.6958 38.6743C18.6958 38.6743 18.6718 39.5416 19.3065 39.9789C19.9445 40.419 19.7725 40.7973 19.7725 40.7973C19.7725 40.7973 21.2098 40.3672 21.2506 39.294C21.2506 39.294 21.3109 39.7808 21.2617 39.9795C21.2617 39.9795 22.5026 39.0498 22.5623 37.9816C22.6226 36.9106 21.5855 36.0082 21.1144 35.9921C20.6427 35.9759 19.5872 35.0518 19.6174 34.7041C19.6442 34.3531 18.1583 33.834 18.1583 33.834H18.1589Z" fill="#B5453C"/>
<path fill-rule="evenodd" clip-rule="evenodd" d="M29.3002 121.224L27.5419 121.876C27.5419 121.876 19.9061 111.32 18.9656 102.032C18.7993 100.377 18.854 98.7677 19.2196 97.2862C19.2196 97.2862 19.1425 96.8594 19.0125 96.1095C18.9522 95.7584 18.8785 95.3373 18.7937 94.8538C18.5458 93.4351 18.2026 91.494 17.813 89.2869C16.9154 84.2041 15.7516 77.7086 14.8457 72.9301L15.3207 72.7777L20.4475 71.1309L21.5053 67.78L25.3204 66.7769C25.3204 66.7769 26.1739 68.4404 26.9352 76.2899C27.077 77.3225 27.2048 78.4586 27.3008 79.6904C27.5978 83.4491 27.6195 88.1136 26.9374 93.4434C26.7627 94.8076 26.5423 96.2191 26.2676 97.6645C26.0678 98.7277 26.0349 100.171 26.1225 101.834C26.5065 109.426 29.3019 121.225 29.3019 121.225L29.3002 121.224Z" fill="#1C468A"/>
<path fill-rule="evenodd" clip-rule="evenodd" d="M27.2977 79.6898L19.0105 96.1095C18.9502 95.7584 18.8766 95.3373 18.7917 94.8538C18.5439 93.4351 18.2006 91.494 17.811 89.2869C16.9135 84.2041 15.7497 77.7086 14.8438 72.9301L15.3188 72.7777L20.4456 71.1309L21.5033 67.78L26.0625 66.4258C26.0625 66.4258 26.1719 68.4398 26.9333 76.2899C27.075 77.3225 27.2029 78.4586 27.2989 79.6904L27.2977 79.6898Z" fill="#1C468A"/>
<path fill-rule="evenodd" clip-rule="evenodd" d="M20.2956 27.9606L14.4353 36.8211C14.4353 36.8211 13.7649 35.5137 13.0203 35.9838C11.8588 36.7149 9.36594 34.2146 9.88449 30.6779C9.91965 30.447 9.9604 30.23 10.0067 30.0203C11.1744 28.3406 12.475 26.4707 13.4049 25.1572C16.0964 23.5382 20.2956 27.9601 20.2956 27.9601V27.9606Z" fill="#B5453C"/>
<path fill-rule="evenodd" clip-rule="evenodd" d="M22.8694 45.864C22.0483 46.6112 20.9856 47.2827 19.6052 47.8018C14.4293 49.7563 11.7679 45.5352 10.5762 42.5504C11.2504 42.0369 11.9242 41.8494 12.3104 41.7515C12.6922 41.6513 13.093 41.5668 13.429 41.5045C13.966 40.9659 14.6034 38.9708 14.4047 36.0327L14.6637 36.065L19.0325 36.6408C19.0325 36.6408 19.0219 38.0028 19.0973 39.2774C19.1603 40.2721 19.2776 41.2185 19.4958 41.4249C19.8346 41.4494 20.0389 41.4683 20.0389 41.4683L20.0406 41.4733C20.1092 41.5579 21.6035 43.3955 22.8689 45.8629L22.8694 45.864Z" fill="#FFB27D"/>
<path fill-rule="evenodd" clip-rule="evenodd" d="M19.0335 36.6448C19.0335 36.6448 19.0195 38.0034 19.0982 39.2785C16.6824 39.3631 15.2641 37.2512 14.6641 36.0662L19.0329 36.6453L19.0335 36.6448Z" fill="#EE9A5A"/>
<path fill-rule="evenodd" clip-rule="evenodd" d="M19.9176 37.7997C19.9176 37.7997 14.2125 38.2565 13.9808 34.7119C13.7514 31.1674 12.8595 28.8357 16.4926 28.3956C20.1241 27.955 20.9206 29.2624 21.2857 30.4258C21.6513 31.5919 21.3923 37.5905 19.917 37.7997H19.9176Z" fill="#FFB27D"/>
<path fill-rule="evenodd" clip-rule="evenodd" d="M20.9914 28.4664C20.0402 27.4549 19.3877 27.732 19.0338 28.0769C15.8054 26.5631 13.9533 29.2214 13.9533 29.2214C13.7345 31.7873 11.9863 33.3612 11.9863 33.3612C11.9863 33.3612 13.0697 33.937 15.428 33.1709C16.1481 32.9345 16.7699 32.3742 17.2879 31.7083C16.4177 33.3934 15.1718 34.6464 15.1718 34.6464C17.9532 33.1436 18.8496 29.0962 18.9406 28.6695C19.309 28.9604 20.0402 29.593 20.2903 30.2456C20.6341 31.1313 20.8797 32.9801 21.4195 32.8822C21.4195 32.8822 22.4175 29.9797 20.9914 28.4658V28.4664Z" fill="#B5453C"/>
<path fill-rule="evenodd" clip-rule="evenodd" d="M34.8012 124.168C33.9913 125.233 29.2714 123.967 25.9475 124.168C25.9475 124.168 25.6165 122.757 26.197 121.8C26.7127 120.952 26.5163 120.468 26.1345 119.767C26.5352 119.93 27.0532 120.08 27.6265 120.049C28.068 120.022 28.5346 119.824 28.9432 119.587C29.3222 120.019 30.956 121.862 31.4656 122.229C32.0439 122.642 34.6232 122.496 34.8007 124.167L34.8012 124.168Z" fill="#10355A"/>
<path fill-rule="evenodd" clip-rule="evenodd" d="M26.6471 46.7877C25.9388 43.2493 23.7373 42.2329 23.7373 42.2329C23.7373 42.2329 23.3723 41.6837 21.3299 41.5958C21.0107 41.583 20.6646 41.518 20.2772 41.4879C20.2007 41.479 20.1193 41.4768 20.0405 41.469L20.0422 41.474C20.1187 41.5942 22.1806 44.7515 22.0662 45.6027C21.9489 46.4645 14.4471 46.1707 13.9023 45.7329C13.4658 45.3802 12.7073 43.0368 12.4265 42.1177C12.3562 41.8902 12.3121 41.7483 12.3121 41.7483C12.3121 41.7483 9.69143 42.205 8.45898 43.2215C8.45898 43.2215 9.40286 44.2547 10.0325 45.5215C10.0928 45.6433 10.1503 45.7629 10.2044 45.8881C10.316 46.1463 10.4087 46.4128 10.4768 46.6815C10.5667 47.032 10.4852 47.3936 10.2948 47.7847C10.1251 48.1436 9.85833 48.5269 9.55022 48.943C9.34871 49.2151 9.13047 49.5 8.90887 49.8076C9.06405 50.3239 9.2689 50.9415 9.49552 51.6419C9.9588 53.0795 10.5097 54.8576 10.9027 56.7737C11.0506 57.4936 11.0311 58.2358 10.8536 58.9457C10.7827 59.2256 10.6872 59.5026 10.5672 59.7691C10.3825 60.1875 10.3356 60.7644 10.1251 61.3024C9.26945 63.5173 8.27925 66.4064 9.26945 67.9125C9.93201 69.8419 25.2545 65.1596 24.2213 63.1367C24.2213 63.1367 24.8347 52.531 25.2545 49.2451C25.269 49.1233 25.2785 49.0087 25.2874 48.8919C25.2958 48.7072 25.2958 48.5252 25.2846 48.3455C26.6131 47.7424 26.6477 46.7911 26.6477 46.7911V46.7883L26.6471 46.7877Z" fill="#F99746"/>
<path fill-rule="evenodd" clip-rule="evenodd" d="M16.0746 60.0845C13.8687 60.7911 11.7203 61.0932 10.015 61.2184C10.2255 60.6771 10.3812 60.1853 10.566 59.7697C10.686 59.5009 10.7809 59.2233 10.8523 58.944C11.0326 58.2347 11.0493 57.4925 10.9014 56.772C10.509 54.8587 9.46133 51.5918 8.99805 50.1536C10.2366 47.4008 11.5154 48.903 11.5154 48.903C11.5154 48.903 15.2591 50.5748 16.8516 53.6576C18.444 56.7431 17.9808 59.4792 16.0746 60.0857V60.0845Z" fill="#ED7D2B"/>
<path fill-rule="evenodd" clip-rule="evenodd" d="M11.3008 41.9585C11.3008 41.9585 14.8631 44.2306 15.7757 49.0142L16.8529 48.6742C16.8529 48.6742 16.4354 45.2577 12.3128 41.751L11.3013 41.9579L11.3008 41.9585Z" fill="#0E4081"/>
<path fill-rule="evenodd" clip-rule="evenodd" d="M23.8829 49.1365L22.7548 49.2099C22.9809 45.0623 20.8922 42.2271 20.2754 41.4883C20.66 41.5183 21.0116 41.5562 21.3281 41.5962C24.2814 45.8562 23.8829 49.137 23.8829 49.137V49.1365Z" fill="#0E4081"/>
<path fill-rule="evenodd" clip-rule="evenodd" d="M25.2856 67.1219L26.0849 66.777L25.2995 54.8888C25.2995 54.8888 24.5326 49.4827 24.5214 48.5369C24.5108 47.5911 23.7472 47.1316 23.7472 47.1316C23.7472 47.1316 18.127 47.4248 16.5462 47.5149C14.9616 47.6045 15.1229 48.5019 15.1229 48.5019C15.1229 48.5019 15.8122 51.3749 15.8803 51.6714C16.947 56.1857 10.8517 58.9446 10.8517 58.9446C10.8517 58.9446 9.86209 61.4939 9.09571 63.9374C7.78121 68.125 8.95393 74.1353 8.95393 74.1353C9.15544 77.3266 9.51825 90.8893 9.90004 94.904C10.0362 96.3583 10.1562 97.3909 10.2082 97.8065V97.8115C10.2249 97.9367 10.1786 98.0568 10.1155 98.1653C9.55341 99.1139 9.09013 100.1 8.70834 101.112C4.97248 111.035 9.28605 123.258 9.28605 123.258L10.4041 122.807C10.4041 122.807 12.8578 109.206 14.8516 103.199C15.1893 102.179 15.5142 101.378 15.8111 100.899C16.6785 99.505 17.4823 97.2245 18.2101 94.5145C19.5905 89.3939 20.703 82.7265 21.4425 77.5842C21.5458 77.5892 22.6069 70.3727 25.2711 67.1898C25.2951 67.1603 25.2984 67.1386 25.2844 67.1219H25.2856Z" fill="#1C468A"/>
<path fill-rule="evenodd" clip-rule="evenodd" d="M15.7304 48.5987C15.6489 48.3511 15.7879 48.0846 16.0363 48.0056C16.2874 47.9272 16.5509 48.0629 16.6307 48.3127C16.7094 48.5603 16.5738 48.8268 16.3226 48.9019C16.0748 48.9837 15.8074 48.8451 15.7309 48.5981L15.7304 48.5987Z" fill="#EA7718"/>
<path fill-rule="evenodd" clip-rule="evenodd" d="M15.8094 48.5707C15.7301 48.3237 15.8691 48.06 16.117 47.9815C16.3659 47.8998 16.6327 48.0383 16.712 48.2864C16.7912 48.5362 16.6517 48.7999 16.4044 48.8817C16.156 48.9579 15.8881 48.8216 15.8094 48.5713V48.5707Z" fill="#F49640"/>
<path fill-rule="evenodd" clip-rule="evenodd" d="M15.9688 48.4299C15.9688 48.3921 15.9989 48.3621 16.0368 48.3621C16.0748 48.3621 16.1055 48.3921 16.1055 48.4299C16.1055 48.4655 16.0754 48.4978 16.0368 48.4978C15.9983 48.4978 15.9688 48.4655 15.9688 48.4299Z" fill="#0E4081"/>
<path fill-rule="evenodd" clip-rule="evenodd" d="M16.418 48.4299C16.418 48.3921 16.4481 48.3621 16.4866 48.3621C16.5251 48.3621 16.5553 48.3921 16.5553 48.4327C16.5553 48.4683 16.5251 48.4973 16.4866 48.4973C16.4481 48.4973 16.418 48.4678 16.418 48.4294V48.4299Z" fill="#0E4081"/>
<path fill-rule="evenodd" clip-rule="evenodd" d="M22.6944 48.0005C22.6152 47.7501 22.7514 47.4842 23.0003 47.4052C23.2509 47.3295 23.5155 47.4653 23.5948 47.7123C23.674 47.9627 23.5373 48.2264 23.2867 48.3054C23.0383 48.3838 22.772 48.2481 22.695 48.0005H22.6944Z" fill="#EA7718"/>
<path fill-rule="evenodd" clip-rule="evenodd" d="M22.7743 47.9731C22.695 47.7261 22.8335 47.4591 23.0819 47.3806C23.3297 47.3016 23.5976 47.4401 23.6769 47.6877C23.7556 47.9347 23.6194 48.2012 23.3682 48.2797C23.1204 48.3592 22.8536 48.2229 22.7743 47.9731Z" fill="#F49640"/>
<path fill-rule="evenodd" clip-rule="evenodd" d="M22.9316 47.8291C22.9316 47.7935 22.964 47.7612 23.0003 47.7612C23.0366 47.7612 23.0706 47.7935 23.0706 47.8291C23.0706 47.8675 23.0377 47.897 23.0003 47.897C22.9629 47.897 22.9316 47.8675 22.9316 47.8291Z" fill="#0E4081"/>
<path fill-rule="evenodd" clip-rule="evenodd" d="M23.3828 47.8291C23.3828 47.7935 23.413 47.7612 23.4509 47.7612C23.4889 47.7612 23.519 47.7935 23.519 47.8291C23.519 47.8703 23.4889 47.897 23.4509 47.897C23.413 47.897 23.3828 47.8703 23.3828 47.8291Z" fill="#0E4081"/>
<path fill-rule="evenodd" clip-rule="evenodd" d="M10.5535 34.5057C10.5535 34.5057 10.5122 35.3508 11.0196 35.5138C11.527 35.6768 10.4994 37.4955 10.5781 38.724C10.6602 39.9496 11.2055 40.4442 11.2055 40.4442C11.2055 40.4442 10.9437 39.7671 11.0905 39.351C11.0905 39.351 11.0665 40.2183 11.7017 40.6556C12.3364 41.0929 12.165 41.4712 12.165 41.4712C12.165 41.4712 13.6051 41.0445 13.643 39.9707C13.643 39.9707 13.7056 40.4542 13.657 40.6556C13.657 40.6556 14.8973 39.7259 14.9575 38.655C15.0178 37.5868 13.9785 36.6816 13.5074 36.666C13.0352 36.6499 11.9836 35.7252 12.0132 35.3775C12.0411 35.0298 10.5541 34.5051 10.5541 34.5051L10.5535 34.5057Z" fill="#B5453C"/>
<path fill-rule="evenodd" clip-rule="evenodd" d="M10.5581 62.7104C10.5581 62.7104 12.2645 63.7842 12.5151 63.7731C13.1012 63.7508 14.2577 62.4762 15.2206 63.0665C16.1828 63.6562 17.1267 64.6377 16.7913 65.0316C16.4586 65.4255 15.3288 64.9615 14.7869 65.0399C14.2437 65.1189 12.908 65.7821 11.9614 65.4694C11.056 65.1701 9.0957 63.9361 9.0957 63.9361L10.5581 62.7104Z" fill="#FFB27D"/>
<path fill-rule="evenodd" clip-rule="evenodd" d="M8.45858 43.2219C8.45858 43.2219 2.10488 50.7049 0 54.9203C0 54.9203 2.53021 60.4077 10.7276 64.8685C10.7276 64.8685 11.0926 64.7867 11.6485 64.3895C12.5159 63.773 11.5531 63.3213 11.3656 63.1994C9.28412 61.8564 5.64929 56.0725 5.54546 55.5696C5.43885 55.0667 10.0996 50.5658 11.5151 48.9023C12.9323 47.2365 10.6611 42.3634 8.45802 43.2219H8.45858Z" fill="#FFB27D"/>
<path fill-rule="evenodd" clip-rule="evenodd" d="M8.45858 43.2221L5.60352 46.0027C5.60352 46.0027 6.2577 50.1069 10.5774 50.6455C10.5774 50.6455 14.1252 47.8136 12.0069 44.8666C9.88806 41.9146 8.45858 43.2221 8.45858 43.2221Z" fill="#F99746"/>
<path fill-rule="evenodd" clip-rule="evenodd" d="M12.5156 63.7731C12.5156 63.7731 12.6111 63.3603 12.9795 63.1973C13.3451 63.037 13.6883 62.6804 13.7157 62.7839C13.7458 62.8874 13.7704 63.061 13.5795 63.2707C13.3914 63.4771 13.0665 63.8304 12.5156 63.7737V63.7731Z" fill="#F8B57D"/>
<path fill-rule="evenodd" clip-rule="evenodd" d="M15.7917 124.168C12.9584 124.832 10.4416 124.018 6.93739 124.168C6.93739 124.168 6.72473 122.822 7.18801 121.8C7.63009 120.822 8.32557 120.376 8.15924 119.19C8.72076 119.767 9.64007 120.414 10.9189 120.242C11.0746 120.498 11.9303 121.851 12.4538 122.23C13.0327 122.643 15.6148 122.496 15.7923 124.168H15.7917Z" fill="#10355A"/>
<path fill-rule="evenodd" clip-rule="evenodd" d="M13.2987 23.5732C17.5911 22.0265 20.7788 23.7851 21.8014 27.5333L21.8315 27.6479C23.9638 27.2701 25.6383 27.3786 26.0145 27.7914L17.0681 30.2077L8.33599 32.5755L7.98211 31.2787C7.10689 28.0718 9.68677 24.875 13.2993 23.5732H13.2987Z" fill="#F19C16"/>
<path fill-rule="evenodd" clip-rule="evenodd" d="M21.802 27.5338C20.7788 23.7851 17.5916 22.0265 13.2993 23.5737C9.68677 24.8756 7.10689 28.0724 7.98211 31.2792L8.13505 31.8367L21.8321 27.6484L21.802 27.5338Z" fill="#DE7B2A"/>
<path fill-rule="evenodd" clip-rule="evenodd" d="M12.014 25.1365C15.924 23.7284 18.9186 25.0631 20.1918 28.1481L21.8306 27.6484L21.8004 27.5338C20.7773 23.7851 17.5901 22.0265 13.2978 23.5737C11.2939 24.2936 9.60822 25.5988 8.6543 27.1666C9.5697 26.3054 10.7274 25.6011 12.014 25.1365Z" fill="#F19C16"/>
</g>
<defs>
<clipPath id="clip0_3262_3044">
<rect width="148" height="129" fill="white"/>
</clipPath>
</defs>
</svg>
