<svg width="193" height="123" viewBox="0 0 193 123" fill="none" xmlns="http://www.w3.org/2000/svg">
<path d="M96.3427 122.59C149.481 122.59 192.558 119.747 192.558 116.24C192.558 112.733 149.481 109.89 96.3427 109.89C43.2042 109.89 0.126953 112.733 0.126953 116.24C0.126953 119.747 43.2042 122.59 96.3427 122.59Z" fill="#F2F4F7"/>
<path d="M142.139 118.851C165.78 118.851 184.945 118.273 184.945 117.56C184.945 116.848 165.78 116.27 142.139 116.27C118.499 116.27 99.334 116.848 99.334 117.56C99.334 118.273 118.499 118.851 142.139 118.851Z" fill="#B2C8D8"/>
<path d="M48.088 33.6977C48.088 33.6977 44.8024 29.3961 36.4143 27.7641C28.0261 26.1329 23.5 27.8897 23.5 27.8897C23.5 27.8897 24.7371 31.9048 32.5669 36.0395C40.3967 40.1742 47.7189 38.851 47.7189 38.851L48.088 33.6977Z" fill="#7CAF3F"/>
<path d="M27.4018 28.9893C29.8753 30.3323 32.4752 31.3914 35.1189 32.2887C37.7687 33.1877 40.4632 33.9216 43.1603 34.6408C44.6736 35.0443 46.1895 35.4693 47.6194 36.1429C47.7768 36.2169 47.696 36.4913 47.5368 36.4165C46.2515 35.8108 44.8956 35.4056 43.5363 35.0374C42.189 34.6726 40.8392 34.3199 39.4962 33.9379C36.7991 33.1722 34.1192 32.3205 31.515 31.2468C30.0645 30.6489 28.6398 29.9813 27.2547 29.2294C27.0999 29.1451 27.2496 28.9059 27.4027 28.9893H27.4018Z" fill="#418C7E"/>
<path d="M52.4176 32.2054C52.4176 32.2054 56.4534 30.8271 54.5581 21.1821C52.6628 11.537 46.9443 6.7915 46.9443 6.7915C46.9443 6.7915 41.9751 13.6689 44.0562 22.2953C46.1373 30.9218 50.8725 34.3123 50.8725 34.3123L52.4176 32.2054Z" fill="#7CAF3F"/>
<path d="M47.6398 12.4499C48.0768 15.4791 48.5388 18.5031 49.0266 21.5237C49.2718 23.0421 49.523 24.5598 49.7811 26.0756C50.0211 27.4874 50.2509 28.9035 50.5442 30.3041C50.8634 31.8295 51.2755 33.3385 51.9173 34.7485C51.9999 34.9301 51.7366 35.0712 51.6532 34.8888C50.4935 32.3405 50.0693 29.5066 49.5961 26.7467C49.0774 23.7149 48.5836 20.6788 48.1155 17.6376C47.8531 15.9316 47.5985 14.2239 47.3516 12.5144C47.3232 12.3157 47.6114 12.2503 47.6406 12.4499H47.6398Z" fill="#418C7E"/>
<path d="M50.4206 33.0381C50.4206 33.0381 49.6223 24.4754 43.4589 18.5589C37.2956 12.6434 30.4982 8.77365 31.2897 11.143C32.0812 13.5123 34.6002 12.4902 35.1353 21.8583C35.6704 31.2272 46.2963 38.9658 46.2963 38.9658L50.4198 33.0373L50.4206 33.0381Z" fill="#BCC100"/>
<path d="M35.6432 14.3316C38.0186 16.1968 39.5921 18.9326 40.9006 21.6934C42.2591 24.5582 43.4257 27.5392 45.2444 30.1237C46.2897 31.6094 47.4778 32.9705 48.6633 34.3289C48.7924 34.4769 48.5713 34.6842 48.4422 34.5362C47.3832 33.3232 46.3232 32.1076 45.364 30.8033C44.4331 29.5369 43.6339 28.1802 42.9258 26.7615C41.5373 23.9749 40.4438 21.0146 38.7825 18.388C37.8749 16.953 36.796 15.6247 35.4832 14.594C35.3309 14.4744 35.4918 14.2112 35.6449 14.3316H35.6432Z" fill="#7CAF3F"/>
<path d="M181.687 116.271C181.687 116.271 197.641 66.558 171.819 38.3911C145.999 10.2242 127.909 25.8459 109.888 9.69769C91.8664 -6.45053 64.3465 -0.657986 57.0639 14.9637C49.7821 30.5854 57.2566 36.0373 35.1179 37.2607C12.9793 38.484 1.26172 68.3002 1.26172 85.8645C1.26172 103.429 6.30406 116.272 6.30406 116.272H181.688L181.687 116.271Z" fill="#F2F4F7"/>
<path d="M125.527 38.646H112.807V48.7118H125.527V38.646Z" fill="#B2C8D8"/>
<path d="M122.141 38.646H109.42V48.7118H122.141V38.646Z" fill="#D1DDE8"/>
<path d="M114.841 40.3606H111.793V42.3884H114.841V40.3606Z" fill="#B2C8D8"/>
<path d="M140.016 38.646H127.295V48.7118H140.016V38.646Z" fill="#B2C8D8"/>
<path d="M136.627 38.646H123.906V48.7118H136.627V38.646Z" fill="#D1DDE8"/>
<path d="M129.327 40.3606H126.279V42.3884H129.327V40.3606Z" fill="#B2C8D8"/>
<path d="M149.607 67.6482H136.887V77.7139H149.607V67.6482Z" fill="#B2C8D8"/>
<path d="M146.221 67.6482H133.5V77.7139H146.221V67.6482Z" fill="#D1DDE8"/>
<path d="M138.921 69.363H135.873V71.3908H138.921V69.363Z" fill="#B2C8D8"/>
<path d="M105.963 66.9707H93.2422V77.0365H105.963V66.9707Z" fill="#B2C8D8"/>
<path d="M102.574 66.9707H89.8535V77.0365H102.574V66.9707Z" fill="#D1DDE8"/>
<path d="M95.2747 68.6846H92.2266V70.7123H95.2747V68.6846Z" fill="#B2C8D8"/>
<path d="M112.168 38.646H99.4473V48.7118H112.168V38.646Z" fill="#D1DDE8"/>
<path d="M108.781 38.646H96.0605V48.7118H108.781V38.646Z" fill="#F2F4F7"/>
<path d="M101.482 40.3606H98.4336V42.3884H101.482V40.3606Z" fill="#D1DDE8"/>
<path d="M107.871 48.7114H95.1504V58.7772H107.871V48.7114Z" fill="#B2C8D8"/>
<path d="M104.484 48.7114H91.7637V58.7772H104.484V48.7114Z" fill="#D1DDE8"/>
<path d="M97.1848 50.4265H94.1367V52.4543H97.1848V50.4265Z" fill="#B2C8D8"/>
<path d="M126.006 38.646H113.285V48.7118H126.006V38.646Z" fill="#D1DDE8"/>
<path d="M122.619 38.646H109.898V48.7118H122.619V38.646Z" fill="#F2F4F7"/>
<path d="M115.32 40.3606H112.271V42.3884H115.32V40.3606Z" fill="#D1DDE8"/>
<path d="M121.705 48.7119H108.984V58.7777H121.705V48.7119Z" fill="#B2C8D8"/>
<path d="M118.318 48.7119H105.598V58.7777H118.318V48.7119Z" fill="#D1DDE8"/>
<path d="M111.019 50.4265H107.971V52.4543H111.019V50.4265Z" fill="#B2C8D8"/>
<path d="M136.193 48.7117H123.473V58.7774H136.193V48.7117Z" fill="#B2C8D8"/>
<path d="M132.807 48.7117H120.086V58.7774H132.807V48.7117Z" fill="#D1DDE8"/>
<path d="M125.507 50.4263H122.459V52.454H125.507V50.4263Z" fill="#B2C8D8"/>
<path d="M130.502 58.3955H117.781V68.4613H130.502V58.3955Z" fill="#B2C8D8"/>
<path d="M127.115 58.3955H114.395V68.4613H127.115V58.3955Z" fill="#D1DDE8"/>
<path d="M119.816 60.1104H116.768V62.1381H119.816V60.1104Z" fill="#B2C8D8"/>
<path d="M144.994 58.3953H132.273V68.461H144.994V58.3953Z" fill="#B2C8D8"/>
<path d="M141.607 58.3953H128.887V68.461H141.607V58.3953Z" fill="#D1DDE8"/>
<path d="M134.308 60.1099H131.26V62.1376H134.308V60.1099Z" fill="#B2C8D8"/>
<path d="M127.469 28.5801H114.748V38.6458H127.469V28.5801Z" fill="#F2F4F7"/>
<path d="M124.082 28.5801H111.361V38.6458H124.082V28.5801Z" fill="white"/>
<path d="M116.782 30.2949H113.734V32.3227H116.782V30.2949Z" fill="#D1DDE8"/>
<path d="M110.629 58.3953H97.9082V68.461H110.629V58.3953Z" fill="#D1DDE8"/>
<path d="M107.242 58.3953H94.5215V68.461H107.242V58.3953Z" fill="#F2F4F7"/>
<path d="M99.9407 60.1099H96.8926V62.1376H99.9407V60.1099Z" fill="#D1DDE8"/>
<path d="M124.469 58.3953H111.748V68.461H124.469V58.3953Z" fill="#D1DDE8"/>
<path d="M121.084 58.3953H108.363V68.461H121.084V58.3953Z" fill="#F2F4F7"/>
<path d="M113.784 60.1099H110.736V62.1376H113.784V60.1099Z" fill="#D1DDE8"/>
<path d="M119.24 67.6484H106.52V77.7142H119.24V67.6484Z" fill="#D1DDE8"/>
<path d="M115.854 67.6484H103.133V77.7142H115.854V67.6484Z" fill="#F2F4F7"/>
<path d="M108.552 69.3633H105.504V71.3911H108.552V69.3633Z" fill="#D1DDE8"/>
<path d="M133.08 67.6484H120.359V77.7142H133.08V67.6484Z" fill="#D1DDE8"/>
<path d="M129.695 67.6484H116.975V77.7142H129.695V67.6484Z" fill="#F2F4F7"/>
<path d="M122.396 69.363H119.348V71.3908H122.396V69.363Z" fill="#D1DDE8"/>
<path d="M155.183 96.9204H138.988V107.804H155.183V96.9204Z" fill="#B2C8D8"/>
<path d="M150.87 96.9204H134.676V107.804H150.87V96.9204Z" fill="#D1DDE8"/>
<path d="M141.576 98.7744H137.695V100.967H141.576V98.7744Z" fill="#B2C8D8"/>
<path d="M99.6166 96.1877H83.4219V107.072H99.6166V96.1877Z" fill="#B2C8D8"/>
<path d="M95.3041 96.1877H79.1094V107.072H95.3041V96.1877Z" fill="#D1DDE8"/>
<path d="M86.0098 98.0417H82.1289V100.235H86.0098V98.0417Z" fill="#B2C8D8"/>
<path d="M102.05 76.4448H85.8555V87.3287H102.05V76.4448Z" fill="#B2C8D8"/>
<path d="M97.7376 76.4448H81.543V87.3287H97.7376V76.4448Z" fill="#D1DDE8"/>
<path d="M88.4434 78.2988H84.5625V80.4918H88.4434V78.2988Z" fill="#B2C8D8"/>
<path d="M119.66 76.4446H103.465V87.3285H119.66V76.4446Z" fill="#B2C8D8"/>
<path d="M115.349 76.4446H99.1543V87.3285H115.349V76.4446Z" fill="#D1DDE8"/>
<path d="M106.055 78.2986H102.174V80.4915H106.055V78.2986Z" fill="#B2C8D8"/>
<path d="M138.107 76.4451H121.912V87.329H138.107V76.4451Z" fill="#B2C8D8"/>
<path d="M133.794 76.4451H117.6V87.329H133.794V76.4451Z" fill="#D1DDE8"/>
<path d="M124.5 78.2991H120.619V80.492H124.5V78.2991Z" fill="#B2C8D8"/>
<path d="M130.861 86.916H114.666V97.7999H130.861V86.916Z" fill="#B2C8D8"/>
<path d="M126.546 86.916H110.352V97.7999H126.546V86.916Z" fill="#B2C8D8"/>
<path d="M117.252 88.7698H113.371V90.9627H117.252V88.7698Z" fill="#B2C8D8"/>
<path d="M149.304 86.9158H133.109V97.7997H149.304V86.9158Z" fill="#B2C8D8"/>
<path d="M144.994 86.9158H128.799V97.7997H144.994V86.9158Z" fill="#D1DDE8"/>
<path d="M135.699 88.77H131.818V90.963H135.699V88.77Z" fill="#B2C8D8"/>
<path d="M105.556 86.916H89.3613V97.7999H105.556V86.916Z" fill="#D1DDE8"/>
<path d="M101.245 86.916H85.0508V97.7999H101.245V86.916Z" fill="#F2F4F7"/>
<path d="M91.9512 88.7698H88.0703V90.9627H91.9512V88.7698Z" fill="#D1DDE8"/>
<path d="M123.175 86.9158H106.98V97.7997H123.175V86.9158Z" fill="#D1DDE8"/>
<path d="M118.863 86.9158H102.668V97.7997H118.863V86.9158Z" fill="#F2F4F7"/>
<path d="M109.568 88.7695H105.688V90.9625H109.568V88.7695Z" fill="#D1DDE8"/>
<path d="M173.107 67.6482H160.387V77.7139H173.107V67.6482Z" fill="#B2C8D8"/>
<path d="M169.721 67.6482H157V77.7139H169.721V67.6482Z" fill="#D1DDE8"/>
<path d="M162.421 69.3628H159.373V71.3906H162.421V69.3628Z" fill="#B2C8D8"/>
<path d="M154.004 58.3958H141.283V68.4615H154.004V58.3958Z" fill="#B2C8D8"/>
<path d="M150.615 58.3958H137.895V68.4615H150.615V58.3958Z" fill="#D1DDE8"/>
<path d="M143.316 60.1104H140.268V62.1381H143.316V60.1104Z" fill="#B2C8D8"/>
<path d="M168.494 58.3955H155.773V68.4613H168.494V58.3955Z" fill="#B2C8D8"/>
<path d="M165.107 58.3955H152.387V68.4613H165.107V58.3955Z" fill="#D1DDE8"/>
<path d="M157.808 60.1101H154.76V62.1379H157.808V60.1101Z" fill="#B2C8D8"/>
<path d="M147.971 58.3955H135.25V68.4613H147.971V58.3955Z" fill="#D1DDE8"/>
<path d="M144.584 58.3955H131.863V68.4613H144.584V58.3955Z" fill="#F2F4F7"/>
<path d="M137.284 60.1101H134.236V62.1379H137.284V60.1101Z" fill="#D1DDE8"/>
<path d="M142.744 67.6484H130.023V77.7142H142.744V67.6484Z" fill="#D1DDE8"/>
<path d="M139.359 67.6484H126.639V77.7142H139.359V67.6484Z" fill="#F2F4F7"/>
<path d="M132.06 69.363H129.012V71.3908H132.06V69.363Z" fill="#D1DDE8"/>
<path d="M156.582 67.6484H143.861V77.7142H156.582V67.6484Z" fill="#D1DDE8"/>
<path d="M153.195 67.6484H140.475V77.7142H153.195V67.6484Z" fill="#F2F4F7"/>
<path d="M145.896 69.363H142.848V71.3908H145.896V69.363Z" fill="#D1DDE8"/>
<path d="M153.872 76.4448H137.678V87.3287H153.872V76.4448Z" fill="#B2C8D8"/>
<path d="M149.56 76.4448H133.365V87.3287H149.56V76.4448Z" fill="#D1DDE8"/>
<path d="M140.266 78.2988H136.385V80.4918H140.266V78.2988Z" fill="#B2C8D8"/>
<path d="M171.646 76.4448H155.451V87.3287H171.646V76.4448Z" fill="#B2C8D8"/>
<path d="M167.331 76.4448H151.137V87.3287H167.331V76.4448Z" fill="#D1DDE8"/>
<path d="M158.037 78.2988H154.156V80.4918H158.037V78.2988Z" fill="#B2C8D8"/>
<path d="M154.359 86.9158H138.164V97.7997H154.359V86.9158Z" fill="#B2C8D8"/>
<path d="M150.046 86.9158H133.852V97.7997H150.046V86.9158Z" fill="#D1DDE8"/>
<path d="M140.752 88.77H136.871V90.963H140.752V88.77Z" fill="#B2C8D8"/>
<path d="M172.804 86.9158H156.609V97.7997H172.804V86.9158Z" fill="#B2C8D8"/>
<path d="M168.492 86.9158H152.297V97.7997H168.492V86.9158Z" fill="#D1DDE8"/>
<path d="M159.197 88.7695H155.316V90.9625H159.197V88.7695Z" fill="#B2C8D8"/>
<path d="M146.677 86.9158H130.482V97.7997H146.677V86.9158Z" fill="#D1DDE8"/>
<path d="M142.367 86.9158H126.172V97.7997H142.367V86.9158Z" fill="#F2F4F7"/>
<path d="M133.072 88.7698H129.191V90.9627H133.072V88.7698Z" fill="#D1DDE8"/>
<path d="M116.523 96.9207H100.328V107.805H116.523V96.9207Z" fill="#D1DDE8"/>
<path d="M112.212 96.9207H96.0176V107.805H112.212V96.9207Z" fill="#F2F4F7"/>
<path d="M102.918 98.7747H99.0371V100.968H102.918V98.7747Z" fill="#D1DDE8"/>
<path d="M134.142 96.9204H117.947V107.804H134.142V96.9204Z" fill="#D1DDE8"/>
<path d="M129.829 96.9204H113.635V107.804H129.829V96.9204Z" fill="#F2F4F7"/>
<path d="M120.535 98.7744H116.654V100.967H120.535V98.7744Z" fill="#D1DDE8"/>
<path d="M171.068 96.9207H154.873V107.805H171.068V96.9207Z" fill="#D1DDE8"/>
<path d="M166.755 96.9207H150.561V107.805H166.755V96.9207Z" fill="#F2F4F7"/>
<path d="M157.461 98.7747H153.58V100.968H157.461V98.7747Z" fill="#D1DDE8"/>
<path d="M103.121 58.5366L102.976 59.6576H92.2969L92.4431 58.5366H103.121Z" fill="#A1BCE2"/>
<path d="M114.238 59.6576H103.559L103.412 58.5366H114.091L114.238 59.6576Z" fill="#7997BC"/>
<path d="M102.379 64.2449L102.234 65.3659H91.5547L91.7018 64.2449H102.379Z" fill="#A1BCE2"/>
<path d="M114.981 65.3659H104.302L104.156 64.2449H114.835L114.981 65.3659Z" fill="#7997BC"/>
<path d="M101.637 69.9521L101.49 71.074H90.8125L90.9579 69.9521H101.637Z" fill="#A1BCE2"/>
<path d="M115.723 71.074H105.044L104.898 69.9521H115.577L115.723 71.074Z" fill="#7997BC"/>
<path d="M100.89 75.6604L100.745 76.7814H90.0664L90.2118 75.6604H100.89Z" fill="#A1BCE2"/>
<path d="M116.465 76.7814H105.786L105.641 75.6604H116.32L116.465 76.7814Z" fill="#7997BC"/>
<path d="M100.147 81.3667L100.002 82.4886H89.3242L89.4696 81.3667H100.147Z" fill="#A1BCE2"/>
<path d="M117.211 82.4886H106.532L106.387 81.3667H117.065L117.211 82.4886Z" fill="#7997BC"/>
<path d="M99.4057 87.075L99.2603 88.196H88.582L88.7274 87.075H99.4057Z" fill="#A1BCE2"/>
<path d="M117.953 88.196H107.276L107.129 87.075H117.808L117.953 88.196Z" fill="#7997BC"/>
<path d="M108.56 94.4989C108.539 94.5024 108.52 94.5032 108.501 94.5032C108.274 94.5032 108.077 94.3329 108.046 94.1006L107.277 88.1962L107.13 87.0752L106.533 82.4888L106.388 81.3678L105.791 76.7823L105.645 75.6613L105.048 71.075L104.903 69.954L104.306 65.3676L104.16 64.2466L103.563 59.6602L103.416 58.5392L103.271 57.4199L102.809 53.8642L102.787 53.6999C102.754 53.447 102.932 53.2147 103.183 53.1811C103.217 53.1768 103.249 53.1768 103.283 53.1786C103.284 53.1777 103.285 53.1777 103.286 53.1786C103.494 53.1984 103.669 53.361 103.697 53.5786L103.734 53.8685L104.342 58.5384L104.489 59.6594L105.086 64.2457L105.231 65.3667L105.828 69.9531L105.974 71.0741L106.571 75.6605L106.718 76.7815L107.314 81.367L107.461 82.488L108.058 87.0743L108.204 88.1953L108.957 93.9793C108.988 94.2322 108.812 94.4645 108.561 94.4972L108.56 94.4989Z" fill="#7997BC"/>
<path d="M118.314 94.4989C118.293 94.5023 118.273 94.5032 118.254 94.5032C118.027 94.5032 117.83 94.3328 117.8 94.1005L117.031 88.1962L116.885 87.0752L116.288 82.4888L116.143 81.3678L115.546 76.7823L115.401 75.6613L114.803 71.0749L114.656 69.9539L114.059 65.3675L113.914 64.2465L113.317 59.6602L113.171 58.5392L112.541 53.7007C112.509 53.4478 112.685 53.2155 112.937 53.182C113.189 53.1475 113.418 53.3274 113.451 53.5794L114.096 58.5392L114.243 59.6602L114.84 64.2465L114.987 65.3675L115.584 69.9539L115.729 71.0749L116.326 75.6613L116.472 76.7823L117.069 81.3678L117.214 82.4888L117.811 87.0752L117.957 88.1962L118.71 93.9801C118.744 94.233 118.566 94.4653 118.314 94.498L118.314 94.4989Z" fill="#7997BC"/>
<path d="M103.755 53.698L103.734 53.8666L103.271 57.418L103.126 58.5373L102.98 59.6583L102.383 64.2447L102.238 65.3657L101.641 69.952L101.494 71.073L100.896 75.6594L100.751 76.7804L100.154 81.3659L100.009 82.4869L99.4116 87.0733L99.2662 88.1943L98.4971 94.0987C98.4669 94.331 98.2699 94.5013 98.0428 94.5013C98.023 94.5013 98.0024 94.5005 97.9834 94.497C97.7322 94.4643 97.5559 94.232 97.5877 93.9791L98.3413 88.1952L98.4867 87.0742L99.0838 82.4878L99.2292 81.3668L99.8263 76.7813L99.9716 75.6603L100.569 71.0739L100.714 69.9529L101.311 65.3665L101.458 64.2455L102.054 59.6592L102.202 58.5382L102.811 53.8632L102.848 53.5776C102.878 53.3522 103.065 53.1844 103.285 53.1775C103.286 53.1767 103.287 53.1767 103.288 53.1775C103.313 53.1749 103.337 53.1767 103.363 53.1801C103.614 53.2136 103.791 53.4459 103.759 53.6989L103.755 53.698Z" fill="#A1BCE2"/>
<path d="M94.0005 53.6982L93.3699 58.5367L93.2245 59.6577L92.6274 64.244L92.482 65.365L91.885 69.9514L91.7379 71.0724L91.1408 75.6588L90.9954 76.7798L90.3983 81.3653L90.253 82.4863L89.6559 87.0727L89.5105 88.1937L88.7414 94.098C88.7113 94.3303 88.5142 94.5007 88.2871 94.5007C88.2673 94.5007 88.2467 94.4998 88.2278 94.4964C87.9765 94.4637 87.7993 94.2314 87.832 93.9785L88.5857 88.1945L88.731 87.0735L89.3281 82.4871L89.4735 81.3661L90.0706 76.7806L90.216 75.6596L90.813 71.0733L90.9584 69.9523L91.5555 65.3659L91.7026 64.2449L92.2988 59.6585L92.4459 58.5375L93.0912 53.5778C93.1247 53.3257 93.3544 53.1468 93.6056 53.1803C93.8568 53.2139 94.0332 53.4461 94.0014 53.6991L94.0005 53.6982Z" fill="#A1BCE2"/>
<path d="M114.262 52.3389H92.3347C91.8748 52.3389 91.502 52.7117 91.502 53.1717V54.2212C91.502 54.6812 91.8748 55.054 92.3347 55.054H114.262C114.722 55.054 115.095 54.6812 115.095 54.2212V53.1717C115.095 52.7117 114.722 52.3389 114.262 52.3389Z" fill="#A1BCE2"/>
<path d="M18.4707 91.3291C18.4974 92.0397 18.5292 92.7443 18.5645 93.4421C18.8054 98.2168 19.2441 102.728 19.8033 106.908C19.8971 107.622 19.9961 108.327 20.0984 109.021H177.713C178.56 109.021 179.381 108.902 180.158 108.678C181.618 108.26 182.924 107.475 183.968 106.43C185.569 104.829 186.558 102.619 186.558 100.175C186.558 96.411 184.205 93.1951 180.891 91.9184C180.652 91.8264 180.407 91.7438 180.158 91.6724C179.382 91.4487 178.561 91.33 177.713 91.33H18.4707V91.3291Z" fill="#3A4680"/>
<path d="M18.5645 93.4421C18.8053 98.2169 19.2441 102.728 19.8033 106.908H177.712C178.562 106.908 179.389 106.751 180.157 106.451C180.884 106.17 181.559 105.76 182.154 105.235C182.264 105.139 182.37 105.04 182.474 104.937C182.648 104.762 182.813 104.579 182.966 104.387C183.925 103.196 184.445 101.726 184.445 100.174C184.445 98.6221 183.891 97.1217 182.966 95.9689C182.78 95.7358 182.577 95.5155 182.362 95.3108C181.731 94.7085 180.984 94.2259 180.157 93.9024C179.399 93.6056 178.574 93.4421 177.712 93.4421H18.5645Z" fill="#B2C8D8"/>
<path d="M80.0609 95.8975H61.5605V104.474H80.0609V95.8975Z" fill="#728CB2"/>
<path d="M62.1125 104.488C64.4948 104.488 66.4261 102.556 66.4261 100.174C66.4261 97.7916 64.4948 95.8604 62.1125 95.8604C59.7301 95.8604 57.7988 97.7916 57.7988 100.174C57.7988 102.556 59.7301 104.488 62.1125 104.488Z" fill="#D1DDE8"/>
<path d="M63.0494 102.422C64.2853 101.899 64.8638 100.474 64.3415 99.2379C63.8192 98.002 62.3938 97.4235 61.1578 97.9458C59.9219 98.4682 59.3434 99.8935 59.8657 101.129C60.388 102.365 61.8134 102.944 63.0494 102.422Z" fill="#728CB2"/>
<path d="M79.7316 104.488C82.114 104.488 84.0453 102.556 84.0453 100.174C84.0453 97.7916 82.114 95.8604 79.7316 95.8604C77.3493 95.8604 75.418 97.7916 75.418 100.174C75.418 102.556 77.3493 104.488 79.7316 104.488Z" fill="#D1DDE8"/>
<path d="M82.0939 100.726C82.4021 99.4198 81.5933 98.1113 80.2874 97.8031C78.9815 97.4948 77.673 98.3036 77.3647 99.6095C77.0565 100.915 77.8653 102.224 79.1712 102.532C80.4771 102.84 81.7857 102.032 82.0939 100.726Z" fill="#728CB2"/>
<path d="M49.0843 95.8975H30.584V104.474H49.0843V95.8975Z" fill="#728CB2"/>
<path d="M31.1379 104.488C33.5202 104.488 35.4515 102.556 35.4515 100.174C35.4515 97.7916 33.5202 95.8604 31.1379 95.8604C28.7555 95.8604 26.8242 97.7916 26.8242 100.174C26.8242 102.556 28.7555 104.488 31.1379 104.488Z" fill="#D1DDE8"/>
<path d="M32.855 101.892C33.8038 100.943 33.8038 99.4047 32.855 98.4559C31.9062 97.5071 30.3679 97.5071 29.4191 98.4559C28.4703 99.4047 28.4703 100.943 29.4191 101.892C30.3679 102.841 31.9062 102.841 32.855 101.892Z" fill="#728CB2"/>
<path d="M48.757 104.488C51.1394 104.488 53.0707 102.556 53.0707 100.174C53.0707 97.7916 51.1394 95.8604 48.757 95.8604C46.3746 95.8604 44.4434 97.7916 44.4434 100.174C44.4434 102.556 46.3746 104.488 48.757 104.488Z" fill="#D1DDE8"/>
<path d="M50.3403 102.012C51.3609 101.141 51.4822 99.607 50.6111 98.5864C49.74 97.5658 48.2065 97.4445 47.1859 98.3156C46.1653 99.1867 46.044 100.72 46.9151 101.741C47.7862 102.761 49.3197 102.883 50.3403 102.012Z" fill="#728CB2"/>
<path d="M111.332 95.8975H92.832V104.474H111.332V95.8975Z" fill="#728CB2"/>
<path d="M93.3859 104.488C95.7683 104.488 97.6996 102.556 97.6996 100.174C97.6996 97.7916 95.7683 95.8604 93.3859 95.8604C91.0036 95.8604 89.0723 97.7916 89.0723 100.174C89.0723 102.556 91.0036 104.488 93.3859 104.488Z" fill="#D1DDE8"/>
<path d="M95.7462 100.725C96.0545 99.4186 95.2457 98.1101 93.9397 97.8018C92.6338 97.4936 91.3253 98.3024 91.0171 99.6083C90.7089 100.914 91.5176 102.223 92.8236 102.531C94.1295 102.839 95.438 102.03 95.7462 100.725Z" fill="#728CB2"/>
<path d="M111.005 104.488C113.387 104.488 115.319 102.556 115.319 100.174C115.319 97.7916 113.387 95.8604 111.005 95.8604C108.623 95.8604 106.691 97.7916 106.691 100.174C106.691 102.556 108.623 104.488 111.005 104.488Z" fill="#D1DDE8"/>
<path d="M113.365 100.725C113.674 99.4193 112.865 98.1108 111.559 97.8026C110.253 97.4943 108.944 98.3031 108.636 99.6091C108.328 100.915 109.137 102.223 110.443 102.532C111.749 102.84 113.057 102.031 113.365 100.725Z" fill="#728CB2"/>
<path d="M142.606 95.8977H124.105V104.474H142.606V95.8977Z" fill="#728CB2"/>
<path d="M124.657 104.488C127.04 104.488 128.971 102.557 128.971 100.174C128.971 97.7919 127.04 95.8606 124.657 95.8606C122.275 95.8606 120.344 97.7919 120.344 100.174C120.344 102.557 122.275 104.488 124.657 104.488Z" fill="#D1DDE8"/>
<path d="M127.018 100.725C127.326 99.4196 126.517 98.111 125.211 97.8028C123.905 97.4946 122.597 98.3034 122.289 99.6093C121.98 100.915 122.789 102.224 124.095 102.532C125.401 102.84 126.709 102.031 127.018 100.725Z" fill="#728CB2"/>
<path d="M142.278 104.488C144.661 104.488 146.592 102.557 146.592 100.174C146.592 97.7919 144.661 95.8606 142.278 95.8606C139.896 95.8606 137.965 97.7919 137.965 100.174C137.965 102.557 139.896 104.488 142.278 104.488Z" fill="#D1DDE8"/>
<path d="M144.637 100.725C144.945 99.4186 144.136 98.1101 142.83 97.8018C141.524 97.4936 140.216 98.3024 139.908 99.6083C139.599 100.914 140.408 102.223 141.714 102.531C143.02 102.839 144.329 102.03 144.637 100.725Z" fill="#728CB2"/>
<path d="M173.883 95.8972H155.383V104.474H173.883V95.8972Z" fill="#728CB2"/>
<path d="M155.935 104.488C158.317 104.488 160.248 102.556 160.248 100.174C160.248 97.7916 158.317 95.8604 155.935 95.8604C153.552 95.8604 151.621 97.7916 151.621 100.174C151.621 102.556 153.552 104.488 155.935 104.488Z" fill="#D1DDE8"/>
<path d="M158.293 100.725C158.601 99.4186 157.793 98.1101 156.487 97.8018C155.181 97.4936 153.872 98.3024 153.564 99.6083C153.256 100.914 154.065 102.223 155.37 102.531C156.676 102.839 157.985 102.03 158.293 100.725Z" fill="#728CB2"/>
<path d="M173.556 104.488C175.938 104.488 177.869 102.556 177.869 100.174C177.869 97.7916 175.938 95.8604 173.556 95.8604C171.173 95.8604 169.242 97.7916 169.242 100.174C169.242 102.556 171.173 104.488 173.556 104.488Z" fill="#D1DDE8"/>
<path d="M175.273 101.892C176.222 100.943 176.222 99.4049 175.273 98.4561C174.324 97.5073 172.786 97.5073 171.837 98.4561C170.888 99.4049 170.888 100.943 171.837 101.892C172.786 102.841 174.324 102.841 175.273 101.892Z" fill="#728CB2"/>
<path d="M174.381 109.02H23.8828V115.369H174.381V109.02Z" fill="#D1DDE8"/>
<path d="M174.381 109.02H23.8828V110.759H174.381V109.02Z" fill="#728CB2"/>
<path d="M108.928 19.4874C108.928 19.4874 108.778 21.6485 107.908 22.5699C107.039 23.4913 107.107 24.4635 107.107 24.4635C107.107 24.4635 103.947 23.167 104.503 21.2046C105.059 19.2422 107.082 18.0429 108.929 19.4874H108.928Z" fill="#3A4680"/>
<path d="M101.971 19.2947C101.971 19.2947 102.005 22.7927 102.448 23.5094C102.892 24.226 103.301 24.3568 103.301 24.3568C103.301 24.3568 101.97 25.7617 102.482 26.7683C102.994 27.7749 103.932 29.055 103.932 29.055L105.638 29.4835L107.566 27.2458L108.078 25.2834L107.959 24.2768C107.959 24.2768 107.072 23.3898 107.054 22.8435C107.037 22.2972 107.072 22.0417 107.072 22.0417C107.072 22.0417 108.163 22.1785 108.078 21.4954C107.993 20.8131 107.651 20.5912 107.361 20.6419C107.072 20.6927 106.884 21.1366 106.884 21.1366C106.884 21.1366 106.321 21.4438 106.321 21.171V19.5166L101.971 19.2947Z" fill="#FFD2D4"/>
<path d="M108.929 19.4875C108.929 19.4875 108.852 19.4978 108.714 19.5159C107.253 18.7717 104.842 18.1661 101.674 18.4405C102.052 16.7637 103.043 15.7864 104.386 15.4208C104.725 15.3287 105.085 15.2754 105.463 15.2608C105.729 15.2496 106.005 15.2565 106.288 15.2831C106.346 15.2883 106.405 15.2943 106.463 15.3012C106.852 15.3459 107.181 15.4896 107.456 15.6987C107.651 15.8441 107.82 16.0239 107.966 16.2243C108.097 16.4024 108.211 16.5968 108.308 16.7982C108.89 18.0026 108.927 19.4875 108.927 19.4875H108.929Z" fill="#FFBD52"/>
<path d="M108.713 19.5166C107.578 19.6646 102.284 20.3081 100.845 19.5786C99.2677 18.7785 101.561 18.4567 101.67 18.4421C101.671 18.4421 101.672 18.4421 101.674 18.4421C104.843 18.1676 107.253 18.7733 108.714 19.5175L108.713 19.5166Z" fill="#FF8E50"/>
<path d="M104.386 15.4217C104.724 15.3297 105.084 15.2763 105.462 15.2617C104.916 16.03 103.727 17.6362 103.483 17.3867C103.268 17.1665 103.932 16.0945 104.386 15.4217Z" fill="#FF8E50"/>
<path d="M107.456 15.6997C106.773 16.1918 105.726 16.9016 105.53 16.7811C105.328 16.6564 105.903 15.8073 106.286 15.2842C106.345 15.2893 106.403 15.2954 106.462 15.3022C106.851 15.347 107.179 15.4907 107.455 15.6997H107.456Z" fill="#FF8E50"/>
<path d="M108.307 16.7992C107.562 17.4023 106.753 18.0139 106.621 17.9185C106.444 17.7894 107.394 16.7957 107.965 16.2253C108.096 16.4034 108.209 16.5979 108.307 16.7992Z" fill="#FF8E50"/>
<path d="M103.132 24.3405C104.016 24.6468 105.033 24.4997 105.812 23.9878C106.036 23.8407 106.239 23.6652 106.413 23.463C106.476 23.3899 106.37 23.2832 106.307 23.3563C105.717 24.036 104.81 24.3973 103.916 24.3448C103.662 24.3302 103.412 24.2786 103.172 24.196C103.08 24.1642 103.041 24.3096 103.132 24.3414V24.3405Z" fill="#EA7D88"/>
<path d="M119.506 24.9847C119.506 24.9847 122.677 23.1677 123.462 24.2363C124.246 25.3056 121.967 26.6615 120.415 26.4826C118.864 26.3036 117.974 26.0894 119.506 24.9847Z" fill="#FFD2D4"/>
<path d="M88.9661 26.9448C88.8302 26.888 86.6501 25.5906 85.1532 26.7667C83.6562 27.9427 85.1532 28.9407 87.0596 28.7626C88.9661 28.5845 90.0707 27.405 88.9661 26.9456V26.9448Z" fill="#FFD2D4"/>
<path d="M120.41 26.7548C120.362 27.8001 109.862 27.8947 109.862 27.8947L109.813 34.9261C109.813 34.9261 110.336 36.5427 110.289 39.8213C110.241 43.1 108.911 53.7422 108.911 53.7422H105.347C105.157 53.7422 104.445 38.5859 104.445 38.5859L99.5502 43.6696L101.403 49.1816C101.403 49.1816 99.17 50.085 98.7906 50.1796C98.4094 50.2742 94.6567 43.3375 94.7402 42.435C94.8253 41.5317 99.6448 37.4469 99.6448 37.4469L99.6922 32.457L99.5149 31.4453V31.4435L99.0753 28.9409L88.5742 29.3676C88.5742 29.3676 87.9574 27.326 88.0993 26.6602C88.2275 26.0614 98.517 24.9619 100.919 24.7477C101.187 24.7236 101.356 24.7115 101.403 24.7115L102.576 24.3915L102.971 24.284C102.971 24.284 103.637 25.3292 105.49 25.1873C107.342 25.0453 107.342 24.0474 107.342 24.0474H108.625C108.683 24.0474 108.869 24.056 109.155 24.0697C111.465 24.1859 120.266 24.7115 120.266 24.7115C120.266 24.7115 120.456 25.7095 120.408 26.7548H120.41Z" fill="#3A4680"/>
<path d="M110.288 39.8212C110.241 43.0999 108.911 53.7421 108.911 53.7421H105.347C105.156 53.7421 104.445 38.5858 104.445 38.5858L99.5497 43.6694L101.403 49.1815C101.403 49.1815 99.1694 50.0849 98.79 50.1795C98.4089 50.2741 94.6562 43.3374 94.7397 42.4349C94.8248 41.5315 99.6443 37.4467 99.6443 37.4467L99.6917 32.4569L99.5144 31.4451V31.4434C99.7278 30.8446 100.049 31.0425 100.405 30.2235C100.761 29.4045 100.918 24.7493 100.918 24.7493V24.7475C101.186 24.7235 101.356 24.7114 101.403 24.7114L102.575 24.3914C102.84 25.6363 103.173 27.0825 103.399 27.6098C103.825 28.6078 105.489 29.5111 106.819 28.323C107.721 27.5161 107.925 25.3541 107.963 24.0464H108.624C108.682 24.0464 108.869 24.055 109.154 24.0688L109.861 27.8946L109.812 34.926C109.812 34.926 110.335 36.5425 110.287 39.8212H110.288Z" fill="#FF8E50"/>
<path d="M102.72 30.5797C102.72 30.5797 102.186 34.464 105.322 34.4279C108.458 34.3926 108.315 30.7578 107.709 30.3655C107.103 29.9732 102.754 30.0102 102.72 30.5797Z" fill="#FFBD52"/>
<path d="M108.911 53.6965C108.911 53.6965 111.091 57.5835 110.292 58.2631C109.493 58.9436 105.074 58.9918 104.789 58.2631C104.504 57.5344 105.347 53.6965 105.347 53.6965H108.911Z" fill="#3A4680"/>
<path d="M101.404 49.1814C101.404 49.1814 102.437 50.7136 102.33 51.1059C102.224 51.4982 96.9138 52.781 96.6996 52.1753C96.4854 51.5696 98.791 50.1794 98.791 50.1794L101.404 49.1814Z" fill="#3A4680"/>
<path d="M181.938 63.2826C181.938 63.2826 181.733 66.2464 180.539 67.5094C179.345 68.7723 179.44 70.1067 179.44 70.1067C179.44 70.1067 175.107 68.3284 175.869 65.6373C176.631 62.9462 179.405 61.3013 181.938 63.2818V63.2826Z" fill="#3A4680"/>
<path d="M172.396 63.0166C172.396 63.0166 172.443 67.8129 173.052 68.7962C173.66 69.7787 174.221 69.9585 174.221 69.9585C174.221 69.9585 172.396 71.8848 173.098 73.2656C173.801 74.6464 175.088 76.4006 175.088 76.4006L177.428 76.9882L180.071 73.9203L180.773 71.2292L180.61 69.8484C180.61 69.8484 179.393 68.6319 179.37 67.8826C179.347 67.1341 179.393 66.7831 179.393 66.7831C179.393 66.7831 180.891 66.9706 180.774 66.0346C180.657 65.0986 180.189 64.7949 179.792 64.8646C179.394 64.9351 179.136 65.5434 179.136 65.5434C179.136 65.5434 178.364 65.9649 178.364 65.5898V63.3212L172.397 63.0166H172.396Z" fill="#FFD2D4"/>
<path d="M183.72 111.873C183.72 111.873 185.499 115.055 185.499 115.617C185.499 116.179 184.797 116.974 184.422 117.021C184.048 117.067 179.555 117.021 179.555 117.021C179.555 117.021 178.807 116.272 179.275 115.477C179.743 114.681 180.344 113.477 180.344 113.477L183.72 111.874V111.873Z" fill="#627DD4"/>
<path d="M173.286 113.698C173.286 113.698 174.316 116.038 174.128 116.412C173.941 116.786 172.912 117.041 172.912 117.041H164.676C164.676 117.041 164.254 115.777 165.05 115.369C165.846 114.961 168.537 113.698 168.537 113.698H173.287H173.286Z" fill="#627DD4"/>
<path d="M181.396 86.9304L184.422 113.089L180.398 113.698L175.016 91.4222L173.285 113.698H168.535L169.134 86.9304H181.396Z" fill="#3A4680"/>
<path d="M171.988 69.7456C171.988 69.7456 170.977 70.0682 170.478 70.8245C169.979 71.5807 163.29 78.9123 163.29 78.9123L161.486 81.4081C161.486 81.4081 163.052 83.9564 164.145 84.211C165.236 84.4657 168.297 82.3269 169.012 81.5931C169.726 80.8601 171.988 77.4773 171.988 77.4773V69.7456Z" fill="#627DD4"/>
<path d="M185.293 70.8631C185.293 71.0817 184.639 72.5167 184.639 72.5167L183.341 78.0959L182.767 80.5658C182.767 80.5658 182.638 81.1543 182.532 81.8434C182.458 82.3226 182.394 82.8509 182.392 83.2612V83.2802C182.392 83.5623 182.375 83.885 182.351 84.211C182.291 85.0387 182.191 85.8895 182.236 86.1812C182.298 86.5872 181.955 87.5852 181.644 87.6471C181.332 87.7091 174.842 87.9276 172.846 87.6162C170.849 87.3047 168.79 87.4605 168.572 86.743C168.49 86.4728 168.54 85.3793 168.705 83.891C168.761 83.3705 168.834 82.8027 168.919 82.203C168.982 81.7548 169.053 81.2894 169.131 80.8145C169.284 79.8888 169.463 78.9295 169.667 77.9918C169.879 77.0144 170.117 76.0629 170.381 75.1992C171.691 70.8941 171.878 69.4582 172.284 69.3653C172.689 69.2716 173.999 69.521 174.218 69.9581C174.218 69.9581 174.873 75.4168 175.279 75.2929C175.684 75.1682 179.803 68.9919 179.803 68.9919C179.803 68.9919 181.738 68.9919 183.047 69.4591C184.357 69.9271 185.293 70.6446 185.293 70.8631Z" fill="#FF8E50"/>
<path d="M182.393 83.2603V83.2793C182.393 83.5615 182.376 83.8841 182.351 84.2101L168.705 83.8901C168.762 83.3696 168.834 82.8018 168.919 82.2021L182.393 83.2595V83.2603Z" fill="#FFBD52"/>
<path d="M183.341 78.096L182.766 80.5659C182.766 80.5659 182.638 81.1544 182.531 81.8435L169.131 80.8154C169.283 79.8897 169.462 78.9305 169.666 77.9927C173.956 77.9385 181.035 77.8792 182.734 78.0392C182.955 78.0607 183.157 78.0796 183.34 78.096H183.341Z" fill="#FFBD52"/>
<path d="M185.143 71.1064C184.401 70.5782 183.36 70.8199 182.901 71.6054C182.377 72.5027 181.636 74.1304 182.146 75.5112C182.894 77.539 185.296 79.473 185.296 79.473C185.296 79.473 183.019 82.0316 182.645 82.4988C182.27 82.9668 181.802 82.9143 181.974 83.5595C182.147 84.2048 183.17 85.8368 183.344 85.8678C183.518 85.8988 187.886 81.6875 189.102 80.8762C190.319 80.0649 190.631 78.8562 190.443 78.3847C190.256 77.9133 188.447 75.7289 188.166 75.3237C187.964 75.032 186.648 72.1784 185.142 71.1055L185.143 71.1064Z" fill="#627DD4"/>
<path d="M160.37 79.6063L155.363 72.5637L163.365 71.0659L169.135 80.8142L162.569 82.2028L160.37 79.6063Z" fill="#3A4680"/>
<path d="M159.684 81.4081C159.684 81.4081 159.621 78.6 160.714 79.0999C161.806 79.5989 163.709 81.3135 163.21 82.2039C162.711 83.0935 159.841 82.844 159.684 81.409V81.4081Z" fill="#FFD2D4"/>
<path d="M181.937 63.2827C181.937 63.2827 181.833 63.2973 181.642 63.3223C179.638 62.302 176.333 61.4709 171.988 61.8477C172.508 59.5481 173.867 58.2077 175.708 57.707C176.172 57.5805 176.666 57.5082 177.185 57.4867C177.55 57.4712 177.928 57.4816 178.317 57.5168C178.397 57.5246 178.477 57.5323 178.558 57.5418C179.091 57.6029 179.541 57.7999 179.92 58.0872C180.187 58.2868 180.419 58.5337 180.62 58.8073C180.8 59.0508 180.955 59.3175 181.088 59.5945C181.886 61.2463 181.937 63.2818 181.937 63.2818V63.2827Z" fill="#FFBD52"/>
<path d="M181.643 63.3222C180.086 63.5252 172.827 64.4079 170.853 63.4074C168.69 62.3105 171.835 61.8682 171.983 61.8485C171.985 61.8476 171.986 61.8476 171.988 61.8476C176.333 61.4708 179.638 62.3019 181.642 63.3222H181.643Z" fill="#FF8E50"/>
<path d="M175.708 57.7071C176.172 57.5806 176.666 57.5083 177.185 57.4868C176.437 58.5398 174.805 60.7431 174.471 60.4007C174.176 60.0979 175.087 58.6285 175.708 57.7062V57.7071Z" fill="#FF8E50"/>
<path d="M179.921 58.0871C178.985 58.7616 177.549 59.7346 177.28 59.5703C177.002 59.3991 177.791 58.2351 178.318 57.5176C178.398 57.5253 178.478 57.5331 178.559 57.5425C179.092 57.6036 179.542 57.8006 179.921 58.088V58.0871Z" fill="#FF8E50"/>
<path d="M181.089 59.5946C180.066 60.4213 178.958 61.261 178.778 61.1294C178.535 60.9522 179.837 59.5894 180.621 58.8074C180.8 59.0508 180.955 59.3175 181.089 59.5946Z" fill="#FF8E50"/>
<path d="M173.99 69.9373C175.202 70.358 176.597 70.1558 177.665 69.4538C177.971 69.2525 178.25 69.0107 178.49 68.7337C178.577 68.6339 178.432 68.4877 178.345 68.5883C177.537 69.52 176.293 70.0156 175.066 69.9433C174.718 69.9227 174.375 69.853 174.046 69.7386C173.92 69.6947 173.866 69.8943 173.991 69.9373H173.99Z" fill="#EA7D88"/>
<path d="M182.044 83.7634C182.044 83.7634 180.525 84.216 180.4 84.8715C180.275 85.5271 180.667 86.9475 181.398 86.9303C182.13 86.9139 183.094 85.6037 183.094 85.6037L182.044 83.7634Z" fill="#FFD2D4"/>
<path d="M147.692 79.897L148.413 80.5999C148.413 80.5999 150.542 76.916 150.577 76.6639C150.612 76.4118 151.345 73.9616 151.484 73.9126C151.624 73.8636 151.484 75.2951 151.484 75.2951C151.484 75.2951 152.462 75.3958 152.531 75.9215C152.601 76.4471 151.659 81.9377 151.205 82.8221C150.751 83.7065 149.494 84.695 148.342 84.6546C147.19 84.6141 145.217 82.151 145.217 82.151L147.691 79.897H147.692Z" fill="#FFD2D4"/>
<path d="M135.842 68.7578C135.842 68.7578 134.982 68.7775 134.125 67.0638C133.268 65.35 133.25 65.0154 133.25 65.0154C133.25 65.0154 136.908 63.9348 139.139 63.9727C141.371 64.0096 142.525 64.1404 142.525 64.8295C142.525 65.5186 141.482 67.623 141.482 67.623C141.482 67.623 139.843 69.1501 139.601 69.7093C139.359 70.2676 136.77 69.9699 136.77 69.9699L135.842 68.7586V68.7578Z" fill="#3A4680"/>
<path d="M141.275 66.3927C141.275 66.3927 140.437 65.5358 140.102 66.2068C139.766 66.877 140.287 67.4543 140.306 67.5292C140.325 67.604 140.455 68.6656 140.158 68.7586C139.86 68.8515 136.358 69.0752 136.116 68.8334C135.874 68.5917 135.836 68.6656 135.836 68.6656C135.836 68.6656 135.967 71.515 135.761 71.8316C135.557 72.1482 138.201 72.5018 138.201 72.5018C138.201 72.5018 140.939 72.4459 140.921 72.39C140.902 72.334 140.529 69.8383 140.529 69.4287V68.7396C140.529 68.7396 141.423 69.0932 141.722 68.442C142.019 67.7898 142.523 66.8676 142.523 65.9505V64.8286H141.293C141.293 64.8286 141.703 66.6542 141.479 66.9149C141.255 67.1756 141.274 66.3935 141.274 66.3935L141.275 66.3927Z" fill="#FFD2D4"/>
<path d="M133.249 65.0162C133.249 65.0162 132.802 65.0833 132.746 64.8493C132.69 64.6153 132.578 57.1537 137.57 57.4428C142.561 57.7318 142.859 61.605 142.934 62.5617C143.009 63.5183 143.108 63.853 143.232 63.9193C143.356 63.9864 145.069 64.8871 144.982 64.8484C144.896 64.8097 142.15 64.204 139.138 64.2978C136.126 64.3916 133.249 65.0153 133.249 65.0153V65.0162Z" fill="#FFBD52"/>
<path d="M130.513 112.476C130.414 112.699 128.346 114.543 127.564 114.934C126.782 115.326 124.645 115.94 124.792 116.443C124.939 116.947 125.386 117.561 125.386 117.561H133.376C133.376 117.561 133.99 115.063 133.934 114.244C133.878 113.426 133.655 113.035 133.655 113.035L130.513 112.476V112.476Z" fill="#627DD4"/>
<path d="M145.567 112.476C145.666 112.699 147.733 114.543 148.515 114.934C149.297 115.326 151.434 115.94 151.288 116.443C151.142 116.947 150.694 117.561 150.694 117.561H142.705C142.705 117.561 142.09 115.063 142.146 114.244C142.202 113.426 142.426 113.035 142.426 113.035L145.568 112.476L145.567 112.476Z" fill="#627DD4"/>
<path d="M132.798 89.9025C132.798 89.9025 130.612 103.48 130.513 106.106C130.414 108.731 129.408 112.308 129.688 113.09C129.967 113.872 134.27 114.263 134.27 114.096C134.27 113.928 139.242 95.6013 139.242 95.6013C139.242 95.6013 141.589 113.726 142.092 114.134C142.595 114.543 146.562 113.705 146.674 113.314C146.786 112.922 146.761 94.882 145.599 90.7723C144.439 86.6617 132.798 89.9025 132.798 89.9025Z" fill="#3A4680"/>
<path d="M138.877 73.308L142.019 83.0305L144.403 83.2533L144.254 81.5396C144.254 81.5396 145.149 82.6941 145.708 82.8799C145.809 82.9135 145.957 82.8662 146.132 82.7638C146.819 82.3612 147.917 81.1137 148.182 80.6259C148.223 80.5493 148.244 80.4917 148.24 80.459C148.203 80.1613 144.366 72.3384 143.435 71.5564C142.503 70.7744 141.571 70.4758 141.571 70.4758L138.877 73.3071V73.308Z" fill="#3A4680"/>
<path d="M127.658 79.5202C127.658 79.5202 124.287 76.1761 124.25 75.5429C124.213 74.9097 124.064 72.8613 123.43 72.1902C122.796 71.52 123.393 72.8983 123.094 73.1211C122.796 73.3448 121.716 72.8604 121.604 73.5685C121.492 74.2765 122.87 76.2501 123.168 76.8833C123.466 77.5165 126.317 82.4564 127.424 83.6187C128.532 84.7802 127.656 79.5193 127.656 79.5193L127.658 79.5202Z" fill="#FFD2D4"/>
<path d="M133.413 71.3332C133.413 71.3332 132.147 71.2214 131.438 72.9721C130.73 74.7229 127.564 79.3049 127.564 79.7884C127.564 80.2719 128.161 81.9487 128.57 82.9544C128.98 83.9601 128.719 84.7052 129.39 84.4815C130.06 84.2578 134.567 78.9686 134.567 78.9686L133.413 71.3324V71.3332Z" fill="#3A4680"/>
<path d="M130.506 84.1849C130.506 84.1849 128.335 78.7829 128.005 78.8767C127.676 78.9705 127.377 79.0445 127.377 79.0445C127.377 79.0445 127.414 80.4597 127.377 80.981C127.34 81.5024 127.005 82.8806 127.116 83.1413C127.228 83.402 128.197 84.7054 128.532 84.7802C128.867 84.8551 130.622 84.4722 130.506 84.184V84.1849Z" fill="#627DD4"/>
<path d="M132.855 76.9212C132.882 77.2585 132.868 78.8363 132.837 80.7437C132.825 81.4629 132.812 82.2286 132.797 82.9934C132.786 83.5087 132.776 84.0241 132.766 84.523C132.758 84.9093 132.75 85.287 132.742 85.6475C132.708 87.1548 132.679 88.3756 132.668 88.804C132.631 90.1831 132.445 90.8163 132.855 91.0761C133.264 91.3376 139.001 91.7472 142.205 91.6723C145.408 91.5983 145.668 90.7044 145.706 90.5547C145.728 90.4704 145.325 87.8697 144.975 85.6475C144.913 85.256 144.853 84.8758 144.798 84.523C144.698 83.8959 144.612 83.3547 144.554 82.9934C144.504 82.6888 144.476 82.509 144.476 82.509C144.476 82.509 143.687 81.7081 143.018 80.7437C142.513 80.0175 142.076 79.2002 142.092 78.5602C142.129 77.0701 142.464 71.2586 142.166 70.5884C141.868 69.9182 141.421 69.9922 140.602 69.8064C140.602 69.8064 139.112 70.2168 137.845 70.2168C136.579 70.2168 135.313 69.9552 135.052 70.012C134.791 70.0671 131.982 71.1846 132.046 71.8557C132.11 72.5267 132.78 76.0282 132.855 76.9221V76.9212Z" fill="#FF8E50"/>
<path d="M132.799 82.9934H144.555C144.505 82.6888 144.477 82.509 144.477 82.509C144.477 82.509 143.688 81.7081 143.019 80.7437H132.839C132.827 81.4629 132.813 82.2286 132.799 82.9934Z" fill="#FFBD52"/>
<path d="M132.742 85.6467H144.974C144.912 85.2552 144.852 84.8749 144.797 84.5222H132.766C132.759 84.9085 132.75 85.2862 132.742 85.6467Z" fill="#FFBD52"/>
<path d="M143.138 73.4412C142.86 74.4736 142.716 75.5516 142.827 76.6201C142.94 77.7127 143.382 78.7408 143.752 79.7663C143.965 80.3599 144.179 80.9527 144.393 81.5463C144.429 81.6461 144.27 81.6891 144.234 81.5902C143.846 80.5131 143.445 79.4394 143.072 78.3571C142.896 77.8461 142.752 77.3282 142.682 76.7913C142.614 76.2579 142.609 75.7177 142.656 75.1825C142.708 74.5794 142.822 73.9832 142.98 73.3999C143.008 73.2984 143.166 73.3414 143.138 73.4438V73.4412Z" fill="#242C4C"/>
<path d="M141.516 94.8957C140.925 95.1882 140.257 95.208 139.61 95.2002C138.892 95.1916 138.175 95.1366 137.461 95.066C137.056 95.0256 136.651 94.9809 136.247 94.9353C136.109 94.9198 136.107 94.7004 136.247 94.7167C136.943 94.795 137.639 94.8725 138.338 94.9232C139.011 94.9723 139.7 95.0161 140.374 94.9637C140.729 94.9361 141.085 94.8656 141.406 94.7064C141.531 94.6445 141.642 94.8329 141.516 94.8957Z" fill="#627DD4"/>
<path d="M139.334 95.8026C139.111 95.8156 138.887 95.8276 138.664 95.8405C138.606 95.844 138.552 95.788 138.555 95.7312C138.557 95.6693 138.603 95.6254 138.664 95.622C138.888 95.6091 139.111 95.597 139.334 95.5841C139.392 95.5807 139.446 95.6366 139.443 95.6934C139.441 95.7553 139.395 95.7992 139.334 95.8026Z" fill="#627DD4"/>
<path d="M83.1647 46.2585H5.82102C4.21123 46.2585 2.90625 47.5635 2.90625 49.1733V112.454C2.90625 114.064 4.21123 115.369 5.82102 115.369H83.1647C84.7745 115.369 86.0795 114.064 86.0795 112.454V49.1733C86.0795 47.5635 84.7745 46.2585 83.1647 46.2585Z" fill="#3A4680"/>
<path d="M80.2425 49.1812H8.74289C7.13311 49.1812 5.82812 50.4861 5.82812 52.0959V109.533C5.82812 111.142 7.13311 112.447 8.74289 112.447H80.2425C81.8522 112.447 83.1572 111.142 83.1572 109.533V52.0959C83.1572 50.4861 81.8522 49.1812 80.2425 49.1812Z" fill="white"/>
<path d="M26.7259 70.7629L24.8539 70.2433C24.8952 69.5843 24.822 68.9141 24.6242 68.2594L26.319 67.3397C26.4085 67.2915 26.4214 67.1694 26.3414 67.1066C26.1788 66.9784 25.9275 66.7263 25.6548 66.2505C25.383 65.7748 25.2952 65.4324 25.2694 65.2311C25.2565 65.1321 25.1438 65.0779 25.0543 65.127L23.3664 66.0432C22.9009 65.5305 22.3546 65.1115 21.7567 64.7949L22.2841 62.9873C22.3125 62.8919 22.2325 62.7964 22.1301 62.8075C21.9228 62.829 21.5614 62.823 21.0237 62.6751C20.486 62.5262 20.1763 62.3447 20.0111 62.2191C19.9303 62.158 19.8115 62.1976 19.7831 62.2948L19.2566 64.0963C18.5752 64.0567 17.8818 64.1298 17.2065 64.3251L16.273 62.6905C16.2223 62.6028 16.0975 62.5907 16.033 62.6682C15.9022 62.8265 15.6424 63.0725 15.1546 63.3366C14.6668 63.6016 14.3158 63.6876 14.1093 63.7135C14.0069 63.7255 13.9527 63.8356 14.0026 63.9234L14.9361 65.558C14.4096 66.0148 13.9803 66.5508 13.6577 67.1367L11.808 66.6239C11.709 66.5964 11.6118 66.6747 11.6221 66.7728C11.6445 66.9758 11.6393 67.3277 11.4871 67.8507C11.3331 68.3755 11.1481 68.6775 11.0199 68.8375C10.958 68.9158 10.9975 69.0328 11.0965 69.0595L12.9513 69.574C12.9126 70.2364 12.99 70.91 13.1922 71.5647L11.5043 72.481C11.4148 72.5292 11.4019 72.6513 11.4819 72.7141C11.6445 72.8423 11.8957 73.0953 12.1676 73.5702C12.4394 74.0459 12.5281 74.3883 12.5539 74.5896C12.5668 74.6894 12.6795 74.7428 12.7689 74.6937L14.4638 73.7741C14.9301 74.2816 15.4764 74.6955 16.0726 75.0086L15.54 76.8333C15.5125 76.9288 15.5925 77.0243 15.694 77.0132C15.9014 76.9916 16.2627 76.9968 16.7995 77.1456C17.3381 77.2945 17.647 77.476 17.8121 77.6008C17.893 77.6627 18.0126 77.6231 18.041 77.5268L18.5752 75.6977C19.2497 75.7347 19.9346 75.6607 20.6022 75.4672L21.5511 77.1302C21.6019 77.2179 21.7266 77.2291 21.7911 77.1525C21.9219 76.9934 22.1817 76.7482 22.6695 76.4841C23.1573 76.2191 23.5083 76.1331 23.7157 76.1072C23.8163 76.0943 23.8722 75.9851 23.8223 75.8973L22.8734 74.2343C23.393 73.7827 23.8189 73.2544 24.1415 72.6754L26.0179 73.1959C26.1168 73.2226 26.214 73.1452 26.2029 73.0462C26.1805 72.8432 26.1856 72.4913 26.3388 71.9682C26.4928 71.4434 26.6777 71.1415 26.8059 70.9814C26.8679 70.9032 26.8283 70.7862 26.7294 70.7595L26.7259 70.7629ZM20.2537 72.2625C18.922 72.9851 17.2418 72.5188 16.5002 71.2206C15.7594 69.9233 16.236 68.2843 17.5687 67.5617C18.9004 66.8381 20.5807 67.3044 21.3223 68.6027C22.0638 69.9017 21.5855 71.5398 20.2537 72.2625Z" fill="#B2C8D8"/>
<path d="M37.1127 74.8978L35.781 74.5287C35.8102 74.0599 35.7577 73.5833 35.6175 73.1178L36.8228 72.464C36.8865 72.4296 36.8951 72.3427 36.8383 72.2979C36.723 72.2067 36.5441 72.0278 36.3505 71.6888C36.1569 71.3507 36.095 71.1072 36.0761 70.9636C36.0675 70.893 35.9866 70.8552 35.9229 70.8896L34.7228 71.5417C34.3916 71.1769 34.0035 70.8793 33.5777 70.6539L33.9528 69.3685C33.9726 69.3006 33.9158 69.2326 33.8435 69.2403C33.6956 69.2558 33.4392 69.2515 33.0572 69.1457C32.6752 69.0399 32.4541 68.9108 32.3371 68.8214C32.2795 68.7784 32.1952 68.8059 32.1754 68.8747L31.8011 70.1566C31.3168 70.1282 30.8229 70.1807 30.3429 70.3192L29.6787 69.1569C29.6426 69.095 29.554 69.0855 29.5084 69.1414C29.4155 69.2541 29.2305 69.4288 28.8838 69.6172C28.5371 69.8056 28.2876 69.8667 28.1405 69.8847C28.0682 69.8933 28.0286 69.9716 28.0648 70.0336L28.7289 71.1967C28.3547 71.5211 28.0493 71.903 27.8196 72.3194L26.5041 71.9547C26.4336 71.9349 26.3648 71.9908 26.3716 72.0605C26.388 72.205 26.3845 72.4554 26.2753 72.8279C26.166 73.2013 26.0344 73.4155 25.9432 73.5299C25.8985 73.5858 25.9277 73.6684 25.9974 73.6882L27.3163 74.0539C27.2887 74.5253 27.3438 75.0036 27.4875 75.4699L26.2873 76.1221C26.2237 76.1565 26.2151 76.2434 26.2718 76.2881C26.3871 76.3793 26.5661 76.5591 26.7596 76.8972C26.9532 77.2353 27.016 77.4788 27.0341 77.6225C27.0427 77.693 27.1236 77.7309 27.1864 77.6964L28.3917 77.0426C28.7238 77.4031 29.1118 77.6982 29.5359 77.921L29.1574 79.2192C29.1376 79.2872 29.1944 79.3551 29.2666 79.3474C29.4146 79.3319 29.671 79.3354 30.053 79.4412C30.4358 79.547 30.656 79.676 30.773 79.7647C30.8307 79.8085 30.9159 79.7801 30.9356 79.7122L31.315 78.4114C31.7951 78.438 32.282 78.3847 32.7569 78.2479L33.4323 79.4309C33.4684 79.4928 33.557 79.5014 33.6026 79.4463C33.6956 79.3328 33.8805 79.159 34.2272 78.9706C34.5739 78.7822 34.8234 78.7211 34.9714 78.703C35.0428 78.6944 35.0832 78.6161 35.0471 78.5542L34.3718 77.3712C34.7417 77.0503 35.0445 76.6744 35.2734 76.2623L36.6077 76.6322C36.6783 76.6512 36.7471 76.5961 36.7394 76.5256C36.7239 76.381 36.7273 76.1307 36.8357 75.759C36.945 75.3856 37.0766 75.1714 37.1678 75.057C37.2125 75.0011 37.1833 74.9185 37.1136 74.8987L37.1127 74.8978ZM32.5092 75.9646C31.562 76.4782 30.367 76.147 29.8396 75.2239C29.3122 74.3008 29.652 73.1359 30.5993 72.6214C31.5465 72.1069 32.7415 72.439 33.2688 73.3613C33.7962 74.2853 33.4564 75.4501 32.5083 75.9646H32.5092Z" fill="#D1DDE8"/>
<path d="M38.9017 61.321L37.0297 60.8014C37.0709 60.1424 36.9978 59.4722 36.7999 58.8175L38.4948 57.8978C38.5842 57.8496 38.5972 57.7275 38.5171 57.6647C38.3545 57.5365 38.1033 57.2844 37.8306 56.8086C37.5587 56.3329 37.471 55.9905 37.4452 55.7892C37.4323 55.6902 37.3196 55.636 37.2301 55.6851L35.5422 56.6013C35.0767 56.0886 34.5304 55.6696 33.9325 55.353L34.4599 53.5455C34.4883 53.45 34.4083 53.3545 34.3059 53.3656C34.0985 53.3871 33.7372 53.3811 33.1995 53.2332C32.6618 53.0843 32.3521 52.9028 32.1869 52.7772C32.106 52.7161 31.9873 52.7557 31.9589 52.8529L31.4324 54.6544C30.751 54.6148 30.0576 54.688 29.3823 54.8832L28.4488 53.2486C28.3981 53.1609 28.2733 53.1488 28.2088 53.2263C28.078 53.3846 27.8182 53.6306 27.3304 53.8947C26.8426 54.1597 26.4916 54.2458 26.2851 54.2716C26.1827 54.2836 26.1285 54.3937 26.1784 54.4815L27.1119 56.1161C26.5854 56.5729 26.1561 57.1089 25.8334 57.6948L23.9837 57.182C23.8848 57.1545 23.7876 57.2328 23.7979 57.3309C23.8203 57.5339 23.8151 57.8858 23.6628 58.4088C23.5088 58.9336 23.3239 59.2356 23.1957 59.3956C23.1337 59.4739 23.1733 59.5909 23.2723 59.6176L25.1271 60.1321C25.0884 60.7945 25.1658 61.4681 25.368 62.1228L23.6801 63.0391C23.5906 63.0873 23.5777 63.2094 23.6577 63.2722C23.8203 63.4004 24.0715 63.6534 24.3434 64.1283C24.6152 64.604 24.7038 64.9464 24.7296 65.1477C24.7425 65.2475 24.8553 65.3009 24.9447 65.2518L26.6396 64.3322C27.1058 64.8397 27.6522 65.2536 28.2484 65.5667L27.7158 67.3915C27.6883 67.4869 27.7683 67.5824 27.8698 67.5713C28.0772 67.5497 28.4385 67.5549 28.9753 67.7038C29.5139 67.8526 29.8227 68.0341 29.9879 68.1589C30.0688 68.2208 30.1884 68.1812 30.2168 68.0849L30.751 66.2558C31.4255 66.2928 32.1103 66.2188 32.7779 66.0253L33.7269 67.6883C33.7776 67.776 33.9024 67.7872 33.9669 67.7106C34.0977 67.5515 34.3575 67.3063 34.8453 67.0422C35.3331 66.7772 35.6841 66.6912 35.8914 66.6653C35.9921 66.6524 36.048 66.5432 35.9981 66.4554L35.0492 64.7924C35.5688 64.3408 35.9947 63.8125 36.3173 63.2335L38.1937 63.754C38.2926 63.7807 38.3898 63.7033 38.3786 63.6043C38.3563 63.4013 38.3614 63.0494 38.5146 62.5263C38.6686 62.0015 38.8535 61.6996 38.9817 61.5395C39.0437 61.4613 39.0041 61.3443 38.9052 61.3176L38.9017 61.321ZM32.4295 62.8206C31.0977 63.5432 29.4175 63.0769 28.6759 61.7787C27.9352 60.4814 28.4118 58.8424 29.7445 58.1198C31.0762 57.3962 32.7564 57.8625 33.498 59.1608C34.2396 60.4599 33.7613 62.0979 32.4295 62.8206Z" fill="#BCC100"/>
<path d="M33.3386 84.532H10.4609V85.8147H33.3386V84.532Z" fill="#D1DDE8"/>
<path d="M33.3386 87.0974H10.4609V88.3802H33.3386V87.0974Z" fill="#D1DDE8"/>
<path d="M33.3386 89.6631H10.4609V90.9458H33.3386V89.6631Z" fill="#D1DDE8"/>
<path d="M65.2219 55.7139H44.4941V58.3525H65.2219V55.7139Z" fill="#D1DDE8"/>
<path d="M65.2219 60.99H44.4941V63.6286H65.2219V60.99Z" fill="#D1DDE8"/>
<path d="M65.2219 66.2664H44.4941V68.905H65.2219V66.2664Z" fill="#D1DDE8"/>
<path d="M33.3386 97.5027H10.4609V98.7854H33.3386V97.5027Z" fill="#D1DDE8"/>
<path d="M33.3386 100.068H10.4609V101.351H33.3386V100.068Z" fill="#D1DDE8"/>
<path d="M33.3386 102.635H10.4609V103.918H33.3386V102.635Z" fill="#D1DDE8"/>
<path d="M77.2053 89.6628L71.5057 78.2971C74.4006 76.462 76.3243 73.2315 76.3243 69.5502C76.3243 63.8351 71.6898 59.2014 65.9755 59.2014C60.2613 59.2014 55.625 63.836 55.625 69.5502C55.625 75.2645 60.2595 79.9007 65.9755 79.9007C67.2798 79.9007 68.5264 79.6573 69.6758 79.2168L75.3745 90.5808C75.6283 91.0866 76.2434 91.2905 76.7493 91.0376C77.2552 90.7838 77.4591 90.1687 77.2061 89.6628H77.2053ZM57.8962 69.5502C57.8962 65.0886 61.5139 61.4727 65.9755 61.4727C70.4371 61.4727 74.0531 65.0886 74.0531 69.5502C74.0531 74.0118 70.4371 77.6295 65.9755 77.6295C61.5139 77.6295 57.8962 74.0118 57.8962 69.5502Z" fill="#728CB2"/>
<path d="M58.6419 86.3135H39.541V107.125H58.6419V86.3135Z" fill="#7CAF3F"/>
<path d="M58.6419 86.3135H39.541V98.1446H58.6419V86.3135Z" fill="#BCC100"/>
<path d="M69.9724 98.8933H62.418V107.125H69.9724V98.8933Z" fill="#FF8E50"/>
<path d="M81.4805 28.2614L80.4025 27.962C80.4266 27.5826 80.3836 27.1963 80.27 26.8195L81.2465 26.2895C81.2981 26.262 81.305 26.1915 81.2594 26.1553C81.1656 26.0813 81.0211 25.9359 80.8645 25.6624C80.7079 25.3879 80.6571 25.1909 80.6425 25.0748C80.6356 25.018 80.5702 24.987 80.5186 25.0145L79.5465 25.5428C79.2789 25.2477 78.964 25.0059 78.619 24.8235L78.9227 23.7826C78.9391 23.7275 78.8926 23.6724 78.8341 23.6785C78.7145 23.6905 78.5063 23.6879 78.1966 23.6019C77.8869 23.5159 77.7088 23.4118 77.6133 23.3395C77.5669 23.3042 77.498 23.3274 77.4817 23.3834L77.1789 24.4209C76.7865 24.3977 76.3865 24.4398 75.9976 24.5525L75.4599 23.6114C75.4307 23.5606 75.3584 23.5537 75.3214 23.5985C75.2457 23.6896 75.0969 23.8316 74.8156 23.9839C74.5342 24.1361 74.3329 24.186 74.2133 24.2007C74.1548 24.2076 74.123 24.2712 74.1514 24.3211L74.6891 25.2632C74.3863 25.5264 74.1385 25.8353 73.9527 26.1725L72.8876 25.8766C72.8308 25.8602 72.7749 25.9058 72.7809 25.9626C72.7938 26.0796 72.7912 26.2818 72.7026 26.5838C72.614 26.8857 72.5073 27.0595 72.4333 27.1524C72.3972 27.198 72.4204 27.2651 72.4772 27.2806L73.5457 27.5766C73.5233 27.9577 73.5681 28.3457 73.6842 28.7234L72.7121 29.2516C72.6605 29.2792 72.6536 29.3497 72.6992 29.3858C72.7929 29.4598 72.9375 29.6052 73.094 29.8788C73.2506 30.1532 73.3014 30.3503 73.316 30.4664C73.3229 30.524 73.3883 30.5541 73.4399 30.5266L74.4164 29.9967C74.6848 30.2892 74.9997 30.5275 75.3429 30.7081L75.0358 31.7595C75.0194 31.8145 75.0659 31.8696 75.1244 31.8636C75.244 31.8515 75.4522 31.8541 75.761 31.9401C76.0708 32.0262 76.2488 32.1303 76.3443 32.2025C76.3908 32.2378 76.4596 32.2154 76.476 32.1595L76.7831 31.1065C77.172 31.128 77.566 31.085 77.9506 30.974L78.4977 31.9315C78.527 31.9823 78.5992 31.9883 78.6362 31.9444C78.7119 31.8524 78.8608 31.7113 79.1421 31.559C79.4234 31.4067 79.6247 31.3568 79.7452 31.3422C79.8028 31.3353 79.8355 31.2717 79.8063 31.2218L79.2591 30.2642C79.5585 30.0044 79.8037 29.6998 79.9895 29.366L81.0701 29.6663C81.1269 29.6818 81.1837 29.637 81.1768 29.5803C81.1639 29.4633 81.1673 29.2611 81.2551 28.9591C81.3437 28.6571 81.4503 28.4834 81.5243 28.3904C81.5605 28.3448 81.5372 28.2777 81.4805 28.2623V28.2614ZM77.7527 29.1252C76.9861 29.5415 76.0183 29.2731 75.5907 28.5246C75.164 27.777 75.4384 26.8333 76.2058 26.4169C76.9724 26.0005 77.9411 26.2689 78.3678 27.0165C78.7954 27.765 78.5192 28.7088 77.7518 29.1252H77.7527Z" fill="#D1DDE8"/>
<path d="M74.4746 21.162L73.3966 20.8626C73.4207 20.4832 73.3785 20.0969 73.2641 19.7201L74.2406 19.1902C74.2922 19.1626 74.2991 19.0921 74.2535 19.056C74.1597 18.982 74.0152 18.8366 73.8586 18.563C73.702 18.2886 73.6513 18.0915 73.6366 17.9754C73.6298 17.9186 73.5644 17.8876 73.5128 17.9152L72.5406 18.4434C72.273 18.1483 71.9582 17.9066 71.6132 17.7242L71.9169 16.6832C71.9332 16.6281 71.8868 16.5731 71.8282 16.5791C71.7087 16.5911 71.5005 16.5886 71.1908 16.5025C70.881 16.4165 70.7029 16.3124 70.6075 16.2401C70.561 16.2049 70.4922 16.2281 70.4758 16.284L70.173 17.3216C69.7807 17.2983 69.3806 17.3405 68.9918 17.4532L68.4541 16.512C68.4248 16.4612 68.3526 16.4543 68.3156 16.4991C68.2398 16.5903 68.091 16.7322 67.8097 16.8845C67.5284 17.0368 67.3271 17.0867 67.2075 17.1013C67.149 17.1082 67.1171 17.1719 67.1455 17.2218L67.6832 18.1638C67.3804 18.4271 67.1326 18.7359 66.9468 19.0732L65.8817 18.7772C65.8249 18.7609 65.7681 18.8065 65.775 18.8633C65.7879 18.9803 65.7854 19.1824 65.6967 19.4844C65.6081 19.7864 65.5015 19.9602 65.4275 20.0531C65.3913 20.0987 65.4146 20.1658 65.4713 20.1813L66.5399 20.4772C66.5175 20.8583 66.5622 21.2463 66.6784 21.624L65.7062 22.1523C65.6546 22.1798 65.6477 22.2503 65.6933 22.2865C65.7871 22.3605 65.9316 22.5058 66.0882 22.7794C66.2448 23.0539 66.2955 23.2509 66.3101 23.367C66.317 23.4247 66.3824 23.4548 66.434 23.4273L67.4105 22.8973C67.6789 23.1898 67.9938 23.4281 68.3371 23.6088L68.0299 24.6601C68.0136 24.7151 68.06 24.7702 68.1185 24.7642C68.2381 24.7521 68.4463 24.7547 68.7552 24.8408C69.0649 24.9268 69.243 25.0309 69.3385 25.1032C69.3849 25.1384 69.4538 25.1161 69.4701 25.0601L69.7772 24.0071C70.1661 24.0286 70.5601 23.9856 70.9447 23.8746L71.4919 24.8322C71.5211 24.8829 71.5934 24.8889 71.6304 24.8451C71.7061 24.753 71.8549 24.6119 72.1362 24.4596C72.4176 24.3074 72.6189 24.2575 72.7385 24.2428C72.7961 24.236 72.8288 24.1723 72.7996 24.1224L72.2524 23.1649C72.5518 22.905 72.797 22.6005 72.9828 22.2667L74.0634 22.5669C74.1201 22.5824 74.1769 22.5377 74.17 22.4809C74.1571 22.3639 74.1606 22.1617 74.2483 21.8597C74.3369 21.5578 74.4436 21.384 74.5176 21.2911C74.5537 21.2455 74.5305 21.1784 74.4737 21.1629L74.4746 21.162ZM70.7468 22.0258C69.9803 22.4422 69.0124 22.1738 68.5848 21.4253C68.1581 20.6777 68.4326 19.7339 69.2 19.3175C69.9665 18.9011 70.9352 19.1695 71.362 19.9171C71.7895 20.6656 71.5134 21.6094 70.746 22.0258H70.7468Z" fill="#D1DDE8"/>
<path d="M72.7416 34.3398L70.8695 33.8202C70.9108 33.1612 70.8377 32.491 70.6398 31.8363L72.3346 30.9166C72.4241 30.8684 72.437 30.7463 72.357 30.6835C72.1944 30.5553 71.9432 30.3032 71.6705 29.8274C71.3977 29.3517 71.3108 29.0093 71.285 28.808C71.2721 28.709 71.1594 28.6548 71.0699 28.7039L69.382 29.6201C68.9166 29.1074 68.3703 28.6884 67.7723 28.3718L68.2997 26.5642C68.3281 26.4688 68.2481 26.3733 68.1457 26.3844C67.9384 26.406 67.577 26.3999 67.0393 26.252C66.5016 26.1031 66.1919 25.9216 66.0267 25.796C65.9459 25.7349 65.8272 25.7745 65.7988 25.8717L65.2722 27.6732C64.5909 27.6336 63.8975 27.7068 63.2221 27.9021L62.2887 26.2674C62.2379 26.1797 62.1131 26.1676 62.0486 26.2451C61.9179 26.4034 61.658 26.6494 61.1702 26.9135C60.6824 27.1785 60.3314 27.2645 60.1249 27.2904C60.0226 27.3024 59.9684 27.4125 60.0183 27.5003L60.9517 29.1349C60.4252 29.5917 59.9959 30.1277 59.6733 30.7136L57.8236 30.2008C57.7247 30.1733 57.6274 30.2516 57.6378 30.3497C57.6601 30.5527 57.655 30.9046 57.5027 31.4276C57.3487 31.9524 57.1637 32.2544 57.0355 32.4144C56.9736 32.4927 57.0132 32.6097 57.1121 32.6364L58.967 33.1509C58.9282 33.8133 59.0057 34.4869 59.2078 35.1416L57.5199 36.0579C57.4304 36.1061 57.4175 36.2282 57.4975 36.291C57.6601 36.4192 57.9113 36.6722 58.1832 37.1471C58.4551 37.6228 58.5437 37.9652 58.5695 38.1665C58.5824 38.2663 58.6951 38.3197 58.7846 38.2706L60.4794 37.351C60.9457 37.8585 61.492 38.2724 62.0882 38.5855L61.5557 40.4103C61.5281 40.5057 61.6081 40.6012 61.7097 40.5901C61.917 40.5686 62.2783 40.5737 62.8152 40.7226C63.3537 40.8714 63.6626 41.0529 63.8278 41.1777C63.9086 41.2396 64.0282 41.2 64.0566 41.1037L64.5909 39.2746C65.2654 39.3116 65.9502 39.2376 66.6178 39.0441L67.5667 40.7071C67.6175 40.7948 67.7422 40.806 67.8068 40.7294C67.9375 40.5703 68.1973 40.3251 68.6851 40.061C69.1729 39.796 69.524 39.71 69.7313 39.6841C69.8319 39.6712 69.8879 39.562 69.838 39.4742L68.889 37.8112C69.4087 37.3596 69.8345 36.8313 70.1572 36.2523L72.0335 36.7728C72.1324 36.7995 72.2297 36.7221 72.2185 36.6231C72.1961 36.4201 72.2013 36.0682 72.3544 35.5451C72.5084 35.0203 72.6934 34.7184 72.8216 34.5584C72.8835 34.4801 72.8439 34.3631 72.745 34.3364L72.7416 34.3398ZM66.2694 35.8394C64.9376 36.562 63.2574 36.0957 62.5158 34.7975C61.775 33.5002 62.2517 31.8612 63.5843 31.1386C64.9161 30.415 66.5963 30.8813 67.3379 32.1796C68.0795 33.4786 67.6011 35.1167 66.2694 35.8394Z" fill="#D1DDE8"/>
</svg>
