<svg width="161" height="133" viewBox="0 0 161 133" fill="none" xmlns="http://www.w3.org/2000/svg">
<path d="M7.00195 131.929V76.5323H38.0275V39.9883H126.918V49.6127H159.52L160.057 131.929H7.00195Z" fill="#F1F2F5"/>
<path d="M146.466 8.5249H61.1939C58.2671 8.5249 55.8945 10.9007 55.8945 13.8315V126.623C55.8945 129.553 58.2671 131.929 61.1939 131.929H146.466C149.393 131.929 151.766 129.553 151.766 126.623V13.8315C151.766 10.9007 149.393 8.5249 146.466 8.5249Z" fill="#1D2238"/>
<path d="M145.795 15.8726H61.8672V124.581H145.795V15.8726Z" fill="white"/>
<path d="M110.335 6.58734C110.297 3.02102 107.4 0.141602 103.83 0.141602C100.259 0.141602 97.362 3.02102 97.3247 6.58734H91.2969V16.908H116.361V6.58734H110.333H110.335ZM103.83 7.61856C102.562 7.61856 101.535 6.58989 101.535 5.32064C101.535 4.05138 102.562 3.02272 103.83 3.02272C105.097 3.02272 106.124 4.05138 106.124 5.32064C106.124 6.58989 105.097 7.61856 103.83 7.61856Z" fill="#F0C36A"/>
<path d="M142.365 27.2253H85.5566V30.6999H142.365V27.2253Z" fill="#F1F2F5"/>
<path d="M142.365 34.0112H85.5566V37.4857H142.365V34.0112Z" fill="#F1F2F5"/>
<path d="M113.242 40.7961H85.5566V44.2707H113.242V40.7961Z" fill="#F1F2F5"/>
<path d="M83.192 44.5256H67.2148V26.9702H83.192V44.5256ZM67.7234 44.0155H82.6817V27.4803H67.7234V44.0155Z" fill="#9EA9BD"/>
<path d="M73.0653 30.3325L76.8093 35.5481L87.1322 25.8259L88.9651 28.1961L76.2745 40.3386L70.8027 32.3949L73.0653 30.3325Z" fill="#EDB248"/>
<path d="M142.365 49.6128H85.5566V53.0873H142.365V49.6128Z" fill="#F1F2F5"/>
<path d="M142.365 56.3977H85.5566V59.8722H142.365V56.3977Z" fill="#F1F2F5"/>
<path d="M113.242 63.1836H85.5566V66.6581H113.242V63.1836Z" fill="#F1F2F5"/>
<path d="M83.192 66.913H67.2148V49.3577H83.192V66.913ZM67.7234 66.4029H82.6817V49.8677H67.7234V66.4029Z" fill="#9EA9BD"/>
<path d="M73.0653 52.72L76.8093 57.9356L87.1322 48.2134L88.9651 50.5836L76.2745 62.7252L70.8027 54.7815L73.0653 52.72Z" fill="#EDB248"/>
<path d="M142.365 72.0002H85.5566V75.4748H142.365V72.0002Z" fill="#F1F2F5"/>
<path d="M142.365 78.7852H85.5566V82.2597H142.365V78.7852Z" fill="#F1F2F5"/>
<path d="M113.242 85.5701H85.5566V89.0446H113.242V85.5701Z" fill="#F1F2F5"/>
<path d="M83.192 89.3007H67.2148V71.7454H83.192V89.3007ZM67.7234 88.7906H82.6817V72.2554H67.7234V88.7906Z" fill="#9EA9BD"/>
<path d="M73.0653 75.1075L76.8093 80.3231L87.1322 70.6001L88.9651 72.9711L76.2745 85.1128L70.8027 77.1691L73.0653 75.1075Z" fill="#EDB248"/>
<path d="M142.365 94.387H85.5566V97.8615H142.365V94.387Z" fill="#F1F2F5"/>
<path d="M142.365 101.173H85.5566V104.647H142.365V101.173Z" fill="#F1F2F5"/>
<path d="M113.242 107.958H85.5566V111.432H113.242V107.958Z" fill="#F1F2F5"/>
<path d="M83.192 111.687H67.2148V94.1318H83.192V111.687ZM67.7234 111.177H82.6817V94.6419H67.7234V111.177Z" fill="#9EA9BD"/>
<path d="M73.0653 97.4952L76.8093 102.71L87.1322 92.9878L88.9651 95.358L76.2745 107.5L70.8027 99.5568L73.0653 97.4952Z" fill="#EDB248"/>
<path d="M160.057 131.717H0.808594V132.142H160.057V131.717Z" fill="#1D2238"/>
<path d="M43.1614 53.6644L42.286 54.251L37.62 47.2637C37.4587 47.0214 37.5232 46.6941 37.7652 46.5317C38.0071 46.3702 38.334 46.4348 38.4962 46.6771L43.1622 53.6644H43.1614Z" fill="#1D2238"/>
<path d="M38.5391 55.5049C38.5391 55.5049 38.8999 52.5031 39.6495 52.3645C40.3992 52.2259 42.6193 52.2812 43.0633 52.3645C43.5073 52.4478 44.7282 53.2257 44.9786 54.0044L40.2328 58.6181L38.5399 55.5057L38.5391 55.5049Z" fill="#EB9481"/>
<path d="M34.1612 30.29C34.1612 30.29 35.1053 31.4547 35.3974 33.1006C35.5137 33.7552 35.3201 34.4209 34.7428 34.7507L31.5234 30.29H34.1621H34.1612Z" fill="#1D2238"/>
<path d="M29.5784 29.502C26.8175 29.502 24.5567 31.6392 24.3529 34.352L24.3105 34.3452L23.1771 41.4268C22.9275 42.986 23.987 44.4525 25.544 44.7024C27.1011 44.9524 28.2948 45.3953 28.8152 42.3322L28.8958 41.8298C29.1191 41.8587 29.3475 41.8757 29.5784 41.8757C32.4735 41.8757 34.8209 39.5259 34.8209 36.6261V34.7516C34.8209 31.8526 32.4743 29.502 29.5784 29.502Z" fill="#EB9481"/>
<path d="M32.7773 33.8588C32.8198 33.9965 32.8503 34.1334 32.8767 34.2711C32.8919 34.34 32.9004 34.4089 32.9115 34.4777C32.9225 34.5466 32.9335 34.6154 32.9403 34.6843C32.9565 34.822 32.9718 34.9589 32.9785 35.0966L32.9921 35.3032L32.9964 35.5098L32.7638 35.2769C32.8512 35.276 32.9386 35.2709 33.0261 35.2726C33.0711 35.2743 33.105 35.2726 33.1815 35.2794C33.2477 35.2879 33.3122 35.3058 33.3733 35.3313C33.6229 35.4333 33.774 35.7045 33.7579 35.9578C33.7477 36.0845 33.7002 36.2052 33.6255 36.3004C33.5499 36.3956 33.4446 36.4602 33.3351 36.4926C33.2799 36.5087 33.2231 36.513 33.1687 36.5104C33.1101 36.5062 33.0711 36.496 33.0261 36.4875C32.9386 36.4679 32.8512 36.4458 32.7638 36.4186H32.7604C32.7536 36.4152 32.7493 36.4084 32.7519 36.4016C32.7536 36.3965 32.7587 36.3922 32.7638 36.3922L33.0261 36.3888C33.0694 36.3888 33.1144 36.3888 33.1551 36.3846C33.1967 36.3786 33.2375 36.3676 33.2757 36.3523C33.4311 36.2877 33.538 36.1253 33.5355 35.9578C33.5363 35.7903 33.4285 35.6297 33.274 35.5676C33.2358 35.5523 33.195 35.5421 33.1543 35.5378C33.1144 35.5353 33.0694 35.5361 33.0261 35.5361H32.7638L32.7383 35.5353V35.5098C32.7425 34.9598 32.7408 34.4097 32.751 33.8597C32.751 33.8529 32.757 33.8469 32.7638 33.8469C32.7697 33.8469 32.7739 33.8512 32.7756 33.8563V33.8597L32.7773 33.8588Z" fill="#1D2238"/>
<path d="M33.8623 34.2626C34.0634 34.2626 34.2265 34.0993 34.2265 33.8979C34.2265 33.6965 34.0634 33.5332 33.8623 33.5332C33.6611 33.5332 33.498 33.6965 33.498 33.8979C33.498 34.0993 33.6611 34.2626 33.8623 34.2626Z" fill="#1D2238"/>
<path d="M33.5592 37.5842C33.5592 37.5842 32.9555 36.7043 31.1973 36.7272L33.5592 37.5842Z" fill="white"/>
<path d="M32.944 32.428C32.9109 32.564 33.1928 32.7485 33.574 32.8412C33.9543 32.9338 34.2897 32.8981 34.3228 32.7621C34.3559 32.6261 34.0741 32.4416 33.6929 32.3489C33.3125 32.2563 32.9772 32.292 32.944 32.428Z" fill="#1D2238"/>
<path d="M31.7529 34.4318C31.954 34.4318 32.1171 34.2685 32.1171 34.0671C32.1171 33.8657 31.954 33.7024 31.7529 33.7024C31.5517 33.7024 31.3887 33.8657 31.3887 34.0671C31.3887 34.2685 31.5517 34.4318 31.7529 34.4318Z" fill="#1D2238"/>
<path d="M30.8369 32.9416C30.8717 33.0768 31.2071 33.1074 31.5866 33.0088C31.9661 32.911 32.2445 32.7214 32.2097 32.5862C32.1749 32.4511 31.8396 32.4205 31.4601 32.5191C31.0806 32.6168 30.8021 32.8064 30.8369 32.9416Z" fill="#1D2238"/>
<path d="M33.9128 37.8307C33.6462 37.8103 33.3932 37.7558 33.1444 37.6904C33.0188 37.6606 32.8982 37.6181 32.7751 37.5816C32.6537 37.5408 32.5332 37.4966 32.4126 37.454C32.2946 37.4047 32.1749 37.3588 32.0569 37.3078C31.9406 37.2534 31.8226 37.2041 31.7088 37.1429C31.4787 37.0264 31.2537 36.8989 31.0415 36.7365L31.0389 36.7348C31.0347 36.7314 31.0339 36.7246 31.0373 36.7204C31.0398 36.717 31.0449 36.7153 31.0491 36.717L32.489 37.2543L33.9213 37.8111C33.9264 37.8128 33.9298 37.8196 33.9272 37.8247C33.9255 37.829 33.9213 37.8315 33.917 37.8315H33.9136L33.9128 37.8307Z" fill="#1D2238"/>
<path d="M23.5986 34.8747C23.5986 34.8747 28.1644 30.8459 32.5851 30.8468C32.5851 30.8468 34.5157 30.7618 35.2289 32.3991C35.2289 32.3991 34.3782 25.7119 26.9971 26.8392C19.616 27.9665 22.5603 35.514 22.5603 35.514L23.5977 34.8747H23.5986Z" fill="#F0C36A"/>
<path d="M28.7996 31.6707C28.7996 31.6707 27.9005 32.7639 26.0217 34.7516C25.5573 35.2429 24.7524 35.923 24.7524 35.923C24.7524 35.923 24.946 34.8952 24.5996 34.1446C24.5996 34.1446 26.6983 32.4485 28.7996 31.6707Z" fill="#1D2238"/>
<path d="M31.7013 30.749C31.7013 30.749 32.2795 31.7972 33.7525 31.8695C33.7525 31.8695 31.3982 32.644 30.4805 31.0049L31.7013 30.749Z" fill="#1D2238"/>
<path d="M23.9767 36.5478L23.6294 38.6009L22.5605 35.5141L24.3528 34.3511L23.9767 36.5478Z" fill="#1D2238"/>
<path d="M23.9282 36.4245C24.5044 36.4245 24.9716 35.8456 24.9716 35.1314C24.9716 34.4173 24.5044 33.8384 23.9282 33.8384C23.3519 33.8384 22.8848 34.4173 22.8848 35.1314C22.8848 35.8456 23.3519 36.4245 23.9282 36.4245Z" fill="#EB9481"/>
<path d="M24.5242 34.7779C24.4283 34.6997 24.3358 34.641 24.2424 34.6164C24.1974 34.6019 24.1532 34.5951 24.1116 34.5968C24.0709 34.5985 24.0327 34.6002 23.997 34.6147C23.8603 34.6623 23.7576 34.7796 23.6973 34.9343C23.6804 34.9717 23.671 35.0134 23.6608 35.0542C23.6574 35.0754 23.6523 35.0958 23.6498 35.1179L23.6464 35.1502L23.643 35.1732C23.6413 35.1808 23.6421 35.1783 23.6405 35.1808C23.6396 35.1774 23.6371 35.1757 23.6311 35.1664C23.6218 35.1477 23.5819 35.123 23.5657 35.1239C23.5343 35.1256 23.5827 35.1375 23.626 35.1315C23.7194 35.1205 23.8383 35.095 23.9571 35.0771C24.0768 35.0644 24.211 35.0457 24.3358 35.0924L24.34 35.0941C24.3468 35.0967 24.3502 35.1043 24.3477 35.1111C24.346 35.1162 24.3409 35.1196 24.3358 35.1196C24.2237 35.1247 24.1142 35.1681 24.0081 35.2106C23.9011 35.2523 23.795 35.3007 23.6812 35.3347C23.6243 35.35 23.564 35.3662 23.4978 35.3483C23.4647 35.3398 23.4341 35.3152 23.418 35.2846C23.401 35.2548 23.3959 35.2216 23.3934 35.191C23.3883 35.0703 23.407 34.9513 23.4503 34.8399C23.4936 34.7286 23.5615 34.6257 23.6523 34.5466C23.7415 34.4676 23.8578 34.4132 23.9784 34.4055C24.0989 34.3945 24.2212 34.431 24.3205 34.4973C24.419 34.5653 24.4954 34.6614 24.5472 34.7668C24.5506 34.7728 24.5472 34.7804 24.5412 34.7838C24.537 34.7864 24.531 34.7855 24.5276 34.7821L24.5234 34.7787L24.5242 34.7779Z" fill="#1D2238"/>
<path d="M29.7715 31.3187C29.7715 31.3187 32.9034 27.1156 36.689 28.1315C40.4747 29.1475 35.2296 32.3992 35.2296 32.3992C35.2296 32.3992 33.7711 29.9381 29.7715 31.3187Z" fill="#F1F2F5"/>
<path d="M26.6675 27.0407C26.7031 27.2252 26.3092 27.4573 25.7871 27.5585C25.265 27.6596 24.8133 27.5916 24.7776 27.4072C24.742 27.2227 25.1359 26.9906 25.658 26.8894C26.1802 26.7883 26.6318 26.8563 26.6675 27.0407Z" fill="#1D2238"/>
<path d="M28.8964 41.8289C28.8964 41.8289 27.7655 41.2143 26.5625 39.9875C26.5625 39.9875 27.0668 41.7397 28.8166 42.3314L28.8972 41.8289H28.8964Z" fill="#1D2238"/>
<path d="M37.7279 125.476L45.6617 128.94C46.8452 129.457 47.6016 130.637 47.5779 131.93L30.3281 131.892L31.2459 125.462L37.7279 125.476V125.476Z" fill="#4A4E60"/>
<path d="M30.3301 130.745C31.7513 130.828 33.1716 130.872 34.5928 130.904C35.3035 130.923 36.0141 130.928 36.7247 130.94L38.8565 130.955L40.9883 130.95C41.6989 130.941 42.4095 130.939 43.1201 130.923C44.5413 130.898 45.9625 130.859 47.3837 130.783C45.9625 130.7 44.5421 130.655 43.1209 130.625C42.4103 130.605 41.6997 130.6 40.9891 130.588L38.8573 130.574L36.7255 130.58C36.0149 130.588 35.3043 130.591 34.5937 130.607C33.1725 130.632 31.7513 130.671 30.3301 130.746V130.745Z" fill="#1D2238"/>
<path d="M35.0806 129.304C35.6923 128.692 35.6923 127.699 35.0806 127.086C34.4689 126.473 33.4771 126.473 32.8654 127.086C32.2537 127.699 32.2537 128.692 32.8654 129.304C33.4771 129.917 34.4689 129.917 35.0806 129.304Z" fill="#1D2238"/>
<path d="M44.5926 128.313C44.3888 128.229 44.1927 128.228 44.0068 128.258C43.8208 128.29 43.6442 128.362 43.4855 128.465C43.3267 128.568 43.1883 128.711 43.0856 128.878C42.9846 129.046 42.9226 129.248 42.9498 129.464L42.9829 129.482C43.033 129.414 43.0746 129.342 43.1323 129.281C43.1595 129.249 43.1841 129.214 43.2129 129.185L43.3004 129.095C43.4218 128.98 43.5525 128.874 43.6952 128.785C43.8344 128.692 43.9813 128.609 44.1332 128.538C44.2097 128.502 44.2869 128.469 44.365 128.438C44.4423 128.406 44.5221 128.376 44.6019 128.351L44.5926 128.313Z" fill="#1D2238"/>
<path d="M42.5672 127.448C42.3634 127.364 42.1673 127.363 41.9814 127.393C41.7954 127.425 41.6188 127.497 41.4601 127.6C41.3013 127.703 41.1629 127.846 41.0602 128.013C40.9592 128.181 40.8972 128.383 40.9244 128.598L40.9575 128.617C41.0076 128.549 41.0492 128.477 41.1069 128.416C41.1341 128.384 41.1587 128.349 41.1876 128.319L41.275 128.229C41.3964 128.115 41.5272 128.009 41.6698 127.92C41.809 127.827 41.9559 127.744 42.1079 127.672C42.1843 127.637 42.2615 127.604 42.3396 127.573C42.4169 127.541 42.4967 127.511 42.5765 127.485L42.5672 127.448Z" fill="#1D2238"/>
<path d="M40.6941 126.662C40.4904 126.578 40.2942 126.577 40.1083 126.607C39.9224 126.639 39.7458 126.711 39.587 126.815C39.4283 126.917 39.2899 127.06 39.1872 127.227C39.0861 127.395 39.0242 127.598 39.0513 127.813L39.0844 127.831C39.1345 127.763 39.1761 127.691 39.2339 127.63C39.261 127.598 39.2856 127.564 39.3145 127.534L39.402 127.444C39.5234 127.329 39.6541 127.223 39.7967 127.134C39.936 127.042 40.0828 126.958 40.2348 126.887C40.3112 126.851 40.3885 126.818 40.4666 126.787C40.5438 126.755 40.6236 126.725 40.7035 126.7L40.6941 126.662Z" fill="#1D2238"/>
<path d="M27.39 125.476L35.3238 128.94C36.5073 129.457 37.2638 130.637 37.24 131.93L19.9902 131.892L20.908 125.462L27.39 125.476V125.476Z" fill="#9EA9BD"/>
<path d="M19.9922 130.745C21.4134 130.828 22.8338 130.872 24.255 130.904C24.9656 130.923 25.6762 130.928 26.3868 130.94L28.5186 130.955L30.6504 130.95C31.361 130.941 32.0716 130.939 32.7822 130.923C34.2034 130.898 35.6246 130.859 37.0458 130.783C35.6246 130.7 34.2043 130.655 32.783 130.625C32.0724 130.605 31.3618 130.6 30.6512 130.588L28.5194 130.574L26.3876 130.58C25.677 130.588 24.9664 130.591 24.2558 130.607C22.8346 130.632 21.4134 130.671 19.9922 130.746V130.745Z" fill="#1D2238"/>
<path d="M24.7427 129.304C25.3544 128.691 25.3544 127.698 24.7427 127.086C24.131 126.473 23.1392 126.473 22.5275 127.086C21.9158 127.698 21.9158 128.691 22.5275 129.304C23.1392 129.916 24.131 129.916 24.7427 129.304Z" fill="#1D2238"/>
<path d="M34.2547 128.313C34.0509 128.229 33.8548 128.228 33.6689 128.258C33.4829 128.29 33.3063 128.362 33.1476 128.465C32.9888 128.568 32.8504 128.711 32.7477 128.878C32.6467 129.046 32.5847 129.248 32.6119 129.464L32.645 129.482C32.6951 129.414 32.7367 129.342 32.7944 129.281C32.8216 129.249 32.8462 129.214 32.8751 129.185L32.9625 129.095C33.0839 128.98 33.2146 128.874 33.3573 128.785C33.4965 128.692 33.6434 128.609 33.7954 128.538C33.8718 128.502 33.949 128.469 34.0271 128.438C34.1044 128.406 34.1842 128.376 34.264 128.351L34.2547 128.313Z" fill="#1D2238"/>
<path d="M32.2293 127.448C32.0255 127.364 31.8294 127.363 31.6435 127.393C31.4575 127.425 31.281 127.497 31.1222 127.6C30.9634 127.703 30.825 127.846 30.7223 128.013C30.6213 128.181 30.5593 128.383 30.5865 128.598L30.6196 128.617C30.6697 128.549 30.7113 128.477 30.769 128.416C30.7962 128.384 30.8208 128.349 30.8497 128.319L30.9371 128.229C31.0585 128.115 31.1893 128.009 31.3319 127.92C31.4711 127.827 31.618 127.744 31.77 127.672C31.8464 127.637 31.9236 127.604 32.0017 127.573C32.079 127.541 32.1588 127.511 32.2386 127.485L32.2293 127.448Z" fill="#1D2238"/>
<path d="M30.3562 126.662C30.1525 126.578 29.9563 126.577 29.7704 126.607C29.5845 126.639 29.4079 126.711 29.2491 126.815C29.0904 126.917 28.952 127.06 28.8493 127.227C28.7482 127.395 28.6863 127.598 28.7134 127.813L28.7465 127.831C28.7966 127.763 28.8382 127.691 28.896 127.63C28.9231 127.598 28.9478 127.564 28.9766 127.534L29.0641 127.444C29.1855 127.329 29.3162 127.223 29.4588 127.134C29.5981 127.042 29.745 126.958 29.8969 126.887C29.9733 126.851 30.0506 126.818 30.1287 126.787C30.206 126.755 30.2858 126.725 30.3656 126.7L30.3562 126.662Z" fill="#1D2238"/>
<path d="M40.4706 125.41L38.9212 93.5546C38.8779 92.6594 38.7718 91.7684 38.6045 90.8885L35.313 73.5755L15.3609 72.0129C15.3609 72.0129 13.4014 79.994 17.4163 87.6767L19.4836 125.663L30.1316 125.595L30.1299 125.476L40.4706 125.411V125.41Z" fill="#1D2238"/>
<path d="M28.5319 74.6186L28.6678 76.2076L28.7943 77.7973L29.0473 80.9777L29.5117 87.3418L29.6271 88.9333L29.7324 90.5247L29.9421 93.7085L30.3606 100.075L30.3844 100.473C30.3912 100.606 30.3853 100.739 30.387 100.872L30.3844 101.669L30.3793 103.264L30.3683 106.455L30.3572 109.645L30.3505 111.24L30.3335 112.835L30.2656 119.215L30.2112 122.405L30.1841 124L30.1475 125.595H30.1187L30.1119 112.838L30.1085 106.461L30.1068 103.272V101.677L30.1051 100.879C30.1034 100.747 30.1085 100.613 30.1009 100.481L30.0762 100.083L28.5039 74.6186L28.5328 74.6169L28.5319 74.6186Z" fill="#4A4E60"/>
<path d="M44.2475 63.901L41.5129 59.6393L35.1973 61.3514L33.5443 50.0165C33.5282 49.895 33.5129 49.7921 33.4993 49.7105C33.0859 47.217 28.6805 42.8796 28.6805 42.8796L27.7075 43.8828L23.179 41.4268C23.179 41.4268 19.4146 42.9417 17.102 45.8806C14.7893 48.8196 15.3615 72.013 15.3615 72.013C15.3615 72.013 20.0369 75.8063 23.4193 76.4295C26.8017 77.0526 35.677 74.6178 35.677 74.6178C35.677 74.6178 35.5242 72.671 35.2966 69.8622L44.2458 63.9001L44.2475 63.901Z" fill="#F0C36A"/>
<path d="M27.707 43.8828L25.5744 45.7157C25.2263 46.0141 24.7126 46.0184 24.3637 45.7217C23.3789 44.886 21.6308 43.1687 22.1809 41.896L23.1794 41.4268L27.7079 43.8828H27.707Z" fill="white"/>
<path d="M27.707 43.8828L28.7606 45.0203C29.0467 45.3289 29.5493 45.2685 29.7548 44.9013L30.0638 44.3478L28.68 42.8796L27.707 43.8828Z" fill="white"/>
<path d="M22.0755 48.7956L26.0123 60.065L38.2572 53.8565L40.1946 58.6147L29.297 67.6449C28.2612 68.5027 26.9886 69.0229 25.6497 69.1352C23.377 69.3256 21.1679 68.3258 19.8104 66.4912C17.9655 63.9978 15.6291 60.5811 15.3923 58.9803C14.9958 56.2998 12.9752 51.1922 17.1013 45.8813L22.0746 48.7965L22.0755 48.7956Z" fill="#F0C36A"/>
<path d="M34.131 55.953C33.4679 56.3228 32.8023 56.6858 32.1341 57.0445C31.4668 57.4058 30.7961 57.7595 30.1263 58.1149C29.4539 58.466 28.7849 58.8222 28.1099 59.169C27.4358 59.5167 26.7643 59.8678 26.0876 60.2113L25.8958 60.3082L25.8516 60.0965C25.7506 59.6103 25.6394 59.1223 25.5248 58.6368C25.4101 58.1506 25.2947 57.6651 25.1724 57.1814C24.9254 56.214 24.6681 55.249 24.3795 54.2935C24.0942 53.3371 23.7826 52.3892 23.4227 51.4591C23.241 50.995 23.0491 50.535 22.8292 50.087C22.611 49.639 22.3708 49.2003 22.0762 48.7957C22.4039 49.1748 22.6773 49.6007 22.9252 50.0369C23.1688 50.4764 23.393 50.9278 23.5942 51.3877C24.0008 52.3076 24.3421 53.2529 24.6554 54.2068C24.9627 55.1623 25.2446 56.1264 25.4933 57.0981C25.7472 58.0698 25.9747 59.0449 26.1742 60.0311L25.9382 59.9163C26.6149 59.5737 27.2958 59.2396 27.9749 58.9029C28.6533 58.5646 29.3367 58.2356 30.0176 57.9015C30.7002 57.5716 31.3828 57.2401 32.0688 56.9162C32.7539 56.5897 33.4407 56.2684 34.131 55.9521V55.953Z" fill="#1D2238"/>
<path d="M15.3926 58.9795L15.8009 59.7191L16.2042 60.4613C16.4742 60.9552 16.745 61.4491 17.0192 61.9397C17.2918 62.4319 17.5651 62.9233 17.8453 63.4113L18.2664 64.1415C18.4073 64.3864 18.5466 64.6321 18.6833 64.8777C19.2343 65.8563 19.7742 66.8467 20.5154 67.6628C20.7038 67.8617 20.8957 68.0581 21.1088 68.2264C21.2115 68.3157 21.3245 68.3914 21.434 68.4713C21.5486 68.5427 21.6615 68.6184 21.7821 68.6804C22.2575 68.9423 22.783 69.1089 23.3204 69.1981C24.3995 69.3792 25.5236 69.2483 26.5746 68.9219C27.1018 68.7586 27.6129 68.5435 28.0985 68.2791C28.3405 68.1457 28.5757 68.0012 28.8024 67.8447C29.029 67.6875 29.2421 67.5149 29.462 67.3363C30.3356 66.6273 31.2135 65.9234 32.093 65.2204L33.4175 64.173L34.0797 63.6493L34.7461 63.1307L34.1128 63.6893L33.4752 64.2427L32.2 65.3487C31.3459 66.0824 30.491 66.8135 29.6318 67.5404C29.4196 67.7215 29.1997 67.9085 28.9679 68.0777C28.7344 68.2443 28.4925 68.3982 28.2437 68.5401C27.7445 68.8215 27.2173 69.0519 26.6731 69.2296C26.128 69.4056 25.5635 69.5246 24.9912 69.5824C24.419 69.6377 23.8383 69.6292 23.2661 69.5348C22.6964 69.437 22.1344 69.2568 21.6242 68.9737C21.4951 68.9065 21.3737 68.8249 21.2506 68.7467C21.1326 68.6609 21.012 68.5784 20.9025 68.4823C20.675 68.3004 20.4721 68.093 20.2785 67.8796C19.8982 67.446 19.5696 66.975 19.2767 66.4888C18.9804 66.0033 18.7155 65.5034 18.4523 65.0061C18.3207 64.757 18.1891 64.5096 18.0542 64.2639C17.9183 64.0166 17.7833 63.7692 17.6517 63.5201C17.3877 63.0219 17.1279 62.522 16.8741 62.0196C16.6219 61.5163 16.3732 61.0105 16.1261 60.5046L15.7568 59.7446L15.3943 58.982L15.3926 58.9795Z" fill="#1D2238"/>
<path d="M24.5826 64.1312C24.552 64.0291 24.5283 63.9254 24.5062 63.8209C24.485 63.7163 24.4587 63.6109 24.4527 63.5046C24.4366 63.2921 24.4162 63.0761 24.4357 62.8619C24.4502 62.4309 24.5529 62.0041 24.6998 61.5978C24.8475 61.1897 25.0674 60.8105 25.3331 60.4713C25.6005 60.1355 25.9198 59.8329 26.3027 59.6382C26.0632 59.9901 25.8552 60.337 25.6668 60.6924C25.48 61.0469 25.311 61.4056 25.1761 61.7771C25.0419 62.1486 24.9154 62.5253 24.8305 62.918C24.7745 63.1127 24.7482 63.3125 24.7006 63.5131C24.6582 63.7146 24.6352 63.9195 24.5818 64.1303L24.5826 64.1312Z" fill="#1D2238"/>
<path d="M41.4035 63.0185L36.3486 60.9033C36.0337 60.7715 35.9606 60.3575 36.2111 60.1254L49.2507 48.0314C49.4799 47.8189 49.8476 47.886 49.9876 48.1649L52.7477 53.6474C52.853 53.8565 52.7995 54.1099 52.6187 54.2586L42.0538 62.9232C41.8713 63.0729 41.6217 63.1094 41.4044 63.0185H41.4035Z" fill="#4A4E60"/>
<path d="M35.2314 69.9073C35.1491 69.387 35.082 68.8667 35.0217 68.3447C34.9903 68.0837 34.9623 67.8236 34.936 67.5617C34.9088 67.3008 34.8816 67.0398 34.8596 66.7788C34.8095 66.2568 34.7704 65.734 34.7305 65.2111C34.7085 64.9501 34.6957 64.6874 34.6779 64.4264C34.6618 64.1646 34.6431 63.9036 34.6312 63.6409L34.627 63.538L34.7102 63.493C34.9665 63.3536 35.2212 63.2107 35.4793 63.0739C35.7374 62.9379 35.9938 62.7976 36.2545 62.665C36.5143 62.5306 36.774 62.3972 37.0364 62.2671C37.2979 62.1362 37.5619 62.0087 37.8276 61.8862C37.5874 62.0537 37.3446 62.2178 37.0992 62.3776C36.8547 62.5391 36.6085 62.6956 36.3614 62.852C36.1152 63.0101 35.8648 63.1606 35.6169 63.3145C35.3681 63.4683 35.1168 63.6163 34.8664 63.7676L34.9453 63.6197C34.9708 63.8807 34.9886 64.1425 35.009 64.4035C35.0277 64.6653 35.0514 64.9263 35.0667 65.1882C35.1007 65.7119 35.1346 66.2347 35.1593 66.7592C35.1737 67.0211 35.1847 67.2829 35.1941 67.5456C35.2051 67.8074 35.2136 68.0701 35.2195 68.3328C35.234 68.8574 35.2408 69.3827 35.2314 69.909V69.9073Z" fill="#1D2238"/>
<path d="M47.9485 58.9149C47.929 58.7848 47.8925 58.6539 47.8611 58.5281C47.7957 58.2662 47.7337 58.0035 47.6701 57.7408C47.5818 57.3761 47.4926 57.0106 47.4043 56.6459C47.3143 56.2744 46.9399 56.0465 46.5689 56.1366C46.1979 56.2267 45.9704 56.6017 46.0604 56.9732L46.0858 57.0777C45.9228 56.9392 45.6987 56.8779 45.4754 56.9324C45.1044 57.0225 44.8769 57.3974 44.9669 57.7689C44.9949 57.8837 45.0229 57.9993 45.0509 58.114C45.0356 58.0775 45.0042 58.0503 44.9711 58.0273C44.7478 57.8752 44.3768 57.9117 44.2291 58.1549C44.14 58.3002 44.1688 58.4686 44.1807 58.6301C44.2342 59.3654 44.3412 60.1 44.421 60.8336L43.0762 62.0859L43.3835 62.5662C43.6611 62.4702 43.9184 62.4157 44.196 62.3197C44.5653 62.1922 44.9439 62.0893 45.3014 61.9295C45.5866 61.8028 45.8311 61.6217 46.0672 61.4202C46.5214 61.0326 46.9289 60.5896 47.3152 60.1357C47.4926 59.9274 47.6675 59.7157 47.8331 59.4972C47.968 59.3187 47.9782 59.1181 47.9477 58.9166L47.9485 58.9149Z" fill="#EB9481"/>
<path d="M44.4201 60.8328C44.4201 60.8328 44.269 61.4126 44.5534 61.8393C44.5534 61.8393 44.0542 61.7229 44.2282 61.0113L44.4201 60.8328Z" fill="#1D2238"/>
<path d="M46.0859 57.0776C46.277 57.2281 46.4272 57.4389 46.4994 57.677C46.5741 57.9099 46.6327 58.1454 46.693 58.3809C46.7507 58.6172 46.8067 58.8536 46.856 59.0916L46.929 59.4487C46.9502 59.5685 46.974 59.6875 46.9927 59.8083C46.9553 59.6926 46.9239 59.5753 46.8891 59.4589L46.7931 59.1069C46.7295 58.8723 46.6709 58.6368 46.6115 58.4013L46.4383 57.6948C46.4103 57.5784 46.3644 57.4687 46.3041 57.365C46.2447 57.2604 46.1717 57.1635 46.0876 57.0759L46.0859 57.0776Z" fill="#1D2238"/>
<path d="M45.0508 58.115C45.2308 58.2298 45.3963 58.3972 45.4575 58.6174C45.5194 58.8266 45.5636 59.0374 45.6086 59.2482C45.651 59.4599 45.6926 59.6716 45.7266 59.8841L45.7775 60.2038C45.7911 60.3109 45.8072 60.4172 45.8183 60.5251C45.7886 60.4214 45.7639 60.316 45.7368 60.2114L45.6629 59.8969C45.6137 59.6869 45.5704 59.4761 45.5254 59.2652C45.4821 59.0544 45.4405 58.8427 45.3946 58.6344C45.3734 58.5316 45.3276 58.438 45.2656 58.3522C45.2061 58.2646 45.1314 58.1864 45.0508 58.115Z" fill="#1D2238"/>
<path d="M36.9648 60.0652C37.4657 59.5747 37.976 59.0927 38.4828 58.6089C38.9888 58.1235 39.5016 57.6449 40.0119 57.1654L41.5519 55.7338L43.1005 54.3115C44.1379 53.3687 45.1746 52.4251 46.2197 51.4907L47.0024 50.7885L47.7894 50.0906C48.3133 49.6247 48.8379 49.1605 49.366 48.6997L49.4934 48.5884L49.5672 48.7355L50.1649 49.9231L50.7567 51.1141L51.3408 52.3094C51.5369 52.7073 51.7288 53.1069 51.9189 53.5073C51.6982 53.123 51.4792 52.737 51.2644 52.3494L50.6157 51.1881L49.9747 50.0226L49.3397 48.8545L49.5409 48.8902C49.0281 49.368 48.5128 49.8432 47.9958 50.3167L47.2215 51.0274L46.443 51.7339C45.4072 52.6784 44.3621 53.6127 43.3178 54.5478L41.7447 55.9429L40.163 57.3286C39.6332 57.7877 39.1051 58.2485 38.5703 58.7025C38.0371 59.1573 37.5057 59.6147 36.9657 60.0635L36.9648 60.0652Z" fill="#1D2238"/>
</svg>
